<?xml version="1.0" encoding="utf-8"?>
<!-- Generator: Adobe Illustrator 23.0.2, SVG Export Plug-In . SVG Version: 6.00 Build 0)  -->
<svg version="1.1" id="Capa_1" xmlns="http://www.w3.org/2000/svg" xmlns:xlink="http://www.w3.org/1999/xlink" x="0px" y="0px"
	 viewBox="0 0 517.1 520.1" style="enable-background:new 0 0 517.1 520.1;" xml:space="preserve">
<style type="text/css">
	.st0{fill:#5D7350;}
	.st1{fill:#7C5170;}
	.st2{fill:#E8E8E8;}
</style>
<title>LogoOscuro</title>
<path class="st0" d="M438.8,480.1c-14.3,6.8-29.3,12.3-44.6,16.4l-8.6,2.2c-2.9,0.6-5.8,1.1-8.7,1.7s-5.8,1.2-8.8,1.4l-8.9,0.9
	c-1.5,0.1-3,0.4-4.5,0.4l-4.5,0.1l-9,0.2c-3-0.1-6-0.4-9-0.6c-3-0.1-6-0.4-9-0.9c-5.9-1.1-12-1.7-17.8-3.6l-8.7-2.4
	c-2.9-0.9-5.8-1.9-8.6-3.1c-7-2.7-13.8-6.1-20.3-10c-3.9-2.3-7.6-4.7-11.2-7c-0.8-0.5-1.5-1-2.3-1.4c-8.8-5.5-17.4-10.4-26.6-14
	c-10.1-4-20.6-7-31.2-9.1c-21.4-4-43.6-3.6-65.6-0.7l-4.1,0.5l-4.1,0.8l-8.2,1.5c-5.5,1-10.9,2.4-16.4,3.6
	c-5.5,1.3-10.8,3.1-16.3,4.5s-10.8,3.4-16.2,5c-5.9,2-11.8,4.1-17.7,6.3c-2.9-2-5.7-4.2-8.5-6.4c7.3-3.7,14.7-7.2,22.2-10.5
	c5.4-2.2,10.7-4.6,16.2-6.6s11-4,16.6-5.7s11.2-3.5,16.9-4.8l8.6-2l4.3-0.9l4.4-0.7l8.8-1.5c2.9-0.5,5.9-0.7,8.8-1
	c5.9-0.8,11.8-1,17.8-1.2c11.9,0,24,0.6,35.8,2.8c11.9,2.1,23.5,5.4,34.7,10c11.2,4.5,21.9,10.8,31.5,17.1c1.6,1,3.1,2,4.6,3
	c4.4,2.8,8.7,5.4,13,7.8c3.6,2,7.2,3.7,11,5.3c2.5,1.1,5,2,7.5,2.9l7.8,2.3c5.1,1.8,10.5,2.4,15.8,3.6c21.5,3.6,43.8,1.9,65.5-2.8
	c5.5-1,10.8-2.7,16.2-4.1s10.7-3.4,16.1-5.1c0.2-0.1,0.5-0.2,0.7-0.3C429.7,476.4,434.6,478.4,438.8,480.1z"/>
<path class="st0" d="M39.5,466.6c2.8,2.2,5.6,4.3,8.5,6.4c-2.2,0.8-4.4,1.6-6.5,2.5c-13.2,5.1-26.2,10.6-39.3,16.3
	c-0.8,0.3-1.7-0.1-2-0.9c-0.3-0.7,0-1.4,0.6-1.8c10.6-6.9,22-13.3,33.9-19.9C36.2,468.3,37.8,467.4,39.5,466.6z"/>
<path class="st0" d="M516.6,431.6c-18.2,14.2-37.5,27-57.7,38.3c-4.8,2.7-9.6,5.2-14.6,7.6c-1.8,0.9-3.7,1.8-5.5,2.6
	c-4.2-1.8-9.2-3.8-14.6-5.8c2.6-1,5.3-2,7.9-3c2.4-0.9,4.7-1.8,7.1-2.8c5.2-2.3,10.5-4.3,15.6-6.8c20.6-9.7,40.6-20.6,60-32.6
	c0.8-0.4,1.7-0.1,2.1,0.6C517.2,430.3,517.1,431.1,516.6,431.6L516.6,431.6z"/>
<path class="st1" d="M256.8,475.9c3.6,2.3,7.4,4.7,11.2,7c-3.8,3-7,5.7-10.2,7.8c-8.4,5.5-15.5,10-21.2,12.7
	c-8.1,3.7-16.5,6.6-25.2,8.6c-1.5,0.4-5.9,1.5-11.7,2.5c-11,1.9-22.2,2.8-33.4,2.8c-4.3,0-8.2-0.1-11.9-0.4
	c-9.6-0.4-19.1-1.3-28.5-2.9c-9.3-1.6-18.4-3.8-27.4-6.7c-8.6-2.6-17-5.8-25-9.8c-6.6-3.4-12.9-7.2-18.9-11.5
	c-4.6-3.3-9-6.8-13.2-10.5c-2.3-2.1-4.6-4.2-6.9-6.3c-10.5-10.2-20.3-21.2-29.3-32.8c0-0.1,0.4-0.5,0.5-0.5c0.1-0.1,0.2-0.1,0.3,0
	c10.5,11,21.6,21.2,33.4,30.8c2.8,2.2,5.6,4.3,8.5,6.4c3.7,2.7,7.6,5.2,11.6,7.5c7.4,4.2,14.9,7.4,14.9,7.4
	c8.1,3.5,16.4,6.4,24.9,8.7c9.3,2.6,18.6,4.6,28.1,6.1c15.2,2.5,26.6,4.3,42.2,3.7c12.3-0.4,24.5-2.3,36.4-5.7
	c10.2-3.1,20-7.3,29.4-12.5c2.8-1.6,8.4-5.7,8.4-5.7c3.2-2.4,6.1-5,10.5-8.1C255.3,475,256,475.4,256.8,475.9z"/>
<path class="st1" d="M516.8,519.4c-0.5,0.6-1.3,0.8-2,0.4c-19.3-11.7-39.4-22.3-60-32.6c-0.3-0.1-0.7-0.3-1-0.5v-0.1
	c0,0-5.8-2.7-15-6.6c-4.2-1.8-9.2-3.8-14.6-5.8c-8.8-3.4-18.9-7-29.5-10.2c-17.7-5.3-27.2-6.2-32.1-6.6c-14.4-1.3-28.8-0.6-43,2.1
	c-15.9,3.2-27.4,7.8-36.1,12.8c-4.3-2.4-8.6-5-13-7.8c5.8-3.2,11.7-6,17.8-8.5c2.8-1.2,5.7-2.1,8.5-3.1l8.8-2.4
	c5.8-1.9,11.8-2.5,17.8-3.5c3-0.7,6-0.6,9-0.9s6-0.5,9-0.6l9,0.2l4.5,0.1c1.5,0,3,0.3,4.5,0.4l8.9,0.9c3,0.3,5.9,1,8.8,1.5
	s5.8,1,8.7,1.7l8.6,2.2c12.4,6,25.1,12.3,37.9,18.8c4,2,8.1,4.1,12.2,6.3c5.5,2.9,11,5.8,16.5,8.7c19.3,10.3,37.9,20.7,55.8,31.1
	C517.2,517.9,517.3,518.8,516.8,519.4z"/>
<path class="st2" d="M120.9,446c0.5,1.3,0,2-1.4,2.1c-0.6,0.2-1.3,0.1-1.9-0.3c-0.3,0.6-0.6,1.1-1,1.6c-0.3,0.5-0.9,0.7-1.4,0.7
	c-0.7-0.1-1.4-0.4-2-0.9c-0.6-0.5-1-1.2-1.1-2c-0.2-0.5-0.4-0.9-0.7-1.4c-0.3-0.4-0.5-0.9-0.7-1.3c-1-1.8-2-3.6-3-5.4
	c-0.9-1.8-2-3.5-3.3-5.1c-0.6-0.8-1.1-1.5-1.6-2.3s-1-1.7-1.5-2.5c-1.1-2.2-2.2-4.4-3.4-6.6c-1.2-2.2-2.3-4.4-3.4-6.6
	c-0.8-1.7-1.5-2.7-2.1-3c-1.2-0.3-2.5-0.3-3.7,0h-2c-3.8-0.2-7.6-0.1-11.4,0.2c-3.8,0.3-7.5,0.7-11.4,1.1c-2.5,0.2-4.9,0.3-7.2,0.5
	s-4.7,0.3-7.1,0.5c-0.6,0.8-1.6,2.5-3.1,5.1s-3.1,5.2-4.9,7.9c-1.8,2.8-3.5,5.3-5.1,7.6c-1.7,2.3-3,3.7-3.9,4.2c-1,0.6-2,1.2-3,1.9
	c-1,0.7-1.9,1.6-2.6,2.6c-0.4,0.3-0.9,0.5-1.4,0.3c-0.4-0.1-0.8-0.3-1.1-0.6c-0.4-0.2-0.8-0.5-1.1-0.8c-0.4-0.3-0.8-0.4-1.3-0.3
	c-0.2,0.1-0.3-0.1-0.2-0.5c0-0.4,0.1-0.7,0.2-1.1c0.3-0.9,0.6-1.7,1-2.5c0.4-0.8,0.8-1.6,1.3-2.3c0.4-0.6,0.7-1.2,1-1.8
	c0.3-0.6,0.6-1.2,0.9-1.8c0.1-0.3,0.6-1.4,1.5-3.4s1.8-4.1,2.8-6.4s1.8-4.4,2.5-6.4s1-3,0.8-3.2h-1.3c-0.4,0.2-0.8,0.2-1.1,0.1
	c-0.5,0-1-0.1-1.5-0.4c-0.5-0.2-1-0.5-1.5-0.6c-0.6-0.5-0.7-0.9-0.4-1.3c0.3-0.4,0.5-0.9,0.6-1.4c-0.9-0.2-1.7-0.6-2.4-1.1
	c-0.2-0.2-0.2-0.9,0-2.1c-1,0.2-2.1,0.3-3.2,0.4s-2.3,0.2-3.6,0.4c0.4-0.6,1-1,1.6-1.2l1.5-0.3c2.2-0.2,4.4-0.6,6.5-1.2
	c2.2-0.6,4.5-0.5,6.6,0.4c1.7-0.5,3.3-1.1,4.8-1.9c1.6-0.8,2.9-2,3.9-3.5c1.2-1.9,2.4-3.7,3.6-5.4s2.4-3.5,3.6-5.4
	c0.5-0.5,0.9-1.1,1.3-1.7c0.4-0.6,1-1.1,1.7-1.4c1.8-2.3,3.4-4.7,4.9-7.2c1.4-2.5,3-5,4.6-7.4c0.6-1,1.1-1.9,1.7-2.7
	s1.2-1.8,1.9-2.7c1.4-1.8,2.5-3.8,3.1-6c-0.4-0.6-0.6-1.2-0.7-1.9c-0.1-0.7-0.2-1.3-0.4-2c-0.1-0.6,0-1.1,0.4-1.6
	c0.3-0.4,0.9-0.6,1.4-0.3c1.7,0.9,3.6,1.4,5.6,1.4c1.9-0.1,3.8,0.3,5.6,0.9c1.3,0.5,2.6,1.1,3.8,1.9c1.2,0.8,2.1,1.9,2.6,3.3
	c0.5,1.2,1,2.4,1.6,3.5c0.6,1.1,1,2.4,1.1,3.6l0.9,2.3c0.3,0.8,0.4,1.7,0.4,2.6c0.1,0.3,0.1,0.7,0.1,1.1c0,0.4,0.2,0.8,0.6,1.1
	c2.4,4,4,8.3,4.7,12.8l0.8,2.2c0.2,0.7,0.5,1.3,0.6,2c0.7,0.7,1.1,1.6,1.4,2.6c0.3,0.9,0.5,1.9,0.6,2.8v0.1c0.7,1,1.3,2.1,1.7,3.2
	c0.4,1.1,0.8,2.2,1.3,3.2l2.2,5.6c0.7,1.9,1.6,3.7,2.5,5.4c1.3,2.8,2.5,5.6,3.6,8.5c1.1,2.9,2.3,5.7,3.6,8.5
	c0.7,1.6,1.3,3.2,1.6,4.9c0.3,1.7,0.5,3.4,0.7,5.1h0.7C119.7,444.2,120.1,445.2,120.9,446z M76.2,398.3c1.6-0.4,3.2-0.6,4.9-0.8
	c1.7-0.2,3.3-1,4.4-2.3c-1-3.3-2.2-6.6-3.5-9.8s-2.6-6.5-3.9-9.8c-0.4,0.2-0.8,0.5-1.1,0.9c-2.6,3.3-5.1,6.7-7.6,10.2
	c-2.5,3.5-4.9,7-7.3,10.5c-0.5,1.4-0.4,2.3,0.1,2.6c0.8,0.3,1.6,0.4,2.4,0.2c1.9-0.2,3.8-0.4,5.8-0.7S74.3,398.7,76.2,398.3z"/>
<path class="st2" d="M182.8,431.8c0.5,0.5,0.5,0.9,0.1,1.3c-0.3,0.4-0.7,0.8-1.1,1.1c-1.4,0.9-3,1.6-4.7,2c-0.2,0-0.4,0.1-0.6,0.2
	c-0.8,0.2-1.5,0.4-2.2,0.6s-1.5,0.5-2.2,0.8c-0.7,0.4-1.4,0.8-2.2,0.9c-0.7,0.1-1.5,0.3-2.2,0.4c-3.6,0.4-7.3,0.7-10.9,1.1
	c-3.6,0.3-7.3,0.4-10.9,0.2c-4.1,0.2-8.2,0.4-12.2,0.7s-8.2,0.5-12.4,0.6c-0.7,0.1-1.3,0.2-1.9,0.2c-0.7,0-1.4-0.2-1.9-0.6
	c-1.1,0-2.1-0.6-2.8-1.5c-0.6-0.9-1.5-1.6-2.5-1.9c-1.9-0.7-3-1.3-3.4-1.8s-0.3-1.7,0.1-3.6c0.3-1.3,0.1-2.7-0.6-3.9
	c-0.7-1.2-0.6-2.2,0.3-3c0.4-0.4,0.7-0.8,0.8-1.4c0-0.5,0-1-0.2-1.5c-0.4-1.3-0.5-2.6-0.3-3.9c0.2-1.2,0.4-2.5,0.7-3.8v-1.4
	c-0.9-2.1-0.4-3.7,1.4-4.7c0-0.4,0-0.9-0.1-1.3c-1.2-0.5-2-1.8-1.9-3.1c-0.1-2.7-0.1-5.3-0.1-7.8c0-2.6,0.1-5.2,0.1-7.8
	c-1.5-1.4-1.8-3.6-0.6-5.3c0.5-0.9,0.8-1.9,1.1-2.9c0.2-1,0.5-2,0.8-3.1l0.1,0.3c0-0.2-0.1-0.3-0.1-0.3c-0.2-0.9-0.2-1.9-0.1-2.9
	c0.1-1,0.1-1.9,0.1-2.9c0.1-2.5,0.2-4.9,0.2-7.3c0.1-2.4,0-4.8-0.2-7.3c0.4-1.4,1.3-1.8,2.7-1.1c0.6,0.3,1.3,0.4,2,0.2
	c0.7-0.1,1.4,0,2,0.4h1.4c0.5,0,0.9,0.1,1.4,0.1c2.6,0.2,4.5,0.8,5.6,1.9c1.2,1.1,2,3,2.5,5.8c0.6,0.6,0.8,1.4,0.6,2.1
	c-0.5,1.6-0.7,3.3-0.6,5.1c0.1,1.7-0.2,3.4-0.6,5.1c-0.1,1-0.2,1.9-0.2,2.7c-0.1,0.9-0.2,1.8-0.5,2.7v0.6c0.2,2.8,0.1,5.6-0.2,8.3
	c-0.3,2.8-0.6,5.6-0.8,8.4c-0.2,2.4-0.5,4.8-0.9,7.2c-0.4,2.3-0.8,4.7-1.2,7.2c-0.1,0.6-0.2,1.2-0.1,1.8c0,0.6,0,1.3-0.1,1.9
	c0.5,1.1,0.5,2.3-0.1,3.3c-0.5,1.1-0.8,2.4-0.9,3.7c1.3-0.3,2.6-0.3,3.9-0.1c1.2,0.2,2.5,0,3.6-0.8c0.5-0.4,1.2-0.4,1.7,0
	c1.6,1,3.4,1.5,5.3,1.4c1.8-0.1,3.6-0.3,5.4-0.6c1.8-0.3,3.6-0.4,5.4-0.4c1.7,0,3.5-0.1,5.2-0.3c0.5-0.2,1-0.2,1.4,0
	c1.3,0.9,2.9,1.4,4.6,1.4c1.6,0,3.2-0.1,4.9-0.1c1.4,0,2.9,0.2,4.3,0.6c1,0.3,2,0.4,3,0.4c1.2-0.2,2.5-0.1,3.7,0.1
	c1.2,0.3,2.4,0.7,3.6,1.1c0.2,0.2,0.5,0.4,0.7,0.6c0.2,0.2,0.5,0.3,0.7,0.3c1.3-0.2,2.1,0.2,2.4,1.1
	C181.9,430.2,182.3,431,182.8,431.8z"/>
<path class="st2" d="M227.6,358.1c0.3,1.1,0.4,2.2,0.3,3.3c0,3.7-1.5,6.4-4.4,8c-0.8,0.8-2,1.1-3.1,0.9c-0.7-0.1-1.4-0.1-2.1,0
	c-0.8,0.1-1.3-0.4-1.7-1.4c-1.5,0-3,0-4.5-0.1s-3-0.1-4.5-0.1h-2.1c-0.4,0-0.8,0.1-1.1,0.3c-0.3,0.3-0.5,0.6-0.6,1
	c-0.1,0.5-0.3,1.1-0.5,2c-0.1,0.2-0.2,0.5-0.3,0.7c-0.1,0.2-0.2,0.5-0.3,0.7c-0.1,1-0.1,2-0.1,3v2.8c-0.1,0.1-0.2,0.1-0.3,0.2
	c0,0.3,0,0.6,0.1,0.8c0.1,0.9,0.2,1.9,0.2,2.8c0,1.4,0.1,3,0.1,4.9s0.1,3.9,0.1,6.1s0,4.2-0.1,6.1s-0.1,3.6-0.3,5
	c0,0.9-0.2,1.8-0.5,2.7c0,1.2,0.1,2.3,0.3,3.4c0.2,0.8,0.4,1.4,0.6,2c0.2,0.6,0.3,1.3,0.3,2c-0.1,1.2-0.3,2.4-0.6,3.6
	c-0.3,1.3-0.4,2.7-0.3,4c0.1,1.4,0.4,2.7,1,4c0.5,0.9,0.8,2,0.9,3c0.1,1.1-0.2,2.2-0.7,3.1c-0.2,0.2-0.3,0.5-0.4,0.9
	c-0.1,0.3,0,0.6,0.2,0.8c0.5,1,0.8,2.1,0.7,3.2c-0.1,1-0.4,2-0.8,2.8c-0.4,0.9-0.9,1.8-1.4,2.6c-0.5,0.8-0.9,1.7-1.2,2.6
	c-0.4,0.7-1,1.2-1.7,1.4c-0.5,0.3-0.7,0.8-0.7,1.3c-0.4,1-1.1,1.1-2.1,0.4c-1.1-0.8-1.9-2.1-2.1-3.4c0-0.2,0-0.3-0.1-0.4
	c-0.8-0.6-1.5-1.2-2.1-1.9c-0.6-0.8-1.1-1.7-1.4-2.6c-1.1-4.6-2.3-9.1-3.6-13.5c-1.2-4.5-2-9.1-2.1-13.8c0.1-1.1,0.6-1.7,1.6-1.7
	c-0.2-2-0.4-4.7-0.5-8s-0.2-6.8-0.3-10.4s0-7.1,0-10.4s0.2-6,0.4-8c0.1-0.6,0.1-1.2,0.1-1.9c0-0.6,0.1-1.2,0.1-1.9
	c-0.2,0-0.4,0-0.6-0.1c-0.2-0.3-0.4-0.6-0.6-0.9v-0.6h-4.9c-1.7,0.3-3.4,0.3-5.1,0h-0.9c-1.7,0.5-3.5,0.7-5.3,0.6
	c-1.8-0.1-3.6,0.2-5.3,0.8c-3-0.1-6.1,0-9.1,0.3l-9.1,0.9c-1.6,0.2-3.2,0.3-4.8,0.2c-1.6,0-3.2,0-4.8,0.2c-0.4,0-0.8,0-1.3,0.1
	c-0.4,0-0.9,0.1-1.3,0.1c-0.4,0-0.7-0.1-1.1-0.2c-0.3-0.1-0.5-0.5-0.6-1.1c-0.1-0.4,0-0.8,0.3-1.1c0.3-0.2,0.6-0.4,1-0.5l1.2-0.3
	c0.4-0.1,0.7-0.2,1.1-0.4c0.1-0.1,0.3-0.2,0.4-0.1l-4-0.9c-1.3-0.3-2.7-0.5-4-0.7c0.7-0.7,1.5-1.2,2.5-1.4c0.9-0.1,1.8-0.3,2.6-0.5
	c0.7-0.2,1.3-0.4,1.9-0.5s1.3-0.3,1.9-0.5c-0.2-0.3-0.1-0.7,0.1-1c0.3-0.3,0.7-0.5,1.1-0.6c1.6-0.4,3.2-0.7,4.7-1.1
	c1.6-0.3,3.1-0.6,4.7-0.8c3-0.6,6-1,8.9-1.3c1.3-0.5,2.7-0.8,4.1-1c1.4-0.2,2.8-0.3,4.2-0.4c0.2,0,0.5,0,0.7-0.1
	c1.6-0.5,3.3-0.8,4.9-0.9c1.7-0.1,3.3-0.3,4.9-0.4c0.9,0.1,1.8,0.1,2.7-0.1c0.9-0.1,1.8-0.3,2.7-0.5c0.3-0.4,0.6-0.7,1-1
	c0.3-0.6,0.4-1.3,0.5-2c0-0.7,0.4-1.3,0.9-1.7c0.4-0.8,0.8-1.1,1.4-0.9c0.5,0.1,1,0.3,1.5,0.5c1.6,0.8,3.6,0.5,5-0.6
	c0.9-0.2,1.8-0.3,2.7-0.3c0.9,0,1.7,0.1,2.6,0.3c0.3,0.3,0.7,0.5,1,0.7c1.2,0.8,2.6,1,4,0.7c1.7-0.3,3.3-0.4,5-0.4
	c1.7,0,3.3,0.1,5,0.3c4.3,0.6,8.6-0.9,11.4-4.1l0.3,0.1c1.2,1.3,2.2,2.7,3.1,4.1c0.9,1.5,1.4,3.1,1.6,4.9c0,0.1,0,0.2,0.1,0.3
	c0,0.1,0.1,0.2,0.1,0.3c0.1,0.1,0.1,0.2,0.1,0.3C227.4,357.9,227.5,358,227.6,358.1z"/>
<path class="st2" d="M292.6,432.2c0.2,0.4,0.3,0.9,0.2,1.3c0,0.4-0.4,0.7-0.9,0.9c-2.4,2.4-5.5,4.1-8.9,4.7l-9.9,1.7
	c-4.5,0.8-8.9,1.3-13.4,1.7c-4.4,0.4-8.9,1-13.4,1.7c-1.3,0.2-2.6,0.4-3.9,0.5c-1.3,0.1-2.6,0.1-3.9-0.2c-0.4-0.1-0.8-0.1-1.1-0.1
	c-0.4,0-0.9,0-1.3-0.2c-1.5-0.3-2.9-1-4.1-2c-1.2-1.1-1.9-2.6-2-4.3c-1-0.7-1.5-1.8-1.4-3v-1.8c0-0.6-0.3-1.2-0.7-1.6
	c-0.5-1.1-0.6-2.2-0.5-3.3c0.1-1.1,0.1-2.2-0.1-3.4c-0.4-2.8-0.7-5.5-1-8.2s-0.5-5.4-0.7-8.2c-0.3-3.9-0.3-7.8-0.1-11.7
	c0.2-3.8,0.2-7.7,0.1-11.7c0-0.5,0-1,0.1-1.6s0.1-1.1,0.1-1.6c-0.1-1.7-0.1-3.4-0.1-5.1c0-1.7,0.2-3.5,0.7-5.1v-1.9
	c0-0.6,0.3-1.2,0.7-1.6c-0.1-1.2-0.2-2.4-0.3-3.6s-0.2-2.3-0.4-3.6c-0.5-0.3-0.9-0.6-1.2-1.1c-0.3-0.4-0.3-0.9,0.2-1.5
	c0.3-0.4,0.8-0.6,1.3-0.6c0.5,0,1,0.1,1.4,0.4c0.4,0.6,1.1,0.9,1.9,0.8c0.7-0.2,1.3-0.5,1.9-0.9c0.8-0.5,1.7-0.6,2.6-0.3
	c1.2,0.3,2.5,0.6,3.6,0.9l3.5,0.9c2.6-0.5,5.1-0.9,7.6-1.3c2.5-0.4,5.1-0.5,7.6-0.3c1.8-0.5,3.6-0.7,5.4-0.7c1.8,0,3.7-0.1,5.6-0.3
	c1-0.1,2-0.1,3,0c1,0.1,2,0,3-0.1c0.4-0.1,0.9-0.1,1.3-0.1c0.4,0,0.7,0.4,0.9,0.9s0.1,1-0.4,1c-0.4,0-0.7,0.1-1.1,0.3
	c-0.4,0.2-0.6,0.3-0.6,0.4s0.1,0.2,0.2,0.3c0.1,0.1,0.3,0.2,0.4,0.2c0.1,0,0.2,0.1,0.2,0.2c0.6,0,1.2,0.1,1.8,0.4
	c0.4,0.2,0.5,0.8,0.2,1.8l0.1,0.1c0,0.6-0.3,1.2-0.7,1.7c-0.4,0.4-0.9,0.8-1.4,1.1c-0.3,0.6-0.5,1.1-0.8,1.7c-0.3,0.6-0.8,1-1.5,1.1
	h-1.3c-2.4,1.7-5.2,2.8-8.1,3.3c-3.1,0.5-6.3,1.2-9.3,2.2c-3,1-6.1,1.8-9.3,2.3c-0.1,0.1-0.2,0.1-0.2,0.1s-0.1,0-0.2,0.2
	c-0.4,2.8-0.7,5.5-1,8.1s-0.6,5.4-0.9,8.1c0.5,0.4,1.1,0.6,1.8,0.6c0.6,0,1.3,0.1,1.9,0.1c0.8-0.4,1.6-0.6,2.4-0.6
	c0.8,0,1.6-0.2,2.4-0.4c3.8-0.8,7.7-1.1,11.6-1.1c3.8,0,7.7-0.1,11.6-0.3c2-0.2,4.1,0.3,5.9,1.3c1.2,0.8,1.4,1.6,0.6,2.6
	c-0.2,0.2-0.4,0.4-0.6,0.7c0.3,0.3,0.6,0.6,0.9,0.9c0.4,0.3,0.4,0.6-0.1,1c-1,0.8-1.9,1.8-2.7,2.9c-0.8,1.1-1.9,2-3.1,2.5
	c-2.7,1-5.5,1.9-8.3,2.5c-2.8,0.6-5.5,1.2-8.3,1.6c-3,0.5-6,1-8.9,1.5c-2.9,0.5-5.8,1.3-8.6,2.4c-0.1,2.5-0.1,5-0.1,7.4
	c0,2.5-0.3,5-1,7.4c-0.5,1.4-0.5,2.9-0.1,4.3l9.9-1.3c1.8-0.5,3.6-1,5.3-1.7c1.6-0.6,3.4-1,5.1-1.1c1.9-0.2,3.9-0.2,5.9-0.1
	c2,0.1,4,0.4,5.9,0.6c2,0.3,4,0.4,6.1,0.3l6.1-0.3c2.1,0,4.3,0.3,6.3,1c1,0.2,1.9,0.8,2.5,1.6C292.8,430,292.9,431.1,292.6,432.2z"
	/>
<path class="st2" d="M427.8,473.2c0.6,1.5,0.7,2.5,0.4,2.9s-1.2,0.5-2.6,0.2c-0.4,0-0.8-0.1-1.1-0.3c0.1,0.2,0.2,0.5,0.3,0.7
	c-0.4,0.3-0.9,0.3-1.3,0.1c-0.4-0.2-0.8-0.5-1.2-0.7c-2.2-1.5-4.4-3-6.6-4.6c-2.2-1.5-4.3-3.1-6.4-4.8l-0.8-0.6l-0.9-0.6
	c-0.1-0.1-0.3-0.3-0.4-0.4c-0.1-0.1-0.2-0.2-0.4-0.3c-0.4-0.2-0.8-0.4-1.1-0.8c-0.2-0.3-0.5-0.6-0.8-0.9c-1.2-0.1-2.4-0.4-3.4-1
	c-0.8-0.8-1.4-1.8-1.7-2.9l-1.4-1.7c-0.5-0.6-1.1-1-1.9-1.3c-3.4-3.3-6.9-6.6-10.5-9.9c-3.6-3.2-7-6.6-10.3-10
	c-1.8-1.8-3.6-3.6-5.4-5.4c-1.8-1.8-3.5-3.8-5.1-5.8c-0.5-0.7-1.2-1.4-2-1.9c-0.8-0.5-1.8-0.7-2.7-0.6c-0.1,0-0.2,0-0.2,0.1
	c-0.1,0.1-0.1,0.1-0.2,0.1c-0.1,0.6-0.4,1.2-0.6,1.7c-0.1,0.2-0.2,0.3-0.4,0.4c-0.1,0-0.3,0.2-0.4,0.4c-0.1,0.6-0.2,1.2-0.1,1.8
	c-0.4,1.8-0.8,4.1-1.4,6.8c-0.4,2.3-1,4.5-1.8,6.7c1,1.3,2.1,2.6,3.3,3.8c1.1,1.2,2.2,2.5,3.3,3.8c1,1.3,2,2.6,2.7,3.9
	c0.9,1.3,1.4,2.8,1.6,4.3c0.3,0.2,0.6,0.4,0.9,0.7c0.3,0.3,0.2,0.7-0.3,1.2c-0.3,0.5-0.3,0.8-0.1,1.1c0.2,0.2,0.5,0.5,0.8,0.6
	c0.5,1.4,0.5,2.4,0.2,2.9s-1.2,0.6-2.6,0.3c-0.2-0.1-0.4-0.1-0.6-0.1s-0.4-0.1-0.6-0.1c0.2,0.2,0.3,0.4,0.3,0.7
	c-0.4,0.3-0.9,0.3-1.3,0.1c-0.4-0.2-0.8-0.5-1.1-0.8c-2.2-1.4-4.4-2.9-6.6-4.4c-2.2-1.5-4.3-3.1-6.4-4.8c-0.5-0.4-1.1-0.8-1.7-1.2
	c-0.2-0.3-0.4-0.6-0.7-0.8c-0.4-0.2-0.7-0.4-1-0.7l-0.9-0.8c-1.2-0.1-2.4-0.4-3.4-1c-0.9-0.8-1.5-1.9-1.7-3c-0.5-0.6-1-1.1-1.4-1.6
	c-0.5-0.6-1.1-1-1.9-1.2c-3.4-3.3-6.9-6.6-10.4-9.8c-3.5-3.2-7-6.6-10.3-10c-1.8-1.9-3.6-3.8-5.4-5.6c-1.8-1.8-3.5-3.7-5.1-5.7
	c-0.6-0.8-1.2-1.4-2-1.9c-0.8-0.5-1.8-0.7-2.7-0.5c-0.2,0-0.3,0-0.4,0.1c-0.5,1.9-0.8,3.8-1.1,5.8c-0.2,2-0.4,3.9-0.5,5.9
	c-0.2,0.9-0.4,1.9-0.6,3.1s-0.5,2.5-0.8,3.8s-0.6,2.5-0.9,3.8c-0.2,1.1-0.6,2.1-1,3.1c-0.2,1.2-0.9,1.7-2,1.4c-0.2,0-0.5,0-0.7,0.1
	v2.6c0.1,0.8,0,1.6-0.3,2.3c-0.6,0.3-1.2,0.5-1.9,0.4c-0.2,0.1-0.4,0.1-0.6,0.2c-0.5,0-0.7-0.2-0.7-0.4v-1l0.1,0.1l-0.1-0.1
	c-0.1-0.2-0.1-0.4-0.1-0.6c-0.3,0.5-0.6,1-0.9,1.4c-0.4,0.5-1.1,0.7-1.6,0.4c-0.7-0.1-1.2-0.6-1.4-1.2c-0.1-0.6-0.3-1.3-0.4-1.9
	c-0.4-4.2-0.6-8.9-0.8-14c-0.1-5.1-0.2-9.8-0.1-14c-1.1-0.6-2.1-1.5-2.9-2.5c-0.8-1-1.9-1.7-3.2-2.1c-0.7-0.2-0.8-0.6-0.4-1.1
	c0.2-0.5,0.4-0.9,0.6-1.4c0.2-0.4,0.7-0.6,1.1-0.5c1,0.2,1.7,0,2.1-0.6s0.6-1.2,0.9-1.8c0.9-1.9,1.3-4,1-6.1
	c-0.2-1.7-0.3-3.4-0.2-5.1c0-1.7,0.1-3.5,0.2-5.3c0.1-1.9,0.1-3.8,0.1-5.7v-5.7c0-0.8,0-1.6,0.1-2.4c0-0.8,0.3-1.7,0.6-2.4
	c0.2-1.1,0.3-2.3,0.3-3.4c0-1.1,0-2.3-0.1-3.6c0-0.3-0.2-0.6-0.4-0.7c-0.3-0.2-0.6-0.3-0.9-0.5c-0.3-0.1-0.5-0.3-0.6-0.5
	c-0.1-0.2-0.1-0.5,0.1-0.9c0.5-0.9,1-1.1,1.6-0.7c0.5,0.4,1.1,0.5,1.8,0.6c0.5,0.1,0.9,0.2,1.2,0.2l1.2,0.2
	c-0.2-0.4-0.2-0.9-0.1-1.3c0.1-0.4,0.5-0.6,1.1-0.6c1-0.1,2-0.3,3-0.6c1-0.3,2-0.3,3-0.1c2-0.5,4-1,5.9-1.6c1.9-0.6,4-0.8,6-0.7
	c0.9,0.1,1.7,0.2,2.6,0.2c0.8,0,1.7,0.3,2.4,0.6c3.5,0.5,7,1.1,10.4,1.8c3.4,0.7,6.7,1.9,9.7,3.6c4.6,2.5,8.4,6.2,11.1,10.7
	c0.5-0.2,1-0.2,1.4,0.1c0.5,0.2,0.9,0.4,1.4,0.5c0.4,0,0.8,0,1.1,0.1c0.4,0.1,0.8,0.2,1.3,0.3c-0.5-1.2-0.1-1.9,1-2
	c1-0.1,2-0.3,3-0.5c1-0.2,2-0.3,3-0.1c1.9-0.5,3.8-1,5.8-1.6c2-0.6,4-0.8,6.1-0.7c0.9,0,1.7,0,2.6,0.1c0.8,0,1.7,0.3,2.4,0.6
	c3.4,0.6,6.9,1.2,10.3,1.9c8.3,1.8,15.5,6.6,20.4,13.5c2.6,4.2,3.9,9.1,3.6,14c-0.1,2.1-0.3,4.2-0.7,6.3c-0.4,2-1.1,4-2,5.8
	c-0.3,1.9-1.6,3.4-3.4,4c-1.9,0.8-3.8,1.5-5.8,2.1c-2,0.7-4,1.3-6.1,1.7c-0.8,0.2-1.6,0.3-2.5,0.5c-1,0.2-1.7,0.9-2.1,1.8
	c-0.2,0.1-0.4,0.2-0.6,0.1c0.2,0,0.4,0,0.6-0.1c1.9,2.4,3.9,4.7,6,6.9c2.1,2.1,4.1,4.4,6.1,6.6c1.3,1.1,2.6,2.3,3.8,3.5
	c1.2,1.2,2.3,2.5,3.3,3.9c0.4,0.7,1,1.4,1.7,1.9c0.7,0.5,1.3,1,1.9,1.6l1.4,1.4c0.5,0.5,0.9,1.1,1.2,1.7c1.2,0.8,2.3,1.8,3.3,2.8
	c1,1,2,2.1,2.9,3.2c1.1,1.5,2.3,2.8,3.6,4.1c1.3,1.3,2.5,2.6,3.6,4.1c0.9,1.3,1.8,2.6,2.6,3.9c0.8,1.4,1.4,2.9,1.5,4.5
	c0.4,0.2,0.7,0.4,1,0.6c0.3,0.2,0.2,0.6-0.3,1.2c-0.3,0.4-0.3,0.7-0.1,0.9L427.8,473.2z M311.2,391.2c1.9,0.2,3.7,0,5.5-0.7
	c1.8-0.6,3.5-1.2,5.4-1.6c2.1-0.4,3.9-1.5,5.3-3.1c1.3-1.6,2.2-3.5,2.7-5.6c0.1-0.5,0.2-0.9,0.3-1.3c0.1-0.4,0.2-0.8,0.4-1.2
	c-0.8-1.5-1.9-2.8-3.4-3.8c-1.4-0.9-2.9-1.6-4.5-2.1c-2.8-0.9-5.8-1.5-8.8-1.6c-3-0.1-6,0.2-8.9,1.1c-0.7,0.2-1.3,0.4-2,0.6
	c-0.7,0.2-1.4,0.3-2.1,0.1v0.2c-0.2,2.8-0.3,5.6-0.4,8.4s-0.2,5.7-0.4,8.6c-0.1,0.5-0.2,1-0.1,1.6c0,0.6,0.3,1.2,0.9,1.6
	c1.3-0.7,2.7-1.2,4.2-1.4c1.5-0.2,3,0.2,4.2,1.1c0.2-0.2,0.5-0.4,0.7-0.6C310.4,391.2,310.8,391.1,311.2,391.2z M342.6,427.6
	c0.3,0.5,0.7,1,1.1,1.4v-4.8c-1.1-0.7-2-1.5-2.8-2.5c-0.8-1-1.9-1.7-3.2-2.1c-0.4-0.1-0.7-0.5-0.6-0.9c0-0.1,0-0.1,0.1-0.2
	c0.2-0.5,0.4-0.9,0.6-1.4c0.2-0.4,0.7-0.6,1.2-0.5c1,0.2,1.6,0,1.9-0.6s0.6-1.2,0.9-1.8c1-1.8,1.4-3.9,1.1-6c-0.3-3.5-0.3-7,0-10.4
	V397c-0.5,1.6-1.8,2.9-3.4,3.3c-1.9,0.8-3.8,1.5-5.8,2.2c-1.9,0.7-3.9,1.3-5.9,1.8c-0.9,0.2-1.7,0.4-2.6,0.5
	c-0.9,0.2-1.7,0.9-1.9,1.8l0,0c1.9,2.4,3.9,4.7,5.9,6.8c2,2.2,4.1,4.4,6.2,6.6c1.3,1.1,2.6,2.3,3.8,3.5
	C340.5,424.8,341.6,426.2,342.6,427.6z M371.7,404.2c1.8,0.2,3.7,0,5.4-0.6c1.7-0.6,3.5-1.1,5.4-1.6c2-0.5,3.9-1.6,5.3-3.2
	c1.3-1.6,2.2-3.5,2.6-5.5c0.2-0.4,0.3-0.9,0.3-1.4c0-0.4,0.2-0.7,0.4-1.1c-0.8-1.5-1.9-2.8-3.3-3.8c-1.4-0.9-2.9-1.7-4.4-2.2
	c-2.9-0.9-5.8-1.5-8.8-1.6c-3-0.1-6.1,0.2-9,1.1c-0.7,0.2-1.3,0.4-1.9,0.7c-0.7,0.2-1.4,0.3-2.1,0.1v0.1c-0.2,2.8-0.4,5.7-0.5,8.5
	s-0.3,5.6-0.5,8.5v1.7c0,0.6,0.3,1.2,0.7,1.6c1.3-0.7,2.8-1.2,4.3-1.5c1.5-0.2,3,0.2,4.1,1.2C370.2,404.6,370.9,404.2,371.7,404.2
	L371.7,404.2z"/>
<path class="st2" d="M490.4,446c0.5,1.3,0,2-1.4,2.1c-0.6,0.2-1.3,0.1-1.8-0.3c-0.3,0.6-0.6,1.1-1,1.6c-0.3,0.5-0.9,0.7-1.4,0.7
	c-0.7-0.1-1.4-0.4-2-0.9c-0.6-0.5-1-1.2-1.1-2c-0.2-0.5-0.4-0.9-0.7-1.4c-0.3-0.4-0.5-0.9-0.7-1.3c-1-1.8-2-3.6-3-5.4
	c-0.9-1.8-2-3.5-3.3-5.1c-0.6-0.8-1.1-1.5-1.6-2.3s-1-1.7-1.5-2.5c-1.1-2.2-2.2-4.4-3.4-6.6c-1.2-2.2-2.3-4.4-3.3-6.6
	c-0.8-1.7-1.5-2.7-2.2-3c-1.2-0.3-2.5-0.3-3.7,0h-2c-3.8-0.2-7.6-0.1-11.3,0.2c-3.8,0.3-7.5,0.7-11.3,1.1c-2.5,0.2-4.9,0.3-7.2,0.5
	s-4.7,0.3-7.1,0.5c-0.6,0.8-1.6,2.5-3.1,5.1s-3.1,5.2-4.8,7.9c-1.8,2.8-3.5,5.4-5.1,7.7c-1.7,2.3-3,3.7-3.9,4.2c-1,0.6-2,1.2-3,1.9
	c-1,0.7-1.9,1.6-2.6,2.6c-0.4,0.3-0.9,0.5-1.4,0.3c-0.4-0.2-0.8-0.3-1.1-0.6c-0.4-0.2-0.8-0.5-1.1-0.8c-0.4-0.3-0.8-0.4-1.3-0.3
	c-0.2,0.1-0.3-0.1-0.2-0.5c0-0.4,0.1-0.7,0.2-1.1c0.3-0.9,0.6-1.7,1-2.5c0.4-0.8,0.8-1.6,1.3-2.3c0.4-0.6,0.7-1.2,1-1.8
	c0.3-0.6,0.6-1.2,0.9-1.8c0.1-0.3,0.6-1.4,1.5-3.4s1.8-4.1,2.8-6.4s1.8-4.4,2.5-6.4s1-3,0.8-3.2H402c-0.4,0.2-0.8,0.2-1.1,0.1
	c-0.5,0-1-0.1-1.5-0.4c-0.5-0.2-1-0.5-1.5-0.6c-0.6-0.5-0.7-0.9-0.4-1.3c0.3-0.4,0.5-0.9,0.6-1.4c-0.9-0.2-1.7-0.6-2.4-1.1
	c-0.2-0.2-0.2-0.9,0-2.1c-1,0.2-2.1,0.3-3.2,0.4s-2.3,0.2-3.6,0.4c0.4-0.6,1-1,1.6-1.2l1.5-0.3c2.2-0.2,4.4-0.6,6.5-1.2
	c2.2-0.6,4.5-0.5,6.6,0.4c1.7-0.5,3.3-1.1,4.8-1.9c1.6-0.8,2.9-2,3.9-3.5c1.2-1.9,2.5-3.7,3.6-5.4s2.4-3.5,3.6-5.4
	c0.5-0.5,0.9-1.1,1.3-1.7c0.4-0.6,1-1.1,1.7-1.4c1.8-2.3,3.4-4.7,4.8-7.2c1.4-2.5,3-5,4.6-7.4c0.6-1,1.2-1.9,1.7-2.7
	s1.2-1.8,1.9-2.7c1.4-1.8,2.5-3.8,3.1-6c-0.4-0.6-0.6-1.2-0.7-1.9c-0.1-0.7-0.2-1.3-0.4-2c-0.1-0.6,0-1.1,0.4-1.6
	c0.3-0.4,0.9-0.6,1.3-0.3c1.7,0.9,3.6,1.4,5.6,1.4c1.9-0.1,3.8,0.3,5.6,0.9c1.3,0.5,2.6,1.1,3.7,1.8c1.2,0.8,2.1,1.9,2.7,3.3
	c0.5,1.2,1,2.4,1.6,3.5c0.6,1.1,1,2.4,1.1,3.6l0.8,2.3c0.3,0.8,0.4,1.7,0.4,2.6c0.1,0.3,0.1,0.7,0.2,1.1c0,0.4,0.2,0.8,0.6,1.1
	c2.4,4,4,8.3,4.7,12.8c0.3,0.8,0.5,1.5,0.8,2.2s0.5,1.3,0.6,2c0.7,0.7,1.1,1.6,1.4,2.6c0.3,0.9,0.5,1.9,0.6,2.8v0.1
	c0.7,1,1.3,2.1,1.7,3.2c0.4,1.1,0.8,2.2,1.3,3.2c0.8,1.9,1.5,3.8,2.2,5.6c0.7,1.9,1.6,3.7,2.5,5.4c1.3,2.8,2.5,5.6,3.6,8.5
	c1.1,2.9,2.3,5.7,3.6,8.5c0.7,1.6,1.3,3.2,1.6,4.9c0.3,1.7,0.5,3.4,0.7,5.1h0.7C489.2,444.2,489.6,445.2,490.4,446z M445.7,398.3
	c1.6-0.4,3.2-0.6,4.8-0.8c1.7-0.2,3.3-1,4.4-2.3c-1-3.3-2.2-6.6-3.5-9.8c-1.3-3.2-2.6-6.4-3.9-9.7c-0.4,0.2-0.8,0.5-1.2,0.9
	c-2.6,3.3-5.1,6.7-7.6,10.2s-4.9,7-7.3,10.5c-0.5,1.4-0.4,2.3,0.1,2.6c0.8,0.3,1.6,0.4,2.4,0.2c1.9-0.2,3.8-0.4,5.8-0.7
	S443.8,398.7,445.7,398.3L445.7,398.3z"/>
<path class="st2" d="M392,260.4c-1.1-2.3-3.8-3.3-8-3.2c-0.8-0.1-1.6-0.4-2.3-0.8c-0.8-0.4-1.7-0.9-2.4-1.5c-4.1-1.4-8-2.6-11.7-3.5
	c-3.9-0.9-8-1.3-12-1.2c-3.3-0.2-6.6-0.8-9.7-1.7c-4.5-1.2-9.2-2-13.9-2.3c-5.2-0.4-10.4-0.7-15.6-1c-5.3-0.3-10.4-1.7-15-4.2
	c-1.5-0.5-3.1-0.7-4.6-0.3c-5.5,0-11.1-0.1-16.7-0.5c-5.7-0.4-11.4-0.5-17.2-0.3c-5.4,0.2-10.8,0.3-16.2,0.1c0-1.3,0-2.6,0-4
	c0.1-4.3-1-40.4-0.9-44.9c-0.1-2.5,0-5.1,0.1-7.6c0.2-2.7-0.1-5.4-0.7-8l0.1-0.3c0.6-2,1.1-4.1,1.4-6.2c0.2-2.2,0-4.4-0.7-6.4
	c0.2-1.5,0.3-3,0.4-4.6s0.2-3.2,0.2-5c2.4-9.9,1.6-78.9,0.2-89.1c-0.4-0.8-0.5-1.8-0.2-2.7c0.3-0.7,0.5-1.5,0.6-2.3
	c0.8-1.8,1.2-3.7,1.3-5.6c0.1-1.8,0.1-3.6,0.2-5.4c0.7-2.7,1-5.6,0.8-8.4c-0.2-2.8-0.3-5.6-0.2-8.4c0.1-3.2-0.8-6.3-2.5-8.9
	c-1.8-2.6-3.8-4.9-6.1-7c-3.1-2.9-6.6-5.1-10.5-6.7c-4-1.6-7.5-4.2-10.1-7.5c-0.6-1-1.9-1.3-2.9-0.6c0,0,0,0-0.1,0
	c-1.1,0.6-1.8,1.7-2.1,2.9c-0.2,1.5-0.5,3-0.9,4.4c-0.4,1.4-0.4,2.9-0.1,4.4l0.1,3.1l1.1,34.4c0.3,0,0.5-0.1,0.8-0.1
	c-0.1,5.9-0.2,11.6-0.3,17.2v0.6l0.1,9.5l-3,2.7c-1.9,1.8-3.9,3.7-5.9,5.7c-5.5,5-10.8,10.2-15.9,15.5c-5.2,5.4-3.6,4.4-9.3,9.1
	c-1.8,0.6-3.4,1.6-4.8,2.8c-1.3,1.2-2.7,2.4-4.2,3.6c-4.2,4-8.3,7.8-12.3,11.4c-4,3.6-16.8,11-20.5,11.8c-4.6-1.6-14.1-0.7-19.1,0.2
	c-4.8,0.9-9.7,1.3-14.6,1.3c-1.1,0.1-2.2,0.2-3.4,0.3c-1.6,0.3-3.2,1.1-4.4,2.2c2.9-0.1,5.6-0.2,7.9-0.2s4.7-0.1,7-0.3
	c-1.4,2.5-2,4.1-1.8,4.7s1.6,1.5,4.1,2.9c-0.7,1.1-1.5,2.1-2.4,2.9c-0.9,0.8-1.1,2.2-0.3,3.1c0,0,0,0,0,0c0.8,0.5,1.7,1.1,2.6,1.8
	c0.8,0.6,1.8,1,2.8,1.1c0.3,0.3,1.1,0.2,2.5-0.1l2.7,0.3c0.2,0.5-6.9,5.7-10,9.9s-17.1,19.4-21.1,24.3s-7.8,9.5-11.4,13.8
	s-5.7,6.8-6.1,7.4c-1.1,1.2-2.2,2.5-3.3,3.8c-1.1,1.3-2.3,2.6-3.6,3.8c-1.7,1.6-3.2,3.3-4.7,5c-1.5,1.7-2.9,3.5-4.3,5.4
	c-0.5,0.7-1,1.5-1.4,2.4c-0.5,1-0.5,1.3,0,1.2c0.9-0.2,1.9,0.2,2.4,0.9c0.5,0.7,1.1,1.4,1.7,2c0.6,0.6,1.2,1.1,1.9,1.5
	c0.7,0.4,1.7,0.2,3.3-0.5c2.3-2.1,4.9-3.8,7.6-5.2c2.6-1.3,5.2-2.5,7.8-3.5c2.4-0.9,6.3-3.7,11.8-8.6c5.5-4.9,11.3-10.2,17.3-16
	c6.1-5.8,11.7-11.4,17-16.8c5.3-5.3,20.8-21.4,22.7-23.2c5.1,0.1,9.7,2.4,14.6,2.5s10,2.1,15.1,3.5c7.7,2.1,27.3,7.6,35.9,9.3
	l0.5,53.7v2.5c0,0,0.6,9,1,13.5c0.5,5.5,0.9,10.9,1.2,16.2c0,0.1,0,0.1,0,0.2c0.2,2.1,0.5,4.2,0.9,6.2s0.8,4.2,1.3,6.2
	c0.9,3.7,1.6,7.4,2,11.2c0.1,0.7,0.2,1.4,0.2,2c0.4,4.5,0.9,9,1.4,13.6c0,1.1,0.1,2.3,0.3,3.4c0.2,1.1,0.3,2.2,0.3,3.4
	c-0.4,1.7-0.1,3.4,0.6,5c0.7,1.4,1.9,2.6,3.3,3.5c1.1,0.7,2.4,0.7,3.5-0.1c1.2-0.7,2.4-1.6,3.4-2.5c0.4,1.1,1.6,1.8,3.5,2.2
	c3,1,4.6,0,4.7-3.1c-0.8-2.2-0.9-4.7-0.2-6.9l-1.5-0.6c1.1-3.6,2-7.3,2.9-10.9c0.7-2.9,1-5.9,1-8.8c0-0.8,0-1.7,0-2.5
	c0-0.4,0-0.7,0-1.1l0,0c0-0.9-0.1-1.9-0.1-2.8h0.1v-16.3c10.6,0.3,21.3,0.7,32,1.1c11.7,1.3,23.4,1.9,35.1,2c11.7,0.1,23.4,0.1,35,0
	c2.4,0,4.8-0.1,7.1-0.3c2.4-0.2,4.7-0.7,7-1.6c2.4-0.5,4.7-0.9,7-1.3c2.3-0.4,4.6-0.7,7-1c0.6-0.2,1.2-0.2,1.8-0.2
	C384.3,268,393.1,262.7,392,260.4z M202.2,150.5c-4.3-1-16-4.5-20.2-4.4c-2.4,0.2-4-0.1-4.9-0.9s7.1-5.5,9.4-8.6
	c8-7.4,10.4-9.4,18.6-16.6c3.6-3.2,7.3-6.4,10.9-9.6l0.4,43.5C210.9,152.3,204.1,150.3,202.2,150.5z"/>
<path class="st2" d="M457.3,160.3l0.2,8.4l-3.2,7.3l-2.9,7.3l-3,7.4l-5,6.2l-4.3,6.6l-5.2,5.9l-4.9,6.1l-1.4,1.9
	c-0.4,0-0.8-0.1-1.2-0.2c-0.3,0-0.6-0.1-0.8-0.3c-0.4-0.4,0.1-1.1,0.4-1.7c0.3-0.6,0.2-1.5-0.6-1.3c0,0,0.1,0,0.1,0
	c0.7-0.4,0.9-1.3,0.5-2c0-0.1-0.1-0.1-0.1-0.2c-0.4-0.7-0.9-1.6-0.1-2.3c0.2-0.2,0.4-0.3,0.6-0.4c0,0,0,0,0.1,0
	c0.5-0.5,0.5-1.3,0-1.8c-0.4-0.5-1-0.9-1.2-1.5c-0.1-0.5,0.1-0.9,0.4-1.2c0,0,0,0,0.1,0c0,0,0.1-0.1,0.2-0.1
	c0.1-0.1,0.2-0.1,0.4-0.1c0,0,0.1,0,0.2,0c0.4,1.1,0.6,1.6,1.1,2.6c0.5-0.2,0.9-0.5,1.3-0.9c0.1-0.1,0.2-0.2,0.3-0.3
	c0.3-0.3,0.6-0.6,0.8-1c-1.3-1.6-0.8-4.2,1-6c0.2-0.2,0.3-0.3,0.5-0.4s0.4-0.3,0.6-0.4c0,0,0,0,0.1,0c1.4-0.7,2.9-1.3,4.4-1.7
	c1-0.4,2.1-0.9,2.8-1.6c0.1-0.1,0.2-0.2,0.3-0.4c0.2-0.2,0.3-0.5,0.4-0.7c0.9-2.2,1.9-4.2,1.7-6.5c-0.4-4.2-1.1-8.4-2.2-12.5
	c-0.3-1.1-0.7-2.3-1.9-2.8c0,0,0,0,0,0.1c0.5,3.7,0.7,7.3,0.7,11c0,0,0,0,0,0c-0.8-0.2-1.7-0.5-2-1.1c0-0.1-0.1-0.2-0.1-0.3
	c0,0,0-0.1,0-0.1c0-0.4,0.1-0.8,0.2-1.1c0,0,0,0,0-0.1c0-0.1,0-0.1,0-0.2c0,0,0,0,0-0.1c0-0.6,0-1.2-0.2-1.8
	c-1.3-5.3-2.1-8.1-3.6-13.6c-0.2-1.2-0.8-2.3-1.7-3.1c-0.7-0.3-1.5-0.7-2.1-1.2c-0.5-0.4-0.7-1-1.1-1.5c-1.3-1.2-3.9-0.2-5.1-1.6
	c-0.3-0.4-0.5-0.9-0.8-1.3c-1-1.4-3.4-1.3-4.7-2.5c-0.7-0.9-1.2-2-1.3-3.1c-0.7-2.8-2.2-5.7-5-6.7c-0.9-0.2-1.8-0.5-2.6-0.8
	c-0.7-0.4-1.4-1.2-1.2-2c0-0.1,0-0.1,0.1-0.2c0-0.1,0.1-0.2,0.1-0.3c0.1-0.2,0.1-0.3,0.1-0.5c0-0.1,0-0.2,0.1-0.4
	c0.1-0.9,0.1-1.8,0.3-2.7c0-0.1,0-0.2,0.1-0.3c0-0.2,0.1-0.3,0.2-0.5c0,0,0-0.1,0-0.1c1-2.6,5.2-2.7,6.2-5.2
	c0.1-0.6,0.3-1.1,0.5-1.7c0,0,0,0,0-0.1c0.4-0.7,1-1.1,1.4-1.7c0-0.1,0.1-0.2,0.1-0.3c0-0.1,0.1-0.1,0.1-0.2c0-0.1,0-0.2,0-0.3
	c0.2-1.1-0.4-2.3-1.1-3.3c-0.9-1.2-1.9-2.4-2.2-3.8c-0.3-1.4,0.3-3,0.5-4.5c0.3-3.3-2-6.5-4.4-8.9c-0.8-0.7-1.5-1.5-1.9-2.5
	c-0.3-0.7-0.3-1.4-0.2-2.2v0c0-0.4,0.1-0.7,0.1-1c0,0,0-0.1,0-0.1c0-0.2,0-0.5,0-0.7c0.1-3.3-1.9-6.7-1.3-9.9
	c0.1-0.4,0.2-0.8,0.3-1.2c0.1-0.2,0.2-0.4,0.3-0.6c0,0,0,0,0,0c0.7-1.4,1.7-2.7,2.5-4.1c0.5-0.8,0.8-1.7,1.1-2.6
	c0.1-0.3,0.2-0.6,0.3-0.9c0,0,0,0,0,0c0.1-0.2,0.1-0.5,0.2-0.7c0,0,0,0,0,0c0-0.2,0.1-0.5,0.1-0.7c0,0,0,0,0,0
	c0-0.3,0.1-0.5,0.1-0.8c0.2-1.3,0.2-2.6,0-3.9c-0.1-0.5-0.2-1.1-0.3-1.6c-0.1-0.5-0.2-1-0.4-1.5c-0.4-1.1-0.7-2.3-1-3.4
	c-0.3-2.1,0.3-4.1,0-6.2c-0.3-2.7-2.1-5.5-1.4-8.1c-0.7-2.4-2.2-4.5-4.4-5.8l-2.9-2.1l7.7,3.1l6.9,4.5l5.9,5.8l6.4,5l6.4,5.2l4,7.3
	l5.9,5.8l4,7.2l2.6,7.8l3.2,7.5l3.1,7.5l1.5,8l1.1,8l0.3,8.1l0.3,8.1l0.7,8.2L457.3,160.3z"/>
<path class="st2" d="M422.4,160.5c-0.5-0.2-1.1-0.3-1.7-0.2c-0.1,0-0.2,0-0.3,0.1c-0.3,0.1-0.6,0.2-0.8,0.4c-0.8,0.6-1.4,1.2-2,2
	c-0.8,1.1-1.9,1.9-3.2,2.3c-0.2,0.1-0.3,0.1-0.5,0.2c0,0,0,0,0,0c-0.1,0-0.3,0.1-0.4,0.1c0,0-0.1,0-0.1,0c-1.7,0.1-3.4-1.6-2.7-3.1
	c0.5-0.9,1.6-1.3,2.6-1.8c1-0.5,2-1.3,1.8-2.3c-1.7-0.2-3.3-1.1-4.4-2.4c-0.9-1.5-0.7-3.5,0.6-4.7l0.1-0.1c0,0,0.1-0.1,0.1-0.1
	c1.1-1.3,0.9-3.3-0.4-4.3c-0.7-0.4-1.4-0.8-2.1-1.1c-1.1-0.6-1.9-1.7-2.2-2.8c-0.6-0.2-1.2-0.2-1.8-0.1c-0.1,0-0.3,0-0.4,0.1
	c-1,0.3-1.9,0.9-2.5,1.8c-0.2,0.4-0.5,0.8-0.8,1.2c-0.2,0.2-0.5,0.3-0.7,0.4c-0.1,0-0.1,0-0.2,0c-0.9,0.1-2-0.3-2.9-0.8
	c-2.8-1.5-4.1-2.2-6.9-3.7c-1.7-0.9-3.5-1.9-4.3-3.6c-0.5-1.1-0.7-2.4-1.5-3.2c-0.8-0.9-2-1.1-3.1-1.6c-2.9-1.4-4.6-4.4-4.3-7.5
	c0.1-1,0.4-2-0.3-2.9c-0.7-0.9-2.1-0.7-3.1-1.1c-1.9-0.7-2.5-3.2-4.2-4.2c-1-0.5-2.2-0.5-3.1-1.3s-0.8-2.3-1.6-3.3
	c-0.8-1.1-2.4-1.3-3.2-2.4s-0.4-2.8,0.1-4.1c0.4-1.3,0.9-2.4,1.6-3.5c0,0,0,0,0,0c1.6-2.2,4.5-3.5,5.8-5.8c0.1-0.1,0.1-0.2,0.1-0.3
	c0.2-0.4,0.4-0.9,0.5-1.4c0-1.1-0.1-2.3-0.3-3.4c-0.1-0.8,0-1.5,0.4-2.2c0-0.1,0.1-0.2,0.2-0.2c0-0.1,0.1-0.1,0.2-0.2
	c0.1-0.1,0.2-0.2,0.3-0.3c0.4-0.2,0.8-0.4,1.3-0.5c3-0.8,4.5-1.2,7.5-2c0.5-0.1,0.9-0.3,1.2-0.7l0,0c0,0,0,0,0.1-0.1
	c0.2-0.3,0.2-0.7,0.2-1.1c0-1.4,0.4-2.8,1.1-4.1c0.1-0.1,0.1-0.2,0.2-0.3c0.1-0.1,0.2-0.3,0.3-0.4c0.1-0.1,0.2-0.2,0.3-0.3
	c0.7-0.8,1.7-1.4,2.6-1.3h0c0,0,0.1,0,0.2,0c-1.1-1.1-1.7-2.6-1.8-4.1c0,0,0,0,0,0c2.9,0.5,5.8,1.3,8.5,2.3c0,0,0,0,0.1,0
	c0.1-1.1,0.1-2.2,0-3.3c-0.1-1.1,0.2-2.2,1-2.9c0.2-0.1,0.4-0.2,0.6-0.3c0.2,0,0.4-0.1,0.6-0.1c0.8,0,1.6,0.3,2.4,0.7c0,0,0,0,0.1,0
	c-0.2-0.8,0.1-1.8,0.8-2.3c0.3-0.2,0.7-0.4,1-0.5c0.4-0.1,0.8-0.2,1.2-0.2c0,0,0,0,0.1,0c-0.7-0.8-0.9-1.9-0.5-2.9
	c0.4-0.8,1-1.4,1.6-2c0.7-0.7,0.9-1.6,0.5-2.5c-0.3-0.5-0.8-0.9-1.1-1.4c-0.4-1,0.4-1.9,0.9-2.8c1-1.9,0.4-4.6-0.9-6.4
	c-1.3-1.7-3-3-4.8-4c0.1-0.3,0.2-0.5,0.4-0.8c0,0,0,0,0,0l-6.7-3l-7.3-3.6l-8.4-1.7l-8.7,0.1l-8.5-0.5l-8.5,0.1l-8.6,0.1l-8.5,1.1
	l-8.5,1.7l-7.8,3.8l-8,3.2l-6.9,5.2l-7.6,3.9l-7.3,4.7l-5.1,7l-6.1,5.9l-6.1,6.1l-3.8,7.8l-4.3,7.4l-2.9,8.1l-4.3,7.6l-1,3.8
	l0.5,0.8h0.2c2.8-0.6,6.5-6.5,9.1-7.6c2.6-1.1,6-1.5,8.3,0.2c0,0,0,0,0,0c-0.1,0.2-0.2,0.5-0.3,0.7c0,0.1,0,0.2,0,0.3
	c-0.4,2.5,2,5.2,2,8c0,0.4-0.1,0.7-0.1,1.1c0,0.1,0,0.2-0.1,0.3c0,0.1,0,0.2-0.1,0.4c0,0.2,0,0.4-0.1,0.5c0,0.3,0,0.5,0,0.8
	c0.2,1.5,1.2,2.8,2,4.2c1.5,2.5,2.1,5.3,1.9,8.1c0,0.3,0,0.6-0.1,0.9c0,0.3-0.1,0.5-0.1,0.8c0,0.2-0.1,0.3-0.1,0.5
	c0,0.2-0.1,0.3-0.1,0.5c-0.2,0.6-0.4,1.2-0.5,1.8c-0.1,0.6-0.2,1.2-0.3,1.8c0,0,0,0.1,0,0.1c0,1.4,0.8,2.6,2.1,3.1
	c2.9,0.8,6.5,1.7,7.5,4.6c0,0.1,0.1,0.3,0.1,0.4c0,0.1,0,0.3,0.1,0.4c0,0.1,0,0.2,0,0.3c0,0,0,0.1,0,0.2v0c0,0.1,0,0.2,0,0.2
	c-0.1,0.5-0.3,1-0.8,1.2c-0.7,0.2-1.5,0.1-2.1-0.3l-6.3-2.7c-1.5-0.6-3.1-1.3-4.5-0.9c-0.3,0.1-0.5,0.2-0.7,0.3
	c-0.6,0.4-0.9,0.9-1,1.6c-0.1,0.6,0,1.2,0.3,1.7c0.7,1,2.3,1.4,2.4,2.6c0,0.1,0,0.1,0,0.2c-0.1,0.6-0.6,1.2-0.8,1.7c0,0,0,0.1,0,0.1
	c0,0.2,0,0.3,0.1,0.5c0.4,0.6,1.1,0.9,1.7,0.6c0.5-0.3,1.1-0.6,1.7-0.8c1.1-0.2,2.3,0.7,3.3,1.4c1,0.7,2.4,1.3,3.2,0.4
	c0.9-1,0-2.8,0.9-3.8c1.1-1.3,3.6,0.5,5-0.5c0.4-0.3,0.6-0.7,0.7-1.1c0,0,0-0.1,0-0.2c0.1-1.1-0.3-2.4-0.1-3.6c0-0.1,0-0.2,0-0.3
	c0-0.2,0.1-0.4,0.2-0.6c1.3-0.2,2.6,0.3,3.5,1.3c0.6,0.7,0.9,1.6,0.9,2.5v0.1c0,0,0,0.1,0,0.1c0,0.2,0,0.3-0.1,0.4
	c0,0.1-0.1,0.3-0.1,0.4c-0.2,0.6-0.6,1.1-0.8,1.7c0,0.1,0,0.2,0,0.2c0,0.2-0.1,0.4,0,0.6c0.2,0.7,0.6,1.4,1.2,1.9l5.5,5.5
	c0.3-0.3,0.4-0.6,0.4-1v0c0.1-0.8-0.3-1.8-0.8-2.6c-0.7-1.1-1.8-2.1-2.1-3.4c0,0,0,0,0,0c-0.1-0.4-0.1-0.9-0.1-1.3c0,0,0-0.1,0-0.2
	c0.2-1.2,1.1-2.2,2.3-2.5c0.2-0.1,0.5,0,0.7,0.1c0.2,0.2,0.3,0.4,0.3,0.7c0.5,3.2,1.4,6.5,3.8,8.9c2.3,2.3,6.2,3.1,8.5,1.1
	c0.5-0.5,1-1.1,1.5-1.6c2.8-2.8,7.3-3.3,11.2-2.1c0.4,0.1,0.7,0.3,1,0.6c0.2,0.2,0.3,0.4,0.3,0.7c0,0,0,0.1,0,0.1
	c0,0.5-0.1,1-0.3,1.5c-0.5,1.3-0.7,1.9-1.2,3.1c-0.2,0.7-0.6,1.2-1.2,1.6c-0.8,0.4-1.8-0.3-2.7-0.5c-1.4-0.3-2.9,0.3-3.6,1.5
	c-0.2,0.3-0.3,0.6-0.4,1c0,0,0,0,0,0.1c0,0.1,0,0.2,0,0.3c0,0,0,0.1,0,0.1c-0.2,0.9,0,1.9,0.6,2.8c0.2,0.4,0.5,0.9,0.5,1.3
	c0,0,0,0,0,0.1c0,0.1,0,0.2-0.1,0.3c-0.3,0.3-0.6,0.4-1,0.3c-1.7,0-3.5-0.4-5.2-0.3c-1.8,0-3.4,0.9-4.3,2.4
	c-0.2,0.5-0.4,1.1-0.9,1.2c-0.3,0-0.5,0-0.7-0.1c0,0,0,0-0.1,0c-1.7-0.2-3.3,0.9-3.6,2.5c0,0,0,0.1,0,0.1c0,0,0,0,0,0.1
	c0,0,0,0.1,0,0.1c-0.8,0.3-1.8-0.4-2.4-1.2c-0.5-0.9-1.1-1.7-1.9-2.3c-1.5-1-3.4,0-5.1-0.5c-0.7-0.4-1.4-0.6-2.1-0.7
	c-0.7,0-1.3,0.6-1.9,1c0,0,0,0-0.1,0c-0.6,0.4-1.5,0.3-1.9-0.4c0,0,0,0,0,0l-0.2,3.2l0,0.1c-1.4-1-3.2-1.3-4.9-0.8c0,0-0.1,0-0.1,0
	l4.9,3.7c0.2,0.1,0.3,0.3,0.4,0.4c0.1,0.1,0.1,0.2,0.1,0.4c0,0,0,0.1,0,0.1c0,0.4-0.4,0.8-0.7,1.1c-0.4,0.4-0.7,1-0.9,1.7
	c0,0.1,0,0.1,0,0.2c-0.1,0.7,0,1.5,0.6,2c0.8,0.6,1.8,0.7,2.7,0.3l4.2-1c0,0,0-0.1,0-0.1c0,0,0,0,0,0c0.1-0.7-0.6-1.3-1-2
	c-0.4-0.5-0.5-1.2-0.4-1.8c0-0.1,0-0.1,0-0.2c0.1-0.5,0.4-1,0.9-1.4c0.5-0.3,1.2-0.4,1.8-0.2c0,0,0-0.1-0.1-0.1
	c-0.2-0.4-0.2-0.9-0.2-1.3c0-0.2,0-0.4,0-0.5c0-0.2,0.1-0.4,0.2-0.7l2.6,0.7c0.3,0,0.6,0.2,0.8,0.4c0.2,0.3,0.1,0.8,0.1,1.2
	c0,1,0.6,1.9,1.5,2.4c0.8,0.4,1.8,0.6,2.7,0.6c0.4,0,0.8,0.1,1.1,0.4c0.2,0.2,0.3,0.5,0.3,0.8c0,0.2,0,0.4,0,0.6c0,0.1,0,0.2,0,0.2
	c0,0.1,0,0.2-0.1,0.3c-0.2,0.7-0.5,1.2-1.1,1.7c-0.8,0.6-1.7,1.1-2.6,1.4c-2.2,1.1-3.9,2.9-5,5.1c-1.5,0.2-3.1,0.5-4.6,0.7
	c-2.4,0.4-4.9,0.1-7.1-1c-1.9-0.7-2.8-1.1-4.6-1.8c-1.4-0.5-2.8-1.2-3.9-2.2c-1.3-1-2-2.6-2-4.2c0-0.1,0-0.1,0-0.2c0,0,0-0.1,0-0.1
	c0-0.2,0.2-0.4,0.4-0.5c0.2,0,0.4,0,0.6,0.1c1.3,0.4,1.9,0.3,3.2,0.7c0,0,0-0.1-0.1-0.2c-0.6-1.2-1.4-2.3-2.5-3
	c-2.1-1.1-3.9,0.7-5.1,2.4c0-1.1-0.6-2.2-1.7-2.6c-0.5-0.1-1-0.1-1.5,0c-2,0.4-4.1,0.5-6.1,0.3l3,7l0.7,3.6l4.5,6.6l3.7,7.2l5.5,5.9
	l4.8,6.5l6.1,5.3l5.8,5.6l6.4,4.9l7,4.1l7.9,2.2l7.5,2.7l7.4,3.5l8.4,0.6l8,2.5l8.4-0.6l8.4,1.2l8.3-1.4l8.3-0.9l7.9-2.8l8-2.3
	l7.8-3.1l7.3-4.1l7.1-4.4l0.1-0.1c0,0,0,0-0.1,0c-5-1.5-10.3-3.9-15.5-3.5c-1.3,0.1-2.7,0.4-4,0.4c-5.1-0.1-8-5.5-13.3-4.8l0,0
	c-0.8,0.7,0.1,1.7,1,1.9c0.9,0.2,2,0.6,1.8,1.6c-0.2,0.7-1.3,1.5-0.9,2c0.2,0.2,0.4,0.3,0.6,0.3c1,0.2,1.5,0.3,2.5,0.5
	c-1.1,0.8-2.3,1.3-3.4,1.6c-0.2,0-0.3,0.1-0.5,0.1c-0.2,0-0.4,0.1-0.6,0.1c-1.3,0.1-2.6-0.1-3.6-0.8c-1.7-1-2.6-3.1-4.8-3.5
	c-0.3,0-0.5-0.1-0.8-0.2c-0.8-0.5,0.1-1.9,1-2.5c1-0.7,2.1-1.2,3.3-1.5c0.4-0.1,0.7-0.2,1.1-0.2c0,0,0.1,0,0.1,0l-4.5-1.6
	c-0.7-0.3-1.4-0.5-2.1-0.4c0,0-0.1,0-0.1,0c-0.1,0-0.1,0-0.2,0c-0.7,0.1-1.3,0.6-1.6,1.2c-0.3,0.6-0.1,1.5-0.7,1.9
	c-0.1,0-0.2,0.1-0.3,0.1c0,0-0.1,0-0.1,0c-0.2,0-0.3,0-0.5,0l-3.6-0.1c-0.2,0-0.4,0-0.6-0.1c-0.3-0.3-0.4-0.6-0.4-1
	c0-1,0.1-2.1,0.3-3.1c-0.7-0.5-2-0.9-2.7-1.4c0,0,0,0.1,0,0.1c0.2,0.7,0.2,1.4,0.1,2.1c-0.2,0.8-0.8,1.4-1.6,1.6c0,0,0,0,0,0
	c0,0,0,0,0,0c-0.3,0-0.6,0-0.8,0.1c0,0-0.1,0-0.1,0c-0.2,0-0.3,0.1-0.4,0.2c-0.3,0.4-0.1,0.9-0.3,1.4c-0.1,0.3-0.4,0.5-0.7,0.6
	c0,0,0,0,0,0c-0.5,0.1-1,0-1.4-0.2c-4.8-2.1-7.2-3.2-12-5.4c-0.2-0.1-0.4-0.2-0.5-0.4c-0.4-0.5,0.1-1.3,0.3-2c0.2-1-0.3-2-0.4-3
	c-0.1-0.8,0.4-1.9,1.1-2.1h0c0,0,0,0,0,0h0c0,0,0,0,0,0c0.2,0,0.3,0,0.5,0c0.7,0.3,0.8,1.3,1.4,1.7c0.2,0.2,0.5,0.2,0.8,0.2
	c0,0,0.1,0,0.1,0c0.4-0.1,0.9-0.4,1.2-0.8c0.4-0.7,0.7-1.4,0.8-2.2c0,0,0-0.1,0-0.1c0.9,0.9,1.9,1.8,2.9,2.6c0.7,0.6,1.4,1,2.2,1.3
	c0.3,0,0.6,0.2,0.8,0.4c0.5,0.6-0.3,1.7-1.1,2.2c-0.8,0.5-1.7,1.2-1.6,2.1c1.6,0.4,3.3,0.5,4.9,0.4c0.2,0,0.5-0.1,0.7-0.1h0
	c0.1,0,0.1,0,0.2,0c0.5-0.1,1-0.2,1.4-0.4c1.3-0.4,2.6-1,3.8-1.8c0.2-0.1,0.4-0.2,0.5-0.4c0.3-0.6-0.5-1-0.4-1.7
	c0.1-0.4,0.4-0.6,0.7-0.7c0,0,0,0,0,0c0.1,0,0.2,0,0.3,0c0.4,0,0.8,0.2,1.2,0.5l3,1.9c0.2,0.2,0.5,0.3,0.9,0.3c0,0,0,0,0.1,0
	c0.5-0.1,0.9-0.6,1.3-0.9c0.2-0.1,0.4-0.2,0.7-0.3c0.1,0,0.1,0,0.2,0c0.3,0,0.6,0,0.8,0c0.4,0,0.8,0.1,1.2,0.1c0.5,0,1,0,1.4-0.1
	c0.2,0,0.3-0.1,0.5-0.1c0.2,0,0.4-0.1,0.5-0.2c0.2-0.1,0.3-0.1,0.5-0.2c1.3-0.5,2.4-1.3,3.2-2.4c0.4-0.4,0.6-0.9,0.6-1.4
	c0-0.4-0.2-0.8-0.5-1.1c-0.5-0.7-1.2-1.3-1.9-1.8c-0.7-0.4-1.3-0.9-1.8-1.5c-0.9-1.4-0.7-3.3,0.5-4.5c-0.4-0.7-1.3-0.7-2.1-0.4
	c0,0,0,0-0.1,0c-0.2,0.1-0.4,0.2-0.6,0.3c-0.9,0.7-1.5,1.7-2.4,2.3c-1.7,1.1-4.1,1-5.5,2.2c-1.4,1.2-1.4,3.2-2.3,4.8
	c-0.1,0.3-0.3,0.5-0.6,0.5c0,0-0.1,0-0.1,0c0,0,0,0,0,0c-0.3,0-0.5-0.3-0.8-0.5c-0.4-0.3-0.8-0.3-1.3-0.2c-0.1,0-0.2,0-0.3,0
	c-0.7,0.2-1.4,0.5-2.1,0.5c0,0,0,0-0.1,0c-0.2,0-0.4,0-0.6,0c-1.6-0.3-1.8-2.3-2.6-3.7c-0.8-1.5-2.4-2.5-4.1-2.6
	c1.2-1.4,1.4-3.4,0.6-5c-0.5-0.6-0.8-1.2-0.9-1.9c0-1.3,1.2-2.5,2.3-3.3c0,0,0,0,0.1,0c0,0,2.1,0.4,2.4,0.4c2.6,0.5,5.2,0.7,7.9,0.6
	c0.2,0,0.5-0.1,0.8-0.2c0.1,0,0.2-0.1,0.3-0.1c0.5-0.3,1-0.6,0.8-1.1c-0.3,0-0.5,0-0.7-0.1c-0.7-0.3-1-1.1-0.7-1.8
	c0.2-0.4,0.6-0.7,0.6-1.1c0.1-0.6-0.5-0.9-0.8-1.4c-0.3-0.4-0.4-1.2,0-1.4c0,0,0,0,0.1,0c0.4,0,0.4,0.1,0.8,0.1
	c1.2-0.1,2.4-0.2,3.6-0.4c0.4-0.1,0.8-0.1,1.2-0.2c0.5-0.1,1.1-0.2,1.6-0.3c0.7-0.1,1.3-0.3,2-0.5c0.7-0.2,1.3-0.3,2-0.5
	c3.6-0.9,7.1-2.1,10.3-3.4c0.4-0.1,0.8-0.3,1.1-0.6c0.3-0.3,0.5-0.7,0.6-1.1c0.5-1.1,1.6-1.8,2.7-2.2c0.2-0.1,0.3-0.1,0.5-0.2
	c0,0,0.1,0,0.1,0c0.2-0.1,0.4-0.1,0.6-0.2c0.3-0.1,0.6-0.1,0.9-0.2c0.3-0.1,0.6-0.1,0.8-0.2c0.3-0.1,0.6-0.1,0.8-0.2
	c0.2,0,0.5-0.1,0.7-0.2c0.3-0.1,0.7-0.2,1-0.3c1.4-0.5,2.7-1.2,3.2-2.5c0.3-1.1,0.4-2.2,0.3-3.3c0-1.2,0.7-2.2,1.8-2.6c0,0,0,0,0,0
	c0,0,0,0,0,0c1.3-0.3,2.4,1,2.7,2.2c0.3,1.3,0.1,2.6,0.6,3.8c0.4,0.8,1,1.4,1.8,1.8c0.7,0.3,1.5,0.4,2.2,0.3c0.2,0,0.3-0.1,0.4-0.1
	c0.2-0.1,0.3-0.1,0.5-0.2c0.9-0.5,1.4-1.5,1.1-2.5c0,0,0,0,0-0.1c2.2,0.8,4.6,1.5,6.9,1.2c0.1,0,0.3,0,0.4-0.1
	c0.2-0.1,0.4-0.1,0.7-0.2c0.3-0.1,0.6-0.2,0.8-0.3c1.6-0.9,2.8-2.3,3.4-4c0.5-1.7,0.8-3.4,0.8-5.1
	C423.7,162.7,423.6,161.1,422.4,160.5z M366.7,229.6c-0.3,0.6-0.9,0.9-1.5,0.8l0.1-0.1c-0.5-0.5-1.1-0.8-1.8-0.7
	c0.4-0.6,1-0.9,1.6-0.9c0.6,0,1.1,0.2,1.7,0.4C366.8,229.3,366.7,229.5,366.7,229.6z M369.2,228.1c0.1-0.5,0.4-0.9,0.8-1.2
	c0.4-0.3,1-0.3,1.4,0c0.4,0.2,0.7,0.6,1.1,0.8c0.7,0.3,1.5,0.5,2.2,0.3c0.5-0.1,1.3-0.2,1.3,0.3c0,0.3-0.3,0.7-0.6,0.9
	c-1.4,1.2-3.3,1.4-5,0.7c-0.2-0.4-0.5-0.6-0.8-0.8c-0.2,0-0.4-0.1-0.5-0.3C369,228.6,369,228.3,369.2,228.1z M281.7,68.8
	c1.1-1.8,1.7-2.8,2.9-4.6c0.7-1.3,1.6-2.4,2.6-3.5c0.7-0.7,1.5-1.3,2.3-1.8c1-0.6,2.1-1,3.2-1.1c1-0.1,2,0.5,2.4,1.4
	c0.2,0.9-0.1,1.9-0.8,2.5c-1.4,1.7-3.4,2.9-4.8,4.6c-1.1,1.3-1.7,2.5-3.3,3.4c-0.9,0.5-3.1,2.6-3.8,2.8
	C279.8,73.1,281,69.8,281.7,68.8z M339,221.8c-0.4,1.3-1.8,2.1-3.1,1.8l1.7,0.8c-2.1,0.8-4.1-0.1-6.1-0.1c-1,0.1-2,0.4-2.9,0.7
	c-1.2,0-2.4-0.1-3.6-0.5c-5.8-1.2-11.5-2.5-17.1-3.9c-2.9-0.6-5.8-1.5-8.6-2.7c-0.9-0.3-1.6-0.9-2.1-1.6c-0.6-0.8-0.5-1.9,0.1-2.6
	c0.4-0.3,0.9-0.3,1.4-0.5c1.3-0.6,1.3-2.6,1.1-4.2c2.8,0.3,4.1,0.5,6.9,0.8c0.5-0.4,0.3-1.3,0.1-2c-0.4-0.6-0.6-1.3-0.6-2
	c0.2-0.8,0.9-1.3,1.7-1.3c0.8,0.1,1.5,0.3,2.2,0.5c2.6,0.6,5.2-0.6,7.9-1.1c2.2-0.3,4.3-0.4,6.5-0.4c1.2,0.1,2.5-0.3,3.3-1.2
	c0.9-1.1,0.7-2.9,1.8-3.8c0.8-0.6,2-0.4,3-0.1c1.3,0.4,2.8,0.9,3.5,2.2c0.3,0.7,0.4,1.5,0.4,2.3c0,2.2,0,4.6-1.6,6.2
	c-0.6,0.6-1.4,1-2.1,1.5c-0.7,0.5-1.1,1.4-1.1,2.3c0.2,0.4,0.3,0.8,0.3,1.2c0,0.6-0.5,1.1-0.7,1.7c-0.8,1.8,0.8,3.7,2.6,4.3
	c1.7,0.5,3.7,0.4,5.2,1.4C339.1,221.6,339.1,221.7,339,221.8z M349.8,130.8c-0.9,3.9-1.4,5.8-2.3,9.7c-0.1,0.8-0.4,1.6-0.9,2.2
	c-0.5,0.5-1.2,0.9-1.9,1.2c-2,0.6-3.8,1.5-5.5,2.6c-1.5,1.3-2.8,2.7-4,4.3c-1.2,1.5-2.9,2.6-4.9,2.9c-0.8,0-1.7,0-2.5-0.2
	c-4.4-0.7-8.8-0.8-13.3-0.4c-0.7,0.1-1.3,0.1-2,0c-1.5-0.4-2.6-1.6-2.7-3.2c-0.1-1.3,0.6-2.5,0.4-3.8c-0.6-3.1-5.5-3.2-7-6
	c-0.2-0.5-0.5-1-0.9-1.4c-0.7-0.3-1.5-0.1-1.9,0.5c-0.3,0.6-0.5,1.4-0.5,2.1c-3.3-1.6-6.7-2.9-10.2-3.9c-1.2-0.2-2.4-0.6-3.5-1.3
	c-1.8-1.3-2.2-3.8-2.3-5.9l1.7,0.5c0-0.3,0-0.7-0.2-0.9c-2.3-5.3-4.1-10.7-5.3-16.3c-0.4-2.1-1.9-4.8-0.4-6.3
	c0.5-0.6,0.3-1.4-0.3-1.9c0,0,0,0-0.1,0c-0.7-0.4-1.4-0.7-2.2-0.7l-6.2-0.8c-0.5,0-0.9-0.2-1.3-0.5c-0.6-0.6-0.2-1.5,0.3-2.2
	c5.7-6.7,14.2-10.1,18.9-17.7c0.7-1.3,1.2-2.7,1.7-4.1c0.9-2.3,2.1-4.5,3.4-6.6c0.5-0.9,1.2-1.7,2-2.5c2-1.7,4.9-2.3,6.4-4.3
	c1.7-2.2,1.3-5.7,4-7c1.6-0.8,3.7-0.3,5-1.5c1.1-1,1-2.6,1.7-3.9c0.9-1.6,2.9-2.4,4.6-2.8c3.6-1,7.4-1.1,11.1-0.3
	c0.6,0.1,1.1,0.3,1.6,0.7c0.9,1,0.4,2.7,0.2,4.1c-0.4,3.2,1.3,6.1,1,9.3c-0.3,3.4-3,6.7-2.1,9.9c-1.8,1.9-3.7,3.9-4.4,6.3
	c-1.2,4.2,1.2,8.6-0.3,12.7c-0.4,1.1-1,2-1.5,3.1c-0.7,1.7-0.7,3.5-0.2,5.3c0.3,1.2,1.2,2.1,2.3,2.5c0.5,0,1,0.1,1.4,0.2
	c1,0.4,1.3,1.7,1.7,2.7c1,2.1,3.4,3.1,5.7,3.9c5,1.8,7.6,2.7,12.6,4.5c0.4,0.1,0.7,0.3,0.9,0.6c0.4,0.5,0.1,1.3-0.1,1.9
	c-0.5,1.6-0.4,3.2,0.2,4.8c0.6,1.5,1.7,2.7,2,4.3C350.3,128.3,350.2,129.6,349.8,130.8z"/>
</svg>
