<?xml version="1.0" encoding="utf-8"?>
<!-- Generator: Adobe Illustrator 23.0.2, SVG Export Plug-In . SVG Version: 6.00 Build 0)  -->
<svg version="1.1" id="Capa_1" xmlns="http://www.w3.org/2000/svg" xmlns:xlink="http://www.w3.org/1999/xlink" x="0px" y="0px"
	 viewBox="0 0 482.9 505.1" style="enable-background:new 0 0 482.9 505.1;" xml:space="preserve">
<style type="text/css">
	.st0{fill:#5D7350;}
	.st1{fill:#4F3048;}
	.st2{fill:#454D4D;}
</style>
<title>LogoClaro</title>
<path class="st0" d="M409.7,467.7c-13.4,6.3-27.3,11.4-41.6,15.3l-8,2c-2.7,0.6-5.4,1-8.2,1.6s-5.4,1.1-8.2,1.3l-8.3,0.9
	c-1.4,0.1-2.8,0.3-4.2,0.4l-4.2,0.1l-8.4,0.2c-2.8-0.1-5.6-0.3-8.4-0.5c-2.8-0.1-5.6-0.4-8.4-0.8c-5.5-1-11.2-1.6-16.6-3.3l-8.2-2.2
	c-2.7-0.9-5.4-1.8-8-2.9c-6.6-2.6-12.9-5.7-18.9-9.4c-3.6-2.1-7.1-4.3-10.5-6.5c-0.7-0.5-1.4-0.9-2.1-1.3
	c-7.9-5.1-16.2-9.5-24.9-13.1c-9.4-3.7-19.2-6.5-29.2-8.5c-20-3.7-40.7-3.4-61.3-0.6l-3.9,0.5l-3.9,0.7l-7.7,1.4
	c-5.1,0.9-10.2,2.3-15.3,3.4s-10.1,2.8-15.2,4.2s-10.1,3.2-15.1,4.7c-5.5,1.9-11,3.8-16.6,5.9c-2.7-1.9-5.3-3.9-7.9-6
	c6.8-3.5,13.7-6.8,20.7-9.8c5-2,10-4.3,15.1-6.2s10.3-3.7,15.5-5.3s10.5-3.2,15.8-4.5l8-1.9l4-0.9l4.1-0.7l8.2-1.4
	c2.7-0.4,5.5-0.6,8.3-1c5.5-0.7,11.1-0.9,16.6-1.1c11.2-0.2,22.4,0.7,33.4,2.6c11.1,1.9,22,5.1,32.4,9.4c10.5,4.2,20.4,10.1,29.4,16
	l4.3,2.8c4.1,2.6,8.1,5.1,12.1,7.3c3.3,1.9,6.8,3.5,10.3,5c2.3,1,4.6,1.9,7,2.7l7.2,2.2c4.8,1.7,9.8,2.3,14.8,3.3
	c20,3.3,40.9,1.8,61.2-2.6c5.1-0.9,10.1-2.5,15.2-3.8s10-3.2,15-4.8c0.2-0.1,0.4-0.2,0.7-0.2C401.2,464.2,405.8,466.1,409.7,467.7z"
	/>
<path class="st0" d="M36.8,455.1c2.6,2,5.2,4.1,7.9,6c-2,0.7-4.1,1.5-6.1,2.3c-12.3,4.8-24.5,9.9-36.7,15.2
	c-0.8,0.3-1.6-0.1-1.9-0.9c-0.2-0.6,0-1.3,0.5-1.7c9.9-6.4,20.6-12.5,31.7-18.6C33.8,456.6,35.3,455.9,36.8,455.1z"/>
<path class="st0" d="M482.3,422.4c-17,13.3-35,25.2-53.8,35.7c-4.5,2.5-9,4.9-13.6,7.1c-1.7,0.8-3.4,1.7-5.1,2.5
	c-4-1.6-8.6-3.5-13.7-5.5c2.5-1,4.9-1.9,7.4-2.8c2.2-0.8,4.4-1.7,6.6-2.6c4.8-2.1,9.8-4,14.5-6.3c19.2-9.1,37.9-19.3,56-30.5
	c0.7-0.4,1.6-0.1,2,0.6C482.9,421.2,482.7,421.9,482.3,422.4L482.3,422.4z"/>
<path class="st1" d="M239.7,463.8c3.4,2.2,6.9,4.4,10.5,6.5c-3.6,2.8-6.6,5.3-9.6,7.2c-7.9,5.1-14.5,9.3-19.8,11.8
	c-7.5,3.5-15.4,6.2-23.5,8.1c-1.4,0.4-5.5,1.4-10.9,2.4c-10.3,1.8-20.7,2.6-31.1,2.6c-4,0-7.7-0.1-11.1-0.3
	c-8.9-0.3-17.8-1.2-26.6-2.7c-8.6-1.5-17.2-3.6-25.5-6.3c-8-2.4-15.9-5.4-23.4-9.2c-6.1-3.2-12-6.7-17.6-10.7
	c-4.3-3.1-8.4-6.3-12.4-9.8c-2.2-1.9-4.3-3.9-6.4-5.9c-9.8-9.6-19-19.8-27.4-30.6c0-0.1,0.4-0.4,0.4-0.5c0.1-0.1,0.2-0.1,0.3,0
	c9.8,10.2,20.2,19.8,31.2,28.7c2.6,2,5.2,4.1,7.9,6c3.5,2.5,7.1,4.9,10.9,7c6.9,3.9,13.9,6.9,13.9,6.9c7.6,3.2,15.3,5.9,23.3,8.1
	c8.7,2.4,17.4,4.3,26.3,5.7c14.2,2.3,24.9,4,39.4,3.5c11.5-0.4,22.9-2.2,34-5.3c9.5-2.9,18.7-6.8,27.4-11.6c2.6-1.5,7.9-5.3,7.9-5.3
	c3-2.2,5.7-4.7,9.8-7.5C238.3,462.9,239,463.3,239.7,463.8z"/>
<path class="st1" d="M482.5,504.5c-0.4,0.6-1.2,0.8-1.9,0.4c-18-10.9-36.8-20.8-56-30.5c-0.3-0.1-0.6-0.3-0.9-0.4v-0.1
	c0,0-5.4-2.5-14-6.2c-4-1.6-8.6-3.5-13.7-5.5c-8.2-3.2-17.7-6.5-27.5-9.5c-16.5-5-25.4-5.8-30-6.2c-13.4-1.2-26.9-0.6-40.2,1.9
	c-14.9,3-25.5,7.3-33.7,11.9c-4-2.2-8-4.7-12.1-7.3c5.4-3,10.9-5.7,16.6-8c2.6-1.1,5.3-2,8-2.9l8.2-2.2c5.4-1.8,11.1-2.3,16.6-3.3
	c2.8-0.4,5.6-0.7,8.4-0.8c2.8-0.2,5.6-0.5,8.4-0.6l8.4,0.2l4.2,0.1c1.4,0,2.8,0.3,4.2,0.4l8.3,0.8c2.8,0.3,5.5,0.9,8.2,1.4
	c2.7,0.4,5.5,1,8.2,1.5l8,2c11.6,5.6,23.4,11.5,35.4,17.6c3.8,1.9,7.6,3.8,11.4,5.8c5.1,2.7,10.2,5.4,15.4,8.1
	c18,9.7,35.4,19.3,52.1,29.1C482.9,502.9,483,503.8,482.5,504.5C482.5,504.4,482.5,504.5,482.5,504.5z"/>
<path class="st2" d="M112.8,435.9c0.4,1.2,0,1.9-1.3,2c-0.6,0.2-1.2,0.1-1.7-0.3c-0.3,0.5-0.6,1-0.9,1.5c-0.3,0.5-0.8,0.7-1.3,0.6
	c-0.7-0.1-1.3-0.4-1.9-0.8c-0.6-0.5-0.9-1.1-1.1-1.9c-0.2-0.4-0.4-0.9-0.7-1.3c-0.3-0.4-0.5-0.8-0.7-1.3c-1-1.7-1.9-3.4-2.8-5.1
	c-0.9-1.7-1.9-3.3-3.1-4.8c-0.5-0.7-1.1-1.5-1.5-2.2s-0.9-1.5-1.4-2.3c-1-2-2-4.1-3.1-6.1c-1.1-2-2.2-4.1-3.1-6.1
	c-0.7-1.6-1.4-2.5-2-2.8c-1.1-0.3-2.3-0.3-3.5,0h-1.9c-3.5-0.2-7.1-0.1-10.6,0.2c-3.5,0.3-7.1,0.7-10.6,1c-2.3,0.2-4.6,0.3-6.7,0.5
	s-4.4,0.3-6.6,0.5c-0.5,0.8-1.5,2.4-2.9,4.7c-1.4,2.4-2.9,4.8-4.5,7.4c-1.7,2.6-3.3,4.9-4.8,7.1c-1.5,2.2-2.8,3.5-3.7,4
	c-1,0.5-1.9,1.1-2.8,1.7c-0.9,0.7-1.7,1.5-2.4,2.4c-0.4,0.3-0.9,0.4-1.3,0.3c-0.4-0.1-0.7-0.3-1.1-0.5c-0.4-0.2-0.7-0.5-1.1-0.7
	c-0.3-0.3-0.8-0.4-1.2-0.3c-0.2,0.1-0.2-0.1-0.2-0.5c0-0.3,0.1-0.7,0.2-1c0.3-0.8,0.6-1.6,0.9-2.3c0.4-0.8,0.8-1.5,1.2-2.2
	c0.4-0.5,0.7-1.1,0.9-1.7c0.3-0.6,0.5-1.1,0.8-1.7c0.1-0.3,0.6-1.3,1.4-3.2s1.7-3.9,2.6-6s1.7-4.1,2.3-5.9s0.9-2.8,0.7-3h-1.2
	c-0.3,0.2-0.7,0.2-1.1,0.1c-0.5,0-1-0.1-1.4-0.3l-1.4-0.6c-0.5-0.4-0.7-0.9-0.4-1.3c0.3-0.4,0.4-0.8,0.5-1.3c-0.8-0.2-1.6-0.5-2.3-1
	c-0.2-0.2-0.2-0.9,0-1.9c-1,0.2-2,0.3-3,0.4c-1,0.1-2.2,0.2-3.4,0.4c0.4-0.5,0.9-0.9,1.5-1.1l1.4-0.3c2.1-0.2,4.1-0.6,6.1-1.1
	c2-0.6,4.2-0.5,6.2,0.3c1.5-0.5,3-1.1,4.5-1.8c1.5-0.8,2.7-1.9,3.7-3.3c1.1-1.8,2.3-3.5,3.4-5.1s2.2-3.3,3.4-5.1
	c0.4-0.5,0.8-1,1.2-1.6c0.4-0.6,1-1,1.6-1.3c1.7-2.1,3.2-4.4,4.6-6.7c1.3-2.4,2.8-4.6,4.3-6.9c0.5-0.9,1.1-1.7,1.6-2.5
	s1.1-1.6,1.7-2.5c1.3-1.7,2.3-3.6,2.9-5.6c-0.4-0.5-0.6-1.1-0.7-1.7c-0.1-0.6-0.2-1.2-0.4-1.9c-0.1-0.5,0-1,0.3-1.5
	c0.3-0.4,0.8-0.6,1.2-0.3c0,0,0,0,0,0c1.6,0.9,3.4,1.3,5.2,1.3c1.8,0,3.5,0.3,5.2,0.9c1.2,0.4,2.4,1,3.5,1.7c1.1,0.7,2,1.8,2.5,3.1
	c0.4,1.1,0.9,2.2,1.5,3.3c0.5,1.1,0.9,2.2,1.1,3.4c0.3,0.7,0.5,1.4,0.8,2.1c0.3,0.8,0.4,1.6,0.4,2.4c0.1,0.3,0.1,0.7,0.1,1
	c0,0.4,0.2,0.8,0.5,1c2.2,3.7,3.7,7.8,4.4,12l0.7,2c0.2,0.6,0.4,1.3,0.6,1.9c0.6,0.7,1.1,1.5,1.3,2.4c0.3,0.9,0.4,1.8,0.5,2.7v0.1
	c0.7,0.9,1.2,1.9,1.6,3c0.4,1,0.8,2,1.2,3l2.1,5.2c0.7,1.7,1.5,3.4,2.3,5.1c1.3,2.6,2.4,5.2,3.4,7.9c1,2.7,2.2,5.3,3.4,7.9
	c0.7,1.5,1.2,3,1.5,4.6c0.3,1.5,0.5,3.1,0.7,4.7h0.7C111.8,434.2,112.2,435.2,112.8,435.9z M71.1,391.4c1.5-0.4,3-0.6,4.5-0.7
	c1.6-0.2,3.1-1,4.1-2.2c-1-3.1-2.1-6.2-3.3-9.1c-1.2-3-2.4-6-3.7-9.1c-0.4,0.2-0.8,0.5-1.1,0.8c-2.4,3.1-4.8,6.3-7.1,9.5
	c-2.3,3.2-4.6,6.5-6.8,9.8c-0.4,1.3-0.4,2.1,0.1,2.4c0.7,0.3,1.5,0.3,2.3,0.1c1.8-0.2,3.6-0.4,5.4-0.6S69.3,391.7,71.1,391.4
	L71.1,391.4z"/>
<path class="st2" d="M170.7,422.5c0.4,0.5,0.5,0.9,0.1,1.3c-0.3,0.4-0.7,0.7-1.1,1c-1.4,0.9-2.8,1.5-4.4,1.9c-0.2,0-0.4,0-0.5,0.1
	c-0.7,0.2-1.4,0.4-2.1,0.6s-1.4,0.5-2.1,0.7c-0.6,0.4-1.3,0.7-2.1,0.9c-0.7,0.1-1.4,0.3-2.1,0.3c-3.4,0.4-6.8,0.7-10.2,1
	c-3.4,0.3-6.8,0.4-10.2,0.2c-3.8,0.2-7.6,0.4-11.4,0.6c-3.8,0.2-7.6,0.4-11.5,0.6c-0.6,0.1-1.2,0.2-1.8,0.2c-0.7,0-1.3-0.2-1.8-0.6
	c-1,0-2-0.5-2.6-1.4c-0.6-0.8-1.4-1.5-2.3-1.8c-1.8-0.6-2.8-1.2-3.1-1.7s-0.3-1.6,0.1-3.4c0.3-1.2,0.1-2.5-0.5-3.6
	c-0.7-0.9-0.5-2.1,0.3-2.8c0.4-0.3,0.6-0.8,0.7-1.3c0-0.5,0-1-0.2-1.4c-0.4-1.2-0.4-2.4-0.3-3.6c0.2-1.2,0.4-2.3,0.7-3.6v-1.4
	c-0.8-1.9-0.4-3.4,1.3-4.4c0-0.4,0-0.8-0.1-1.2c-1.1-0.5-1.8-1.7-1.7-2.9c-0.1-2.5-0.1-4.9-0.1-7.3c0-2.4,0.1-4.8,0.1-7.3
	c-1.4-1.3-1.6-3.4-0.5-4.9c0.4-0.9,0.8-1.8,1-2.7c0.2-0.9,0.5-1.9,0.7-2.9l0.1,0.3c0-0.2,0-0.3-0.1-0.3c-0.2-0.9-0.2-1.8-0.1-2.7
	c0.1-0.9,0.1-1.8,0.1-2.7c0.1-2.3,0.2-4.6,0.2-6.8c0-2.3,0-4.5-0.2-6.8c0.4-1.3,1.2-1.7,2.5-1.1c0.6,0.3,1.2,0.3,1.9,0.2
	c0.6-0.1,1.3,0,1.9,0.3h1.3c0.4,0,0.8,0,1.3,0.1c1.9,0,3.8,0.6,5.3,1.8c1.1,1,1.9,2.8,2.3,5.4c0.5,0.5,0.7,1.3,0.5,2
	c-0.5,1.5-0.7,3.1-0.6,4.7c0,1.6-0.2,3.2-0.6,4.7c-0.1,0.9-0.2,1.7-0.2,2.5c-0.1,0.9-0.2,1.7-0.5,2.5v0.5c0.2,2.6,0.1,5.2-0.2,7.8
	c-0.3,2.6-0.6,5.2-0.7,7.8c-0.2,2.3-0.5,4.5-0.9,6.7c-0.4,2.2-0.8,4.4-1.1,6.7c-0.1,0.5-0.1,1.1-0.1,1.7c0,0.6,0,1.2-0.1,1.8
	c0.4,1,0.4,2.2-0.1,3.1c-0.5,1.1-0.8,2.2-0.9,3.4c1.2-0.3,2.4-0.3,3.6-0.1c1.2,0.2,2.4,0,3.3-0.7c0.5-0.4,1.1-0.4,1.6,0
	c1.5,0.9,3.2,1.4,4.9,1.3c1.7-0.1,3.4-0.3,5.1-0.5c1.7-0.3,3.3-0.4,5-0.4c1.6,0,3.2-0.1,4.9-0.3c0.4-0.2,0.9-0.2,1.3,0
	c1.2,0.9,2.7,1.3,4.3,1.3c1.5,0,3-0.1,4.5-0.1c1.4,0,2.7,0.2,4,0.5c0.9,0.3,1.9,0.4,2.8,0.4c1.2-0.2,2.3-0.1,3.5,0.1
	c1.1,0.3,2.2,0.6,3.3,1.1c0.2,0.2,0.4,0.4,0.7,0.5c0.2,0.1,0.4,0.2,0.7,0.3c1.2-0.2,2,0.2,2.3,1.1
	C169.8,421.1,170.2,421.9,170.7,422.5z"/>
<path class="st2" d="M212.4,353.8c0.3,1,0.3,2,0.3,3.1c0,3.5-1.4,6-4.1,7.5c-0.8,0.7-1.9,1-2.9,0.8c-0.7-0.1-1.3-0.1-2,0
	c-0.7,0.1-1.3-0.3-1.6-1.3c-1.4,0-2.8,0-4.2-0.1c-1.4,0-2.8-0.1-4.2-0.1h-1.9c-0.4,0-0.8,0.1-1.1,0.3c-0.3,0.2-0.5,0.6-0.5,0.9
	c-0.1,0.4-0.3,1.1-0.5,1.9c-0.1,0.2-0.2,0.4-0.3,0.7c-0.1,0.3-0.2,0.5-0.3,0.7c-0.1,1-0.1,1.9-0.1,2.8v2.6c-0.1,0.1-0.2,0.1-0.3,0.1
	c0,0.3,0,0.5,0.1,0.8c0.1,0.9,0.2,1.7,0.2,2.6c0,1.3,0.1,2.8,0.1,4.6s0.1,3.7,0.1,5.7s0,3.9-0.1,5.7s-0.1,3.3-0.3,4.7
	c0,0.9-0.2,1.7-0.5,2.5c0,1.1,0.1,2.1,0.3,3.2c0.2,0.7,0.4,1.3,0.5,1.9c0.2,0.6,0.3,1.2,0.3,1.9c-0.1,1.1-0.2,2.2-0.5,3.3
	c-0.3,1.2-0.3,2.5-0.3,3.7c0.1,1.3,0.4,2.5,0.9,3.7c0.4,0.9,0.7,1.8,0.8,2.8c0.1,1-0.2,2-0.7,2.9c-0.2,0.2-0.3,0.5-0.3,0.8
	c-0.1,0.3,0,0.6,0.2,0.8c0.5,0.9,0.7,2,0.7,3c-0.1,0.9-0.3,1.8-0.7,2.7c-0.4,0.8-0.8,1.7-1.3,2.5c-0.5,0.8-0.8,1.6-1.1,2.4
	c-0.4,0.6-0.9,1.1-1.6,1.3c-0.4,0.2-0.7,0.7-0.7,1.2c-0.4,0.9-1,1-2,0.4c-1-0.8-1.8-1.9-2-3.2c0-0.1,0-0.3-0.1-0.4
	c-0.7-0.5-1.4-1.1-1.9-1.8c-0.6-0.7-1-1.6-1.3-2.5c-1.1-4.3-2.2-8.5-3.3-12.6c-1.2-4.2-1.8-8.5-2-12.9c0.1-1.1,0.6-1.6,1.5-1.6
	c-0.2-1.9-0.3-4.4-0.5-7.5c-0.1-3.1-0.2-6.3-0.3-9.7s-0.1-6.6,0-9.7s0.2-5.6,0.3-7.5c0.1-0.6,0.1-1.2,0.1-1.7c0-0.6,0-1.2,0.1-1.7
	c-0.2,0-0.4,0-0.5-0.1c-0.2-0.3-0.4-0.5-0.5-0.8v-0.5h-4.5c-1.6,0.3-3.2,0.3-4.8,0h-0.8c-1.6,0.4-3.3,0.6-4.9,0.6
	c-1.7,0-3.3,0.2-4.9,0.7c-2.8-0.1-5.6,0-8.5,0.3l-8.5,0.8c-1.5,0.2-3,0.2-4.5,0.2c-1.5,0-3,0-4.5,0.2c-0.3,0-0.7,0-1.2,0.1
	c-0.4,0-0.8,0.1-1.2,0.1c-0.3,0-0.7-0.1-1-0.2c-0.4-0.2-0.6-0.6-0.6-1c-0.1-0.4,0-0.7,0.3-1c0.3-0.2,0.6-0.4,0.9-0.5l1.1-0.3
	c0.4-0.1,0.7-0.2,1-0.4c0.1-0.1,0.3-0.1,0.4-0.1l-3.7-0.8c-1.2-0.3-2.5-0.5-3.7-0.7c0.6-0.7,1.4-1.1,2.3-1.3
	c0.9-0.1,1.7-0.3,2.5-0.5c0.6-0.2,1.2-0.3,1.8-0.5s1.2-0.3,1.8-0.5c-0.2-0.3-0.1-0.7,0.1-0.9c0.3-0.3,0.7-0.4,1.1-0.5
	c1.5-0.4,3-0.7,4.4-1s2.9-0.6,4.4-0.7c2.8-0.5,5.6-0.9,8.3-1.2c1.2-0.4,2.5-0.7,3.8-0.9c1.3-0.2,2.6-0.3,3.9-0.4
	c0.2,0,0.5,0,0.7-0.1c1.5-0.4,3-0.7,4.6-0.9c1.5-0.1,3.1-0.2,4.6-0.3c0.8,0.1,1.7,0.1,2.5-0.1c0.8-0.1,1.6-0.3,2.5-0.5
	c0.3-0.4,0.6-0.7,0.9-0.9c0.3-0.6,0.4-1.2,0.5-1.9c0-0.6,0.4-1.2,0.9-1.6c0.4-0.7,0.8-1,1.3-0.9c0.5,0.1,0.9,0.3,1.4,0.5
	c1.5,0.7,3.3,0.5,4.7-0.5c0.8-0.2,1.7-0.3,2.5-0.3c0.8,0,1.6,0.1,2.4,0.3c0.3,0.2,0.6,0.5,0.9,0.7c1.1,0.7,2.4,0.9,3.7,0.7
	c1.5-0.3,3.1-0.4,4.7-0.4c1.6,0,3.1,0.1,4.7,0.3c4,0.6,8-0.9,10.7-3.9l0.3,0.1c1.1,1.2,2.1,2.5,2.9,3.9c0.8,1.4,1.3,2.9,1.5,4.5
	c0,0.1,0,0.2,0.1,0.3c0,0.1,0.1,0.2,0.1,0.3c0.1,0.1,0.1,0.2,0.1,0.3C212.3,353.6,212.3,353.7,212.4,353.8z"/>
<path class="st2" d="M273.2,422.9c0.2,0.4,0.2,0.8,0.2,1.3c0,0.4-0.3,0.7-0.9,0.9c-2.3,2.3-5.2,3.8-8.3,4.4l-9.3,1.6
	c-4.2,0.7-8.3,1.2-12.5,1.6c-4.1,0.4-8.3,0.9-12.5,1.6c-1.3,0.2-2.5,0.3-3.7,0.5c-1.2,0.1-2.5,0.1-3.7-0.2c-0.3-0.1-0.7-0.1-1.1-0.1
	c-0.4,0-0.8,0-1.2-0.2c-1.4-0.3-2.7-1-3.9-1.9c-1.1-1-1.8-2.5-1.9-4c-0.9-0.6-1.4-1.7-1.3-2.8v-1.7c0-0.6-0.2-1.1-0.7-1.5
	c-0.4-1-0.6-2.1-0.5-3.1c0.1-1,0.1-2.1-0.1-3.1c-0.4-2.6-0.7-5.1-0.9-7.7s-0.5-5.1-0.7-7.7c-0.3-3.6-0.3-7.3-0.1-10.9
	c0.2-3.5,0.2-7.2,0.1-10.9c0-0.4,0-0.9,0.1-1.5s0.1-1,0.1-1.5c-0.1-1.6-0.1-3.2-0.1-4.8c0-1.6,0.2-3.2,0.7-4.8v-1.7
	c0-0.6,0.2-1.1,0.7-1.5c-0.1-1.2-0.2-2.3-0.3-3.3s-0.2-2.2-0.4-3.3c-0.4-0.3-0.8-0.6-1.1-1c-0.3-0.4-0.2-0.9,0.2-1.4
	c0.3-0.4,0.7-0.6,1.2-0.5c0.5,0,0.9,0.1,1.3,0.4c0.4,0.5,1.1,0.8,1.7,0.7c0.6-0.2,1.2-0.5,1.7-0.9c0.7-0.5,1.6-0.6,2.4-0.3l3.4,0.8
	l3.3,0.8c2.4-0.4,4.8-0.8,7.1-1.2c2.4-0.4,4.8-0.4,7.1-0.3c1.7-0.4,3.4-0.7,5.1-0.7c1.7,0,3.5-0.1,5.2-0.3c0.9-0.1,1.9-0.1,2.8,0
	c0.9,0.1,1.9,0,2.8-0.1c0.4-0.1,0.8-0.1,1.2-0.1c0.4,0,0.6,0.3,0.8,0.9s0.1,0.9-0.3,0.9c-0.4,0-0.7,0.1-1,0.3
	c-0.4,0.2-0.5,0.3-0.5,0.4s0.1,0.2,0.2,0.3c0.1,0.1,0.3,0.2,0.4,0.2c0.1,0,0.2,0.1,0.2,0.2c0.6,0,1.1,0.1,1.7,0.3
	c0.4,0.2,0.5,0.8,0.2,1.7l0.1,0.1c0,0.6-0.3,1.2-0.7,1.6c-0.4,0.4-0.9,0.8-1.3,1.1c-0.3,0.5-0.5,1.1-0.7,1.6c-0.3,0.6-0.8,1-1.4,1.1
	h-1.2c-2.3,1.6-4.9,2.6-7.6,3.1c-2.9,0.4-5.8,1.1-8.7,2.1c-2.8,0.9-5.7,1.7-8.7,2.2c-0.1,0.1-0.2,0.1-0.2,0.1s-0.1,0-0.2,0.1
	c-0.4,2.6-0.7,5.1-0.9,7.6c-0.3,2.5-0.5,5-0.8,7.6c0.5,0.3,1.1,0.5,1.7,0.6c0.6,0,1.2,0.1,1.8,0.1c0.7-0.3,1.5-0.6,2.3-0.6
	c0.8,0,1.5-0.1,2.3-0.3c3.6-0.7,7.2-1.1,10.9-1.1c3.6,0,7.2-0.1,10.9-0.3c1.9-0.2,3.8,0.2,5.5,1.2c1.2,0.7,1.3,1.5,0.5,2.4
	c-0.2,0.2-0.4,0.4-0.5,0.7c0.2,0.3,0.5,0.6,0.9,0.8c0.4,0.3,0.4,0.6-0.1,0.9c-1,0.8-1.8,1.7-2.5,2.7c-0.7,1-1.8,1.8-2.9,2.3
	c-2.5,1-5.1,1.7-7.7,2.3c-2.6,0.6-5.1,1.1-7.7,1.5c-2.8,0.4-5.6,0.9-8.3,1.4c-2.7,0.5-5.4,1.2-8,2.2c-0.1,2.3-0.1,4.6-0.1,6.9
	c0,2.3-0.3,4.7-0.9,6.9c-0.4,1.3-0.5,2.7-0.1,4l9.2-1.2c1.7-0.4,3.3-1,4.9-1.6c1.5-0.6,3.2-1,4.8-1.1c1.8-0.2,3.6-0.2,5.5-0.1
	c1.9,0.1,3.7,0.3,5.5,0.6c1.9,0.3,3.8,0.4,5.7,0.3l5.7-0.3c2,0,4,0.3,5.9,0.9c0.9,0.2,1.7,0.8,2.3,1.5
	C273.3,420.9,273.4,422,273.2,422.9z"/>
<path class="st2" d="M399.5,461.2c0.5,1.4,0.7,2.3,0.3,2.7s-1.1,0.5-2.5,0.2c-0.4,0-0.7-0.1-1.1-0.3c0.1,0.2,0.2,0.4,0.3,0.7
	c-0.3,0.3-0.8,0.3-1.2,0.1c-0.3-0.2-0.7-0.4-1.1-0.6c-2-1.4-4.1-2.9-6.2-4.3c-2.1-1.4-4-2.9-5.9-4.5l-0.8-0.5l-0.8-0.5
	c-0.1-0.1-0.2-0.3-0.3-0.4c-0.1-0.1-0.2-0.2-0.3-0.3c-0.4-0.1-0.7-0.4-1-0.7c-0.2-0.3-0.5-0.6-0.7-0.9c-1.1,0-2.2-0.4-3.2-0.9
	c-0.8-0.7-1.3-1.6-1.6-2.7l-1.3-1.6c-0.5-0.5-1.1-1-1.7-1.2c-3.2-3.1-6.5-6.2-9.8-9.2c-3.3-3-6.6-6.1-9.7-9.3
	c-1.7-1.7-3.4-3.4-5-5.1c-1.7-1.7-3.3-3.6-4.7-5.5c-0.5-0.7-1.1-1.3-1.9-1.7c-0.8-0.5-1.7-0.6-2.5-0.5c-0.1,0-0.1,0-0.2,0.1
	c-0.1,0.1-0.1,0.1-0.2,0.1c-0.1,0.6-0.3,1.1-0.6,1.6c-0.1,0.1-0.2,0.3-0.4,0.3c-0.2,0.1-0.3,0.2-0.3,0.4c-0.1,0.5-0.2,1.1-0.1,1.7
	c-0.4,1.7-0.8,3.8-1.3,6.4c-0.4,2.1-0.9,4.2-1.7,6.3c1,1.3,2,2.4,3.1,3.5s2.1,2.3,3.1,3.5s1.7,2.5,2.5,3.7c0.8,1.2,1.3,2.6,1.5,4.1
	c0.3,0.2,0.6,0.4,0.8,0.7c0.3,0.3,0.2,0.6-0.3,1.1c-0.3,0.4-0.3,0.8-0.1,1c0.2,0.2,0.5,0.4,0.7,0.6c0.4,1.3,0.5,2.2,0.2,2.7
	s-1.1,0.5-2.5,0.3c-0.2-0.1-0.4-0.1-0.5-0.1c-0.2,0-0.4,0-0.5-0.1c0.2,0.2,0.3,0.4,0.3,0.7c-0.3,0.3-0.8,0.3-1.2,0.1
	c-0.4-0.2-0.7-0.5-1.1-0.7c-2-1.3-4.1-2.7-6.1-4.1s-4-2.9-6-4.5c-0.5-0.4-1-0.8-1.6-1.1c-0.2-0.3-0.4-0.6-0.7-0.8
	c-0.3-0.2-0.7-0.4-0.9-0.7l-0.8-0.8c-1.1-0.1-2.2-0.4-3.2-0.9c-0.8-0.7-1.4-1.7-1.6-2.8c-0.5-0.5-0.9-1-1.3-1.5
	c-0.5-0.5-1.1-0.9-1.7-1.1c-3.2-3.1-6.4-6.2-9.7-9.2s-6.5-6.1-9.6-9.3c-1.7-1.8-3.4-3.5-5.1-5.2c-1.7-1.7-3.3-3.5-4.8-5.3
	c-0.5-0.7-1.1-1.3-1.9-1.8c-0.7-0.5-1.7-0.7-2.5-0.5c-0.1,0-0.3,0-0.4,0.1c-0.4,1.8-0.8,3.6-1,5.4c-0.2,1.8-0.4,3.7-0.5,5.5
	c-0.2,0.8-0.4,1.8-0.6,2.9s-0.5,2.3-0.7,3.5s-0.5,2.4-0.8,3.5c-0.2,1-0.5,2-0.9,2.9c-0.2,1.2-0.8,1.6-1.9,1.3c-0.2,0-0.5,0-0.7,0.1
	v2.4c0.1,0.7,0,1.5-0.3,2.1c-0.5,0.3-1.1,0.4-1.7,0.4c-0.2,0.1-0.3,0.1-0.5,0.1c-0.5,0-0.7-0.1-0.7-0.4v-0.9l0.1,0.1l-0.1-0.1
	c-0.1-0.2-0.1-0.3-0.1-0.5c-0.3,0.4-0.6,0.9-0.9,1.3c-0.4,0.5-1,0.6-1.5,0.4c-0.6-0.1-1.1-0.5-1.3-1.1c-0.1-0.6-0.2-1.2-0.3-1.8
	c-0.4-3.9-0.6-8.3-0.7-13.1s-0.2-9.2-0.1-13.1c-1-0.6-2-1.4-2.7-2.3c-0.8-0.9-1.8-1.6-3-1.9c-0.6-0.2-0.8-0.5-0.4-1.1
	c0.2-0.5,0.4-0.9,0.5-1.3c0.2-0.4,0.6-0.6,1.1-0.5c1,0.2,1.6,0,1.9-0.6s0.6-1.1,0.9-1.7c0.9-1.8,1.2-3.8,0.9-5.7
	c-0.2-1.6-0.2-3.2-0.2-4.8c0-1.6,0.1-3.2,0.2-4.9s0.1-3.5,0.1-5.3v-5.3c0-0.7,0-1.5,0.1-2.3c0-0.8,0.2-1.6,0.6-2.3
	c0.2-1.1,0.3-2.1,0.3-3.2c0-1.1,0-2.2-0.1-3.3c0-0.3-0.2-0.5-0.4-0.7c-0.3-0.2-0.5-0.3-0.8-0.5c-0.2-0.1-0.4-0.3-0.6-0.5
	c-0.1-0.2-0.1-0.4,0.1-0.8c0.4-0.8,1-1,1.5-0.7c0.5,0.3,1.1,0.5,1.7,0.5c0.4,0.1,0.8,0.1,1.1,0.2s0.7,0.1,1.1,0.2
	c-0.2-0.4-0.2-0.8-0.1-1.2c0.1-0.4,0.4-0.5,1.1-0.5c0.9-0.1,1.9-0.3,2.8-0.5c0.9-0.3,1.9-0.3,2.8-0.1c1.9-0.5,3.7-0.9,5.5-1.5
	c1.8-0.5,3.7-0.8,5.6-0.7c0.8,0.1,1.6,0.2,2.4,0.2c0.8,0,1.6,0.3,2.3,0.6c3.3,0.5,6.5,1,9.7,1.7c3.2,0.7,6.2,1.8,9.1,3.4
	c4.3,2.4,7.9,5.8,10.4,10c0.4-0.2,0.9-0.2,1.3,0.1c0.4,0.2,0.9,0.4,1.3,0.5c0.4,0,0.7,0,1.1,0.1l1.2,0.3c-0.5-1.2-0.1-1.8,0.9-1.9
	c0.9-0.1,1.9-0.2,2.8-0.5c0.9-0.2,1.9-0.2,2.8-0.1c1.8-0.4,3.6-0.9,5.4-1.5c1.8-0.5,3.8-0.8,5.7-0.7c0.8,0,1.6,0,2.4,0.1
	c0.8,0,1.6,0.2,2.3,0.6c3.2,0.5,6.4,1.1,9.6,1.7c7.7,1.6,14.5,6.1,19.1,12.5c2.5,3.9,3.7,8.5,3.3,13.1c-0.1,2-0.3,3.9-0.7,5.9
	c-0.4,1.9-1,3.7-1.9,5.5c-0.2,1.8-1.5,3.2-3.2,3.7c-1.8,0.7-3.6,1.4-5.4,2c-1.9,0.6-3.8,1.2-5.7,1.6c-0.7,0.2-1.5,0.3-2.3,0.5
	c-0.9,0.2-1.6,0.8-1.9,1.7c-0.2,0.1-0.3,0.2-0.5,0.1c0.2,0,0.4,0,0.5-0.1c1.7,2.3,3.6,4.4,5.6,6.5c2,2,3.9,4.1,5.7,6.2
	c1.2,1.1,2.4,2.1,3.6,3.3c1.1,1.1,2.2,2.3,3.1,3.7c0.4,0.7,1,1.3,1.6,1.7c0.6,0.4,1.2,0.9,1.7,1.5l1.3,1.3c0.5,0.5,0.8,1,1.1,1.6
	c1.1,0.8,2.2,1.6,3.1,2.6c0.9,0.9,1.8,1.9,2.7,3c1,1.4,2.1,2.6,3.3,3.8c1.2,1.2,2.3,2.4,3.3,3.8c0.9,1.3,1.7,2.5,2.5,3.7
	c0.8,1.3,1.3,2.7,1.4,4.2c0.3,0.2,0.6,0.4,0.9,0.6c0.3,0.2,0.2,0.6-0.3,1.1c-0.3,0.3-0.3,0.6-0.1,0.9L399.5,461.2z M290.5,384.7
	c1.7,0.2,3.5,0,5.1-0.6c1.7-0.6,3.3-1.1,5-1.5c1.9-0.4,3.7-1.4,4.9-2.9c1.2-1.5,2.1-3.3,2.5-5.2c0.1-0.5,0.2-0.9,0.3-1.2
	c0.1-0.4,0.2-0.7,0.4-1.1c-0.7-1.4-1.8-2.6-3.1-3.5c-1.3-0.9-2.7-1.5-4.2-1.9c-2.6-0.9-5.4-1.4-8.2-1.5c-2.8-0.1-5.6,0.2-8.3,1
	c-0.6,0.2-1.2,0.4-1.9,0.6c-0.6,0.2-1.3,0.2-2,0.1v0.1c-0.2,2.6-0.3,5.2-0.4,7.9s-0.2,5.3-0.4,8c-0.1,0.5-0.1,1-0.1,1.5
	c0,0.6,0.3,1.1,0.8,1.5c1.2-0.7,2.6-1.1,3.9-1.3c1.4-0.2,2.8,0.2,3.9,1l0.7-0.6C289.8,384.6,290.2,384.6,290.5,384.7z M319.9,418.7
	c0.3,0.5,0.6,0.9,1.1,1.3v-4.5c-1-0.6-1.9-1.4-2.6-2.3c-0.8-0.9-1.8-1.6-3-1.9c-0.4-0.1-0.7-0.5-0.6-0.9c0-0.1,0-0.1,0.1-0.2
	c0.2-0.4,0.4-0.9,0.6-1.3c0.2-0.4,0.7-0.6,1.1-0.5c0.9,0.2,1.5,0,1.8-0.6c0.3-0.6,0.6-1.1,0.9-1.7c1-1.7,1.3-3.7,1.1-5.6
	c-0.3-3.2-0.3-6.5,0-9.7v-0.7c-0.5,1.5-1.7,2.7-3.2,3.1c-1.8,0.7-3.6,1.4-5.4,2.1c-1.8,0.7-3.7,1.2-5.5,1.7
	c-0.8,0.2-1.6,0.3-2.5,0.5c-0.9,0.2-1.6,0.8-1.8,1.7l0,0c1.8,2.2,3.6,4.4,5.5,6.4s3.8,4.1,5.8,6.1c1.3,1.1,2.4,2.2,3.5,3.3
	C317.9,416,318.9,417.3,319.9,418.7z M347.1,396.8c1.7,0.2,3.4,0,5.1-0.5c1.6-0.5,3.3-1,5.1-1.5c1.9-0.5,3.6-1.5,4.9-3
	c1.2-1.5,2-3.3,2.4-5.1c0.2-0.4,0.3-0.8,0.3-1.3c0-0.4,0.1-0.7,0.3-1c-0.7-1.4-1.8-2.6-3.1-3.5c-1.3-0.9-2.7-1.6-4.1-2.1
	c-2.7-0.9-5.5-1.4-8.3-1.5c-2.8-0.1-5.7,0.2-8.4,1c-0.6,0.2-1.2,0.4-1.8,0.6c-0.6,0.2-1.3,0.3-1.9,0.1v0.1c-0.2,2.7-0.3,5.3-0.5,7.9
	c-0.1,2.6-0.3,5.3-0.5,7.9v1.6c0,0.6,0.2,1.1,0.7,1.5c1.2-0.7,2.6-1.2,4-1.4c1.4-0.2,2.8,0.2,3.9,1.1
	C345.7,397.2,346.3,396.9,347.1,396.8z"/>
<path class="st2" d="M457.9,435.9c0.4,1.2,0,1.9-1.3,2c-0.6,0.2-1.2,0.1-1.7-0.3c-0.3,0.5-0.6,1-0.9,1.5c-0.3,0.5-0.8,0.7-1.3,0.6
	c-0.7-0.1-1.3-0.4-1.9-0.8c-0.6-0.5-0.9-1.1-1.1-1.9c-0.2-0.4-0.4-0.9-0.7-1.3c-0.3-0.4-0.5-0.8-0.7-1.3c-1-1.7-1.9-3.4-2.8-5.1
	c-0.9-1.7-1.9-3.3-3.1-4.8c-0.5-0.7-1-1.5-1.5-2.2s-1-1.5-1.4-2.3c-1-2-2-4.1-3.1-6.1c-1.1-2-2.2-4.1-3.1-6.1
	c-0.7-1.6-1.4-2.5-2-2.8c-1.1-0.3-2.3-0.3-3.5,0h-1.9c-3.5-0.2-7.1-0.1-10.6,0.2c-3.5,0.3-7,0.7-10.6,1c-2.3,0.2-4.6,0.3-6.7,0.5
	s-4.4,0.3-6.6,0.5c-0.5,0.8-1.5,2.4-2.9,4.7c-1.4,2.4-2.9,4.8-4.5,7.4c-1.7,2.6-3.2,5-4.8,7.1s-2.8,3.5-3.7,3.9
	c-1,0.5-1.9,1.1-2.8,1.7c-0.9,0.7-1.7,1.5-2.4,2.4c-0.4,0.3-0.9,0.4-1.3,0.3c-0.4-0.1-0.7-0.3-1.1-0.5c-0.3-0.2-0.7-0.5-1.1-0.7
	c-0.3-0.3-0.8-0.4-1.2-0.3c-0.2,0.1-0.2-0.1-0.2-0.5c0-0.3,0.1-0.7,0.2-1c0.3-0.8,0.6-1.6,0.9-2.3c0.4-0.8,0.8-1.5,1.2-2.2
	c0.4-0.5,0.7-1.1,0.9-1.7c0.3-0.6,0.5-1.1,0.8-1.7c0.1-0.3,0.6-1.3,1.4-3.2s1.7-3.9,2.6-6s1.7-4.1,2.3-5.9s0.9-2.8,0.7-3h-1.2
	c-0.3,0.2-0.7,0.2-1.1,0.1c-0.5,0-1-0.1-1.4-0.3l-1.4-0.6c-0.5-0.4-0.7-0.9-0.4-1.3c0.3-0.4,0.4-0.8,0.5-1.3c-0.8-0.2-1.6-0.5-2.3-1
	c-0.2-0.2-0.2-0.9,0-1.9c-1,0.2-2,0.3-3,0.4c-1,0.1-2.2,0.2-3.4,0.4c0.4-0.5,0.9-0.9,1.5-1.1l1.4-0.3c2.1-0.2,4.1-0.6,6.1-1.1
	c2-0.6,4.2-0.5,6.2,0.3c1.5-0.5,3-1.1,4.5-1.8c1.5-0.8,2.7-1.9,3.7-3.3c1.2-1.8,2.3-3.5,3.4-5.1c1.1-1.6,2.3-3.3,3.4-5.1
	c0.4-0.5,0.8-1,1.2-1.6c0.4-0.6,1-1,1.6-1.3c1.7-2.1,3.2-4.3,4.6-6.7c1.3-2.4,2.8-4.6,4.3-6.9c0.5-0.9,1.1-1.7,1.6-2.5
	s1.1-1.6,1.7-2.5c1.3-1.7,2.3-3.6,2.9-5.6c-0.4-0.5-0.6-1.1-0.7-1.7c-0.1-0.6-0.2-1.3-0.4-1.9c-0.1-0.5,0-1,0.3-1.5
	c0.3-0.4,0.8-0.5,1.3-0.3c0,0,0,0,0,0c1.6,0.9,3.4,1.3,5.2,1.3c1.8,0,3.5,0.3,5.2,0.9c1.2,0.4,2.4,1,3.5,1.7c1.1,0.7,2,1.8,2.5,3.1
	c0.4,1.1,0.9,2.2,1.5,3.3c0.5,1.1,0.9,2.2,1.1,3.4c0.3,0.7,0.5,1.4,0.8,2.1c0.3,0.8,0.4,1.6,0.4,2.4c0.1,0.3,0.1,0.7,0.1,1
	c0,0.4,0.2,0.8,0.5,1c2.2,3.7,3.7,7.8,4.4,12c0.3,0.7,0.5,1.4,0.7,2s0.4,1.3,0.6,1.9c0.6,0.7,1.1,1.5,1.3,2.4
	c0.3,0.9,0.4,1.8,0.5,2.7v0.1c0.7,0.9,1.2,1.9,1.6,3c0.4,1,0.8,2,1.2,3c0.7,1.8,1.4,3.5,2.1,5.2c0.7,1.7,1.5,3.4,2.3,5.1
	c1.2,2.6,2.4,5.2,3.4,7.9s2.2,5.4,3.4,7.9c0.7,1.5,1.2,3,1.5,4.6c0.3,1.5,0.5,3.1,0.7,4.7h0.7C456.8,434.2,457.2,435.2,457.9,435.9z
	 M416.1,391.4c1.5-0.4,3-0.6,4.5-0.7c1.6-0.2,3.1-1,4.1-2.2c-1-3.1-2.1-6.2-3.3-9.1s-2.4-6-3.7-9.1c-0.4,0.2-0.8,0.5-1.1,0.8
	c-2.4,3.1-4.8,6.3-7.1,9.5c-2.3,3.2-4.6,6.5-6.8,9.8c-0.5,1.3-0.4,2.1,0.1,2.4c0.7,0.3,1.5,0.3,2.3,0.1c1.8-0.2,3.6-0.4,5.4-0.6
	S414.3,391.7,416.1,391.4z"/>
<path class="st2" d="M409.7,149.7l0.2,7.9l-3,6.8l-2.8,6.9l-2.8,6.9l-4.7,5.8l-4,6.1l-4.8,5.5l-4.6,5.7l-1.3,1.7l-4.8,4.8l-5.6,3.9
	l-1.2,1l0,0l-0.4,0.3l0,0l-0.1,0.1l-6.7,4.1l-6.8,3.8l-7.3,2.9l-7.5,2.2l-7.4,2.6l-7.8,0.8l-7.7,1.3l-7.8-1.1l-7.8,0.5l-7.5-2.3
	l-7.8-0.6l-6.8-3.3l-7-2.5l-7.3-2.1l-6.5-3.8l-6-4.6l-5.4-5.3l-5.7-4.9l-4.5-6l-5.1-5.5l-3.5-6.7l-4.2-6.2l-0.7-3.4l-2.8-6.5
	l-0.2-0.4l-1.5-1.6l-1-1l-0.4-3.3l-0.5-4.4l-1.6-4.1l-1.2-3l0.1-3.5l0.1-4.2l-1-5.4l-0.4-2.1l0.2-7.6l0.4-2.6l0.9-4.9l1.2-7.4V111
	l1-3.7l0.4-0.3l-0.4-0.6l0,0l-0.5-0.8l0.9-3.4l4-7.1l2.7-7.5l4-6.9l3.6-7.2l5.7-5.7l5.7-5.5l4.8-6.6l6.8-4.4l7.1-3.7l6.5-4.8l7.5-3
	l7.2-3.6l7.9-1.6l7.9-1l8-0.1l7.9-0.1l7.9,0.5l8.1-0.1l7.9,1.6l6.8,3.4l6.2,2.8l0.5,0.2h0.1l3.1,0.6l0,0l7.2,2.9l6.4,4.2l5.5,5.4
	l6,4.7l6,4.9l3.7,6.9l5.5,5.4l3.8,6.7l2.4,7.3l2.9,7l3,7l1.4,7.5l1,7.5l0.2,7.5l0.3,7.6l0.6,7.7L409.7,149.7z"/>
<path class="st0" d="M393.5,180.7c-0.5,1.2-1.9,2-3.3,2.5c-1.4,0.4-2.8,0.9-4.2,1.6c-2.4,1.5-3.4,4.6-2,6.4c-0.6,0.8-1.4,1.5-2.3,2
	c-0.4-1-0.6-1.5-1-2.5c-0.7,0-1.1,0.6-1.1,1.2c0,0,0,0.1,0,0.1c0.2,0.6,0.7,0.9,1.1,1.4c0.5,0.5,0.5,1.2,0,1.7
	c-0.2,0.2-0.4,0.3-0.6,0.5c-0.7,0.6-0.3,1.5,0.1,2.1c0.5,0.6,0.4,1.5-0.2,2c-0.1,0-0.1,0.1-0.2,0.1c0.7-0.2,0.8,0.6,0.5,1.2
	s-0.7,1.2-0.4,1.6c0.2,0.2,0.5,0.3,0.8,0.3c0.3,0,0.7,0.1,1.1,0.1l-4.8,4.8l-5.6,3.9l-1.2,1l0,0l-0.4,0.3l0,0
	c-4.7-1.4-9.7-3.6-14.6-3.3c-1.2,0.1-2.5,0.4-3.8,0.4c-4.8-0.1-7.4-5.2-12.4-4.4c-0.7,0.7,0.1,1.6,0.9,1.8s1.9,0.6,1.6,1.5
	c-0.2,0.7-1.2,1.4-0.9,1.9c0.1,0.2,0.3,0.2,0.6,0.3l2.3,0.5c-2.5,1.8-5.6,2.2-7.6,1c-1.6-1-2.5-2.9-4.4-3.3c-0.3,0-0.5-0.1-0.8-0.2
	c-0.7-0.5,0.1-1.7,1-2.3c1.2-0.9,2.7-1.4,4.2-1.6l-4.2-1.5c-0.6-0.3-1.3-0.4-2-0.4c-0.8,0.1-1.4,0.5-1.8,1.2
	c-0.2,0.6-0.1,1.4-0.7,1.7c-0.3,0.1-0.5,0.2-0.8,0.1l-3.3-0.1c-0.2,0-0.4,0-0.6-0.1c-0.2-0.2-0.4-0.6-0.3-0.9c0-1,0.1-1.9,0.3-2.9
	c-0.7-0.5-1.9-0.8-2.5-1.3c0.2,0.7,0.2,1.4,0.1,2.1c-0.2,0.8-0.8,1.3-1.5,1.5c-0.5,0.1-1-0.1-1.3,0.3s-0.1,0.9-0.3,1.3
	c-0.3,0.8-1.4,0.6-2,0.4c-4.5-1.9-6.7-3-11.3-5c-0.2-0.1-0.4-0.2-0.5-0.4c-0.4-0.5,0.1-1.2,0.3-1.9c0.2-1-0.3-1.9-0.4-2.8
	s0.7-2.3,1.5-2c0.6,0.3,0.7,1.2,1.3,1.6s1.5,0,2-0.6c0.4-0.7,0.7-1.4,0.8-2.2c0.9,0.9,1.8,1.7,2.8,2.4c0.6,0.5,1.3,0.9,2,1.2
	c0.3,0.1,0.6,0.2,0.8,0.4c0.5,0.6-0.3,1.6-1,2s-1.6,1.1-1.5,1.9c3.5,0.9,7.3,0.3,10.3-1.7c0.2-0.1,0.3-0.2,0.4-0.4
	c0.3-0.5-0.5-1-0.4-1.5c0.1-0.4,0.5-0.7,1-0.7c0.4,0,0.8,0.2,1.1,0.5l2.8,1.8c0.2,0.2,0.5,0.3,0.8,0.3c0.5,0,0.9-0.5,1.3-0.8
	c0.8-0.6,1.8-0.3,2.7-0.3c2.3,0,4.4-1,5.8-2.8c0.3-0.4,0.5-0.8,0.6-1.4c0-0.4-0.2-0.7-0.5-1c-0.5-0.6-1.1-1.2-1.8-1.7
	c-0.6-0.4-1.2-0.8-1.6-1.4c-0.8-1.3-0.6-3.1,0.5-4.2c-0.4-0.8-1.8-0.6-2.6,0s-1.4,1.5-2.2,2.1c-1.5,1.1-3.7,0.8-5.1,2.1
	s-1.3,3-2.2,4.5c-0.1,0.2-0.3,0.4-0.5,0.5c-0.4,0.1-0.6-0.2-0.9-0.4c-1.1-0.8-2.8,0.6-4.1,0.3s-1.7-2.2-2.4-3.5
	c-0.8-1.4-2.2-2.3-3.9-2.4c1.1-1.3,1.3-3.1,0.5-4.6c-0.3-0.6-0.9-1.1-0.9-1.8c0-1.2,1.2-2.4,2.3-3.1c0,0,2,0.4,2.2,0.4
	c2.4,0.4,4.9,0.6,7.3,0.5c0.8,0,2-0.6,1.7-1.3c-0.7,0.1-1.4-0.4-1.5-1.1c0-0.2,0-0.5,0.1-0.7c0.2-0.4,0.5-0.6,0.5-1
	s-0.5-0.9-0.8-1.3s-0.4-1.2,0.1-1.3c0.4,0,0.4,0.1,0.7,0.1c6.5-0.5,13.3-2.6,19.4-4.9c0.4-0.1,0.7-0.3,1-0.6c0.2-0.3,0.4-0.6,0.6-1
	c0.9-1.9,3.3-2.5,5.4-2.8s4.5-1,5.3-2.9c0.3-1,0.3-2.1,0.3-3.1c0-1.1,0.7-2.1,1.7-2.5c1.3-0.3,2.3,0.9,2.6,2.1s0.1,2.4,0.6,3.5
	c0.4,0.7,1,1.3,1.7,1.7c0.9,0.5,2,0.5,2.9,0c0.9-0.4,1.3-1.5,1-2.5c2.6,0.9,5.7,1.8,8.2,0.6c1.5-0.8,2.7-2.2,3.2-3.8
	c0.5-1.6,0.7-3.2,0.8-4.8c0.1-1.2,0-2.7-1.1-3.3c-0.9-0.4-1.9-0.3-2.6,0.3c-0.7,0.5-1.3,1.2-1.8,1.9c-1,1.3-2.4,2.2-4,2.4
	c-1.6,0.1-3.2-1.5-2.5-2.9c0.4-0.9,1.5-1.3,2.4-1.7s1.9-1.2,1.7-2.2c-1.6-0.2-3.1-1-4.1-2.3c-0.9-1.4-0.6-3.2,0.6-4.4l0.1-0.1
	c1.1-1.2,1-3-0.2-4.1c0,0-0.1-0.1-0.1-0.1c-0.6-0.4-1.3-0.7-2-1.1c-1-0.6-1.7-1.5-2-2.6c-1.7-0.5-3.5,0.2-4.4,1.7
	c-0.2,0.4-0.4,0.8-0.7,1.1c-0.9,0.9-2.5,0.3-3.6-0.3l-6.4-3.4c-1.6-0.9-3.3-1.8-4-3.4c-0.5-1-0.6-2.2-1.4-3s-1.9-1-2.9-1.5
	c-2.7-1.3-4.3-4.1-4-7c0.1-0.9,0.3-2-0.3-2.7s-1.9-0.6-2.9-1c-1.8-0.7-2.3-3-4-3.9c-0.9-0.5-2.1-0.5-2.9-1.3s-0.8-2.2-1.5-3.1
	s-2.3-1.2-3-2.3s-0.4-2.6,0.1-3.8c0.3-1.2,0.8-2.3,1.5-3.4c1.8-2.6,5.6-3.8,6-7c0-1.1-0.1-2.1-0.2-3.2c-0.2-1.1,0.2-2.1,1-2.8
	c0.4-0.2,0.8-0.4,1.2-0.5l7-1.9c0.5-0.1,0.9-0.3,1.2-0.7c0.1-0.3,0.2-0.7,0.2-1c0-1.3,0.4-2.6,1-3.8c0.7-1.1,2.1-2.3,3.4-2.2
	c-1-1.1-1.6-2.5-1.7-3.9c2.7,0.5,5.4,1.2,8,2.1c0.1-1,0.1-2,0-3.1c-0.1-1,0.2-2,0.9-2.7c1-0.7,2.3-0.2,3.4,0.3
	c-0.2-0.8,0.1-1.6,0.8-2.1c0.6-0.4,1.3-0.6,2.1-0.7c-0.7-0.7-0.8-1.8-0.5-2.7c0.4-0.7,0.9-1.3,1.5-1.8c0.6-0.6,0.8-1.5,0.5-2.4
	c-0.3-0.5-0.8-0.8-1-1.3c-0.4-0.9,0.4-1.8,0.8-2.6c0.9-1.8,0.3-4.3-0.8-5.9c-1.2-1.6-2.8-2.8-4.5-3.8c0.1-0.3,0.2-0.5,0.4-0.7
	l0.5,0.2h0.1l3.1,0.6l0,0l2.8,2c2,1.2,3.5,3.2,4.1,5.4c-0.6,2.4,1,5,1.3,7.6c0.2,1.9-0.3,3.8,0,5.8c0.2,1.1,0.5,2.1,0.9,3.2
	c1.3,4,0.9,8.3-1.1,12c-1,1.8-2.5,3.3-2.9,5.4c-0.5,3,1.3,6.1,1.2,9.2c0,1.2-0.4,2.5,0.1,3.7c0.4,0.9,1,1.7,1.8,2.3
	c2.3,2.3,4.4,5.3,4.2,8.4c-0.1,1.4-0.7,2.8-0.4,4.2s1.3,2.4,2.1,3.6s1.4,2.6,0.8,3.8c-0.3,0.6-0.9,1-1.3,1.6s-0.3,1.1-0.5,1.6
	c-0.9,2.4-4.8,2.5-5.8,4.9c-0.5,1.3-0.2,3-0.8,4.3c-0.2,0.9,0.2,1.8,1.1,2.1c0.8,0.3,1.6,0.6,2.5,0.8c2.6,0.9,4,3.7,4.6,6.2
	c0.1,1.1,0.6,2.1,1.3,2.9c1.2,1.1,3.5,1,4.4,2.3c0.3,0.4,0.4,0.9,0.7,1.2c1.1,1.2,3.5,0.3,4.8,1.4c0.4,0.4,0.6,1,1,1.4
	c0.6,0.4,1.3,0.8,2,1.1c0.9,0.7,1.5,1.8,1.6,2.9c1.4,5.2,2.1,7.7,3.3,12.7c0.2,0.5,0.2,1.1,0.2,1.6c-0.1,0.6-0.4,1.2-0.2,1.7
	s1.1,0.9,1.9,1c0-3.5-0.2-6.9-0.7-10.4c1,0.5,1.6,1.5,1.8,2.6c1,3.8,1.7,7.7,2,11.7C395.2,176.8,394.3,178.7,393.5,180.7z"/>
<path class="st0" d="M328.5,214.7l0.2,0.1c0,0,0,0.1,0,0.1L328.5,214.7z"/>
<path class="st0" d="M327.5,213c0.1-0.5,0.4-0.9,0.8-1.1c0.4-0.2,0.9-0.2,1.3,0c0.4,0.2,0.6,0.5,1,0.8c0.6,0.3,1.4,0.4,2.1,0.3
	c0.5-0.1,1.2-0.1,1.3,0.3s-0.3,0.6-0.6,0.9c-1.3,1.1-3.1,1.3-4.6,0.7c-0.2-0.3-0.4-0.6-0.8-0.7c-0.4,0-0.6-0.3-0.6-0.7
	C327.3,213.2,327.4,213,327.5,213L327.5,213z"/>
<path class="st0" d="M322.2,214.4c0.3-0.5,0.9-0.8,1.5-0.9c0.5,0,1.1,0.2,1.5,0.4c0,0.2,0,0.3-0.1,0.5c-0.2,0.5-0.8,0.9-1.4,0.8
	l0.1-0.1C323.4,214.6,322.8,214.4,322.2,214.4z"/>
<path class="st0" d="M261.6,199.1c1.2-0.5,1.2-2.4,1-3.9c2.6,0.3,3.9,0.4,6.5,0.7c0.5-0.4,0.3-1.2,0-1.8c-0.4-0.6-0.6-1.2-0.6-1.9
	c0.2-0.7,0.8-1.2,1.5-1.2c0.7,0.1,1.4,0.2,2.1,0.5c2.4,0.6,4.9-0.5,7.4-1c2-0.3,4.1-0.4,6.1-0.4c1.1,0.1,2.3-0.3,3.1-1.1
	c0.8-1,0.7-2.7,1.7-3.5c0.9-0.5,1.9-0.5,2.8-0.1c1.3,0.4,2.7,0.8,3.3,2c0.3,0.7,0.4,1.4,0.4,2.2c0,2,0,4.3-1.5,5.8
	c-0.6,0.6-1.3,0.9-1.9,1.5c-0.7,0.5-1.1,1.3-1,2.1c0.1,0.4,0.2,0.7,0.3,1.1c0,0.6-0.4,1-0.7,1.5c-0.8,1.7,0.8,3.5,2.4,4
	s3.5,0.4,4.9,1.3c0,0.1,0,0.2-0.1,0.3c-0.4,1.2-1.7,2-2.9,1.7l1.5,0.8c-1.9,0.7-3.8,0-5.6-0.1c-0.9,0.1-1.8,0.3-2.7,0.6
	c-1.1,0-2.3-0.1-3.4-0.5c-5.4-1.1-10.7-2.3-16-3.6c-2.7-0.6-5.4-1.4-8-2.5c-0.8-0.3-1.5-0.8-2-1.5c-0.5-0.7-0.5-1.8,0.1-2.5
	C260.7,199.3,261.2,199.3,261.6,199.1z"/>
<path class="st0" d="M245.8,64.2l2.7-4.3c0.7-1.2,1.5-2.3,2.4-3.3c0.7-0.7,1.4-1.2,2.2-1.7c0.9-0.6,1.9-0.9,3-1
	c1-0.1,1.9,0.4,2.3,1.3c0.1,0.9-0.1,1.7-0.7,2.4c-1.3,1.6-3.2,2.7-4.5,4.3c-1.1,1.3-1.6,2.3-3,3.2c-0.8,0.5-2.9,2.4-3.5,2.6
	C244,68.2,245.2,65.2,245.8,64.2z"/>
<path class="st0" d="M309.4,122.1c-0.9,3.6-1.3,5.4-2.1,9c-0.1,0.8-0.4,1.5-0.9,2.1c-0.5,0.5-1.1,0.9-1.8,1.1
	c-1.8,0.6-3.6,1.4-5.2,2.5c-1.4,1.2-2.6,2.5-3.7,4c-1.1,1.4-2.7,2.4-4.5,2.7c-0.8,0-1.6,0-2.4-0.2c-4.1-0.7-8.3-0.8-12.4-0.3
	c-0.6,0.1-1.2,0.1-1.9,0c-1.4-0.3-2.4-1.6-2.5-3c-0.1-1.2,0.6-2.4,0.4-3.5c-0.5-2.9-5.2-3-6.6-5.6c-0.2-0.5-0.5-1-0.9-1.3
	c-0.6-0.3-1.4-0.1-1.7,0.5c-0.3,0.6-0.5,1.3-0.5,1.9c-3-1.5-6.2-2.7-9.5-3.6c-1.1-0.2-2.3-0.6-3.3-1.2c-1.7-1.2-2.1-3.5-2.1-5.5
	l1.5,0.5c0-0.3,0-0.6-0.2-0.9c-2.1-4.9-3.8-10-4.9-15.2c-0.4-1.9-1.8-4.5-0.4-5.9c0.4-0.6,0.3-1.3-0.2-1.8c0,0,0,0-0.1,0
	c-0.6-0.4-1.3-0.6-2-0.6c-2.3-0.3-3.5-0.5-5.8-0.8c-0.4,0-0.9-0.2-1.2-0.4c-0.5-0.5-0.2-1.4,0.3-2c5.3-6.3,13.2-9.4,17.6-16.5
	c0.6-1.3,1.2-2.5,1.6-3.8c0.9-2.1,1.9-4.2,3.2-6.1c0.5-0.8,1.1-1.6,1.9-2.3c1.8-1.6,4.5-2.2,6-4.1c1.6-2.1,1.3-5.4,3.7-6.6
	c1.5-0.8,3.4-0.3,4.7-1.4c1-0.9,0.9-2.4,1.6-3.6c0.8-1.5,2.7-2.2,4.3-2.6c3.4-0.9,6.9-1,10.4-0.3c0.5,0.1,1.1,0.3,1.5,0.6
	c0.9,0.9,0.4,2.5,0.2,3.9c-0.4,3,1.2,5.7,0.9,8.7c-0.3,3.2-2.8,6.3-1.9,9.2c-1.7,1.8-3.5,3.6-4.1,5.9c-1.1,3.9,1.1,8-0.3,11.9
	c-0.4,1-1,1.9-1.4,2.9c-0.6,1.6-0.7,3.3-0.2,4.9c0.3,1.1,1.1,2,2.2,2.3c0.4,0,0.9,0.1,1.3,0.1c1,0.4,1.2,1.6,1.6,2.5
	c0.9,2,3.2,2.9,5.3,3.6c4.7,1.7,7.1,2.5,11.8,4.2c0.3,0.1,0.6,0.3,0.9,0.5c0.4,0.5,0.1,1.2-0.1,1.8c-0.4,1.5-0.4,3,0.2,4.4
	c0.6,1.4,1.6,2.5,1.9,4C309.9,119.8,309.8,121,309.4,122.1z"/>
<path class="st0" d="M284.4,147.1c-0.5,1.2-0.7,1.8-1.1,2.9c-0.1,0.6-0.5,1.2-1.1,1.5c-0.8,0.4-1.7-0.3-2.5-0.5
	c-1.3-0.3-2.7,0.2-3.4,1.4c-0.7,1.2-0.6,2.7,0.1,3.9c0.3,0.5,0.7,1.1,0.4,1.5c-0.2,0.2-0.6,0.3-0.9,0.3c-1.6,0-3.2-0.4-4.8-0.3
	c-1.6,0-3.2,0.8-4,2.2c-0.2,0.5-0.4,1-0.9,1.1c-0.2,0-0.5,0-0.7-0.1c-1.7-0.3-3.2,0.9-3.5,2.5c0,0,0,0.1,0,0.1
	c-0.8,0.3-1.7-0.4-2.3-1.1c-0.5-0.8-1.1-1.6-1.8-2.2c-1.5-0.9-3.2,0-4.8-0.5c-0.6-0.3-1.3-0.5-2-0.7c-0.7,0-1.2,0.6-1.8,0.9
	c-0.6,0.4-1.4,0.3-1.8-0.3c0,0,0,0,0,0l-0.2,3.1c-1.4-0.9-3.1-1.2-4.6-0.7c1.9,1.4,2.8,2.1,4.6,3.5c0.2,0.1,0.3,0.2,0.4,0.4
	c0.3,0.5-0.2,1-0.6,1.4c-0.9,0.9-1.3,2.6-0.3,3.6c0.7,0.5,1.7,0.6,2.5,0.3l3.9-0.9c0.2-0.7-0.5-1.4-0.9-2c-0.7-1-0.5-2.4,0.4-3.2
	c0.5-0.3,1.1-0.4,1.7-0.2c-0.4-0.8-0.4-1.7,0-2.5l2.5,0.6c0.3,0,0.6,0.2,0.8,0.4c0.2,0.3,0.1,0.7,0.1,1.1c0,0.9,0.6,1.8,1.4,2.2
	c0.8,0.4,1.7,0.5,2.5,0.5c0.4,0,0.8,0.1,1.1,0.4c0.2,0.2,0.3,0.4,0.3,0.7c0.1,1-0.4,2-1.1,2.6c-0.8,0.5-1.6,1-2.4,1.4
	c-2,1.1-3.6,2.7-4.7,4.7c-1.4,0.1-2.9,0.5-4.3,0.6c-2.3,0.4-4.6,0.1-6.6-0.9c-1.7-0.7-2.6-1-4.3-1.7c-1.3-0.5-2.6-1.1-3.7-2
	c-1.2-1-1.9-2.5-1.9-4c0-0.3,0.1-0.6,0.4-0.8c0.2-0.1,0.4,0,0.6,0.1c1.2,0.4,1.8,0.3,3,0.7c-0.5-1.2-1.4-2.2-2.5-3
	c-1.9-1-3.7,0.6-4.8,2.2c0-1.1-0.6-2-1.6-2.4c-0.5-0.1-1-0.1-1.4,0c-1.9,0.3-3.8,0.4-5.7,0.2l-0.2-0.4l-1.6-1.5l-1-1l-0.4-3.3
	l-0.5-4.4l-1.6-4.1l-1.2-3l0.1-3.5l0.1-4.2l-1-5.4l-0.4-2.1l0.2-7.6l0.4-2.6l0.9-4.9l1.2-7.4V111l1-3.7l0.4-0.3l-0.4-0.6l0,0h0.2
	c2.6-0.5,6.1-6.1,8.5-7.1s5.7-1.4,7.8,0.2c-1.3,2.6,1.6,5.5,1.5,8.4c0,1-0.4,1.9-0.3,2.9c0.1,1.4,1.1,2.6,1.8,3.9
	c1.8,3,2.3,6.6,1.4,10c-0.4,1.1-0.7,2.3-0.8,3.5c0,1.3,0.7,2.5,1.9,2.9c2.7,0.7,6.1,1.6,7,4.3c0.3,1,0.3,2.2-0.6,2.6
	c-0.7,0.2-1.4,0.1-2-0.3c-2.4-1-3.5-1.5-5.9-2.5c-1.4-0.6-2.9-1.2-4.2-0.9c-1.2,0.3-1.9,1.5-1.6,2.6c0.1,0.2,0.2,0.5,0.3,0.7
	c0.7,0.9,2.1,1.4,2.2,2.4c0,0.9-1,1.5-0.7,2.4c0.3,0.6,1,0.8,1.6,0.5c0.5-0.3,1-0.6,1.6-0.8c1-0.2,2.1,0.7,3,1.3s2.3,1.1,3,0.3
	s0-2.6,0.8-3.5c1-1.2,3.3,0.4,4.6-0.5c1.5-1.1,0-3.8,0.8-5.5c1.2-0.2,2.4,0.3,3.2,1.2c0.8,0.9,1.1,2.2,0.7,3.4
	c-0.3,0.8-0.9,1.5-0.8,2.4c0.2,0.7,0.6,1.3,1.1,1.8l5.1,5.1c0.8-0.9,0.4-2.3-0.3-3.4c-0.8-0.9-1.5-2-2-3.1c-0.5-1.6,0.5-3.3,2-3.7
	c0,0,0,0,0,0c0.2-0.1,0.4,0,0.6,0.1c0.1,0.2,0.2,0.4,0.3,0.6c0.4,3,1.4,6.1,3.5,8.3s5.8,2.9,8,1c0.5-0.5,1-1,1.4-1.5
	c2.6-2.6,6.8-3,10.4-1.9c0.4,0.1,0.7,0.3,0.9,0.5C284.9,145.5,284.7,146.5,284.4,147.1z"/>
<path class="st2" d="M348.8,243.2c-1-2.1-3.5-3.1-7.5-3c-0.8-0.1-1.5-0.4-2.2-0.8c-0.8-0.4-1.5-0.9-2.3-1.4
	c-3.8-1.3-7.5-2.4-10.9-3.3c-3.7-0.9-7.4-1.2-11.2-1.1c-3.1-0.2-6.1-0.7-9.1-1.6c-4.2-1.2-8.6-1.9-13-2.2c-4.9-0.4-9.7-0.6-14.6-0.9
	c-4.9-0.3-9.7-1.6-14-3.9c-1.4-0.5-2.9-0.6-4.3-0.3c-5.1,0-10.3-0.1-15.6-0.5c-5.3-0.4-10.7-0.5-16-0.2c-5,0.2-10.1,0.2-15.1,0.1
	c0-1.2,0-2.5,0-3.7c0.1-4-0.9-37.7-0.8-41.9c-0.1-2.4,0-4.7,0.1-7.1c0.2-2.5-0.1-5-0.7-7.5l0.1-0.3c0.6-1.9,1-3.9,1.2-5.9
	c0.2-2,0-4.1-0.6-6c0.2-1.4,0.3-2.8,0.4-4.3s0.1-3,0.2-4.7c2.2-9.3,1.5-73.7,0.2-83.2c-0.4-0.8-0.5-1.7-0.2-2.5
	c0.3-0.7,0.5-1.4,0.6-2.1c0.7-1.7,1.1-3.4,1.2-5.2c0.1-1.7,0.1-3.3,0.2-5c0.7-2.5,0.9-5.2,0.8-7.8c-0.2-2.6-0.3-5.3-0.2-7.9
	c0.1-3-0.7-5.9-2.4-8.3c-1.6-2.4-3.6-4.6-5.7-6.5c-2.9-2.7-6.2-4.8-9.8-6.2c-3.7-1.5-7-3.9-9.5-7c-0.6-0.9-1.8-1.2-2.8-0.6
	c0,0,0,0,0,0c-1,0.6-1.7,1.6-1.9,2.7c-0.2,1.4-0.4,2.8-0.8,4.1c-0.4,1.3-0.4,2.7-0.1,4.1l0.1,2.9l1,32.1c0.2-0.1,0.5-0.1,0.8-0.1
	c-0.1,5.5-0.2,10.8-0.3,16.1v0.6l0.1,8.9c-1,0.9-1.9,1.7-2.8,2.5c-1.8,1.7-3.6,3.5-5.5,5.3c-5.1,4.7-10,9.5-14.9,14.5
	c-4.8,5-3.3,4.1-8.7,8.5c-1.7,0.6-3.2,1.5-4.5,2.6c-1.2,1.1-2.5,2.2-3.9,3.3c-3.9,3.8-7.8,7.3-11.5,10.6c-3.7,3.4-15.7,10.3-19.2,11
	c-4.3-1.5-13.2-0.7-17.9,0.2c-4.5,0.8-9,1.2-13.6,1.2c-1,0.1-2,0.2-3.1,0.3c-1.5,0.3-2.9,1-4.1,2.1c2.7-0.1,5.2-0.2,7.4-0.1
	c2.2,0,4.4-0.1,6.6-0.3c-1.3,2.4-1.9,3.8-1.7,4.4s1.5,1.4,3.9,2.7c-0.6,1-1.4,1.9-2.2,2.7c-0.9,0.7-1,2-0.3,2.9c0,0,0,0,0,0
	c0.8,0.5,1.6,1,2.4,1.6c0.8,0.6,1.7,1,2.6,1.1c0.3,0.2,1.1,0.2,2.3-0.1l2.5,0.3c0.2,0.4-6.4,5.3-9.4,9.3s-16,18.1-19.7,22.7
	s-7.3,8.9-10.6,12.9s-5.3,6.3-5.7,6.9c-1,1.1-2.1,2.3-3.1,3.6c-1.1,1.2-2.2,2.4-3.4,3.5c-1.6,1.5-3,3.1-4.4,4.7s-2.7,3.3-4,5
	c-0.5,0.7-0.9,1.4-1.3,2.2c-0.4,0.9-0.4,1.3,0,1.1c0.9-0.2,1.7,0.2,2.3,0.9c0.5,0.7,1,1.3,1.6,1.9c0.5,0.6,1.1,1,1.8,1.4
	c0.6,0.4,1.6,0.2,3-0.5c2.1-1.9,4.5-3.5,7.1-4.9c2.4-1.2,4.8-2.3,7.3-3.3c2.2-0.8,5.9-3.5,11-8c5.1-4.5,10.5-9.5,16.2-15
	c5.6-5.4,10.9-10.6,15.9-15.6c4.9-5,19.4-20,21.2-21.7c4.8,0.1,9,2.2,13.7,2.4s9.3,2,14.1,3.3c7.2,2,25.4,7.1,33.5,8.6l0.5,50.1v2.3
	c0,0,0.6,8.4,1,12.6c0.5,5.1,0.9,10.1,1.1,15.1c0,0.1,0,0.1,0,0.2c0.2,2,0.5,3.9,0.8,5.8c0.4,1.9,0.8,3.9,1.3,5.8
	c0.9,3.4,1.5,6.9,1.9,10.5c0.1,0.6,0.1,1.3,0.2,1.9c0.4,4.2,0.8,8.4,1.4,12.7c0,1.1,0.1,2.1,0.3,3.1c0.2,1,0.3,2.1,0.3,3.1
	c-0.3,1.6-0.1,3.2,0.6,4.7c0.7,1.4,1.8,2.5,3.1,3.2c1,0.6,2.3,0.6,3.2-0.1c1.2-0.7,2.3-1.5,3.4-2.3c0.4,1,1.5,1.7,3.3,2
	c2.8,1,4.3,0,4.4-2.9c-0.8-2.1-0.8-4.3-0.1-6.5l-1.4-0.6c1-3.4,1.9-6.8,2.7-10.2c0.6-2.7,1-5.5,1-8.3c0-0.8,0-1.6,0-2.3
	c0-0.4,0-0.7,0-1l0,0c0-0.9-0.1-1.8-0.1-2.6h0.1v-15.2c9.9,0.3,19.9,0.6,29.9,1c10.9,1.2,21.8,1.8,32.8,1.9c11,0.1,21.8,0.1,32.7,0
	c2.3,0,4.5-0.1,6.6-0.3c2.2-0.2,4.4-0.7,6.5-1.5c2.2-0.5,4.4-0.9,6.5-1.2s4.3-0.6,6.5-0.9c0.5-0.2,1.1-0.2,1.7-0.2
	C341.6,250.2,349.8,245.3,348.8,243.2z M171.6,140.5c-4-1-15-4.1-18.8-4.1c-2.2,0.2-3.7-0.1-4.6-0.8s6.6-5.2,8.7-8.1
	c7.5-6.9,9.7-8.7,17.4-15.5c3.4-3,6.8-6,10.2-9l0.4,40.6C179.7,142.2,173.3,140.3,171.6,140.5z"/>
</svg>
