<svg width="50" height="50" viewBox="0 0 50 50" fill="none" xmlns="http://www.w3.org/2000/svg">
<circle cx="25.0385" cy="25.0385" r="24.0385" fill="white"/>
<path d="M16.2724 23.6872C16.2724 24.1795 16.3256 24.5786 16.4187 24.8713C16.5252 25.1639 16.6582 25.4832 16.8444 25.8291C16.911 25.9355 16.9376 26.042 16.9376 26.1351C16.9376 26.2681 16.8577 26.4012 16.6848 26.5342L15.8467 27.093C15.7269 27.1728 15.6072 27.2127 15.5008 27.2127C15.3677 27.2127 15.2347 27.1462 15.1017 27.0264C14.9154 26.8269 14.7558 26.614 14.6227 26.4012C14.4897 26.175 14.3567 25.9222 14.2103 25.6163C13.1727 26.8402 11.8689 27.4521 10.2991 27.4521C9.18158 27.4521 8.29024 27.1329 7.63836 26.4943C6.98649 25.8557 6.6539 25.0043 6.6539 23.94C6.6539 22.8092 7.05301 21.8913 7.86453 21.1995C8.67604 20.5077 9.75363 20.1618 11.1239 20.1618C11.5762 20.1618 12.0418 20.2017 12.5341 20.2682C13.0263 20.3347 13.5319 20.4412 14.064 20.5609V19.5897C14.064 18.5787 13.8511 17.8736 13.4387 17.4612C13.013 17.0488 12.2946 16.8492 11.2702 16.8492C10.8046 16.8492 10.3257 16.9024 9.83346 17.0221C9.34122 17.1419 8.86229 17.2882 8.39667 17.4745C8.18381 17.5676 8.02417 17.6208 7.93104 17.6474C7.83792 17.674 7.7714 17.6873 7.71819 17.6873C7.53194 17.6873 7.43881 17.5543 7.43881 17.2749V16.623C7.43881 16.4102 7.46542 16.2505 7.53194 16.1574C7.59845 16.0643 7.71819 15.9712 7.90444 15.878C8.37006 15.6386 8.92881 15.439 9.58069 15.2794C10.2326 15.1064 10.9243 15.0266 11.656 15.0266C13.2392 15.0266 14.3966 15.3858 15.1416 16.1042C15.8733 16.8226 16.2458 17.9135 16.2458 19.3769V23.6872H16.2724ZM10.8711 25.7094C11.3102 25.7094 11.7625 25.6296 12.2414 25.4699C12.7203 25.3103 13.146 25.0176 13.5052 24.6185C13.7181 24.3657 13.8777 24.0863 13.9576 23.7671C14.0374 23.4478 14.0906 23.062 14.0906 22.6096V22.0509C13.7048 21.9578 13.2924 21.878 12.8667 21.8247C12.441 21.7715 12.0285 21.7449 11.6161 21.7449C10.7248 21.7449 10.0729 21.9179 9.6339 22.2771C9.19488 22.6363 8.98203 23.1418 8.98203 23.807C8.98203 24.4322 9.14167 24.8979 9.47426 25.2171C9.79354 25.5497 10.2592 25.7094 10.8711 25.7094ZM21.5539 27.1462C21.3144 27.1462 21.1548 27.1063 21.0484 27.0131C20.9419 26.9333 20.8488 26.7471 20.769 26.4943L17.6427 16.2106C17.5628 15.9446 17.5229 15.7716 17.5229 15.6785C17.5229 15.4656 17.6294 15.3459 17.8422 15.3459H19.146C19.3987 15.3459 19.5717 15.3858 19.6648 15.4789C19.7712 15.5588 19.851 15.745 19.9309 15.9978L22.1659 24.8047L24.2412 15.9978C24.3077 15.7317 24.3876 15.5588 24.494 15.4789C24.6004 15.3991 24.7867 15.3459 25.0261 15.3459H26.0904C26.3432 15.3459 26.5161 15.3858 26.6226 15.4789C26.729 15.5588 26.8221 15.745 26.8753 15.9978L28.9773 24.9112L31.2788 15.9978C31.3586 15.7317 31.4518 15.5588 31.5449 15.4789C31.6513 15.3991 31.8243 15.3459 32.0637 15.3459H33.301C33.5138 15.3459 33.6336 15.4523 33.6336 15.6785C33.6336 15.745 33.6203 15.8115 33.6069 15.8913C33.5936 15.9712 33.567 16.0776 33.5138 16.2239L30.3077 26.5076C30.2278 26.7737 30.1347 26.9466 30.0283 27.0264C29.9219 27.1063 29.7489 27.1595 29.5227 27.1595H28.3786C28.1259 27.1595 27.9529 27.1196 27.8465 27.0264C27.7401 26.9333 27.6469 26.7604 27.5937 26.4943L25.5317 17.9135L23.4829 26.481C23.4164 26.7471 23.3366 26.92 23.2302 27.0131C23.1237 27.1063 22.9375 27.1462 22.698 27.1462H21.5539ZM38.649 27.5054C37.9572 27.5054 37.2654 27.4255 36.6003 27.2659C35.9351 27.1063 35.4162 26.9333 35.0703 26.7338C34.8575 26.614 34.7111 26.481 34.6579 26.3613C34.6047 26.2415 34.5781 26.1085 34.5781 25.9888V25.3103C34.5781 25.0309 34.6845 24.8979 34.8841 24.8979C34.9639 24.8979 35.0437 24.9112 35.1236 24.9378C35.2034 24.9644 35.3231 25.0176 35.4561 25.0708C35.9085 25.2704 36.4007 25.43 36.9195 25.5364C37.4517 25.6429 37.9705 25.6961 38.5027 25.6961C39.3408 25.6961 39.9927 25.5497 40.445 25.2571C40.8973 24.9644 41.1368 24.5387 41.1368 23.9932C41.1368 23.6207 41.017 23.3147 40.7776 23.062C40.5381 22.8092 40.0858 22.583 39.4339 22.3702L37.5049 21.7715C36.5337 21.4655 35.8153 21.0132 35.3763 20.4146C34.9373 19.8292 34.7111 19.1773 34.7111 18.4855C34.7111 17.9268 34.8309 17.4346 35.0703 17.0088C35.3098 16.5831 35.6291 16.2106 36.0282 15.9179C36.4273 15.612 36.8796 15.3858 37.4118 15.2262C37.9439 15.0665 38.5027 15 39.088 15C39.3807 15 39.6867 15.0133 39.9794 15.0532C40.2853 15.0931 40.5647 15.1463 40.8441 15.1996C41.1102 15.2661 41.3629 15.3326 41.6024 15.4124C41.8419 15.4922 42.0281 15.5721 42.1611 15.6519C42.3474 15.7583 42.4804 15.8647 42.5603 15.9845C42.6401 16.0909 42.68 16.2372 42.68 16.4235V17.0488C42.68 17.3281 42.5736 17.4745 42.374 17.4745C42.2676 17.4745 42.0946 17.4213 41.8685 17.3148C41.1102 16.9689 40.2587 16.796 39.3142 16.796C38.5559 16.796 37.9572 16.9157 37.5448 17.1685C37.1324 17.4213 36.9195 17.8071 36.9195 18.3525C36.9195 18.725 37.0526 19.0443 37.3186 19.2971C37.5847 19.5498 38.077 19.8026 38.782 20.0288L40.6711 20.6274C41.629 20.9334 42.3208 21.3591 42.7332 21.9046C43.1456 22.45 43.3452 23.0753 43.3452 23.7671C43.3452 24.3391 43.2254 24.858 42.9993 25.3103C42.7598 25.7626 42.4405 26.1617 42.0281 26.481C41.6157 26.8136 41.1235 27.053 40.5514 27.226C39.9528 27.4122 39.3275 27.5054 38.649 27.5054Z" fill="#252F3E"/>
<path fill-rule="evenodd" clip-rule="evenodd" d="M41.1634 33.9709C36.7865 37.2037 30.4274 38.9198 24.9596 38.9198C17.2968 38.9198 10.3922 36.0862 5.17721 31.3767C4.7648 31.0042 5.1373 30.4987 5.62953 30.7913C11.2702 34.064 18.228 36.0462 25.4253 36.0462C30.2811 36.0462 35.6158 35.0352 40.5248 32.9598C41.2565 32.6272 41.8818 33.4387 41.1634 33.9709Z" fill="#FF9900"/>
<path fill-rule="evenodd" clip-rule="evenodd" d="M42.986 31.8956C42.4272 31.1772 39.2876 31.5497 37.8641 31.7226C37.4384 31.7758 37.3719 31.4033 37.7577 31.1239C40.2587 29.3679 44.3695 29.8734 44.8485 30.4588C45.3274 31.0574 44.7154 35.1682 42.374 37.1372C42.0148 37.4431 41.6689 37.2835 41.8286 36.8844C42.3607 35.5673 43.5447 32.6006 42.986 31.8956Z" fill="#FF9900"/>
</svg>
