<svg width="247" height="55" viewBox="0 0 247 55" fill="none" xmlns="http://www.w3.org/2000/svg">
<path d="M17.064 26.24C17.688 26.432 18.224 26.856 18.672 27.512C19.12 28.152 19.344 28.888 19.344 29.72C19.344 31.496 18.768 32.824 17.616 33.704C16.464 34.568 14.784 35 12.576 35H2.688C2.512 35 2.36 34.936 2.232 34.808C2.104 34.68 2.04 34.528 2.04 34.352V18.848C2.04 18.672 2.104 18.52 2.232 18.392C2.36 18.264 2.512 18.2 2.688 18.2H12.336C14.608 18.2 16.28 18.616 17.352 19.448C18.44 20.264 18.984 21.504 18.984 23.168V23.24C18.984 24.008 18.776 24.664 18.36 25.208C17.944 25.752 17.512 26.096 17.064 26.24ZM12.48 23.384C12.48 23.096 12.392 22.848 12.216 22.64C12.056 22.432 11.816 22.328 11.496 22.328H8.28V24.512H11.496C11.816 24.512 12.056 24.4 12.216 24.176C12.392 23.936 12.48 23.672 12.48 23.384ZM11.76 30.872C12.128 30.872 12.4 30.752 12.576 30.512C12.768 30.256 12.864 29.976 12.864 29.672V29.648C12.864 29.344 12.76 29.08 12.552 28.856C12.36 28.632 12.096 28.52 11.76 28.52H8.28V30.872H11.76ZM38.3666 30.32C38.5426 30.32 38.6946 30.384 38.8226 30.512C38.9506 30.64 39.0146 30.792 39.0146 30.968V34.352C39.0146 34.528 38.9506 34.68 38.8226 34.808C38.6946 34.936 38.5426 35 38.3666 35H23.1986C23.0226 35 22.8706 34.936 22.7426 34.808C22.6146 34.68 22.5506 34.528 22.5506 34.352V18.848C22.5506 18.672 22.6146 18.52 22.7426 18.392C22.8706 18.264 23.0226 18.2 23.1986 18.2H38.1266C38.3026 18.2 38.4546 18.264 38.5826 18.392C38.7106 18.52 38.7746 18.672 38.7746 18.848V22.232C38.7746 22.408 38.7106 22.56 38.5826 22.688C38.4546 22.816 38.3026 22.88 38.1266 22.88H28.7906V24.392H36.8066C36.9826 24.392 37.1346 24.456 37.2626 24.584C37.3906 24.712 37.4546 24.864 37.4546 25.04V28.16C37.4546 28.336 37.3906 28.488 37.2626 28.616C37.1346 28.744 36.9826 28.808 36.8066 28.808H28.7906V30.32H38.3666ZM47.5253 34.184C47.3173 34.728 46.9573 35 46.4453 35H41.9093C41.7653 35 41.6373 34.952 41.5253 34.856C41.4293 34.744 41.3813 34.616 41.3813 34.472L41.4053 34.328L46.6373 18.992C46.7013 18.784 46.8213 18.6 46.9973 18.44C47.1733 18.28 47.4133 18.2 47.7173 18.2H54.3893C54.6933 18.2 54.9333 18.28 55.1093 18.44C55.2853 18.6 55.4053 18.784 55.4693 18.992L60.7013 34.328L60.7253 34.472C60.7253 34.616 60.6693 34.744 60.5573 34.856C60.4613 34.952 60.3413 35 60.1973 35H55.6613C55.1493 35 54.7893 34.728 54.5813 34.184L53.9813 32.504H48.1253L47.5253 34.184ZM51.0533 22.832L49.3493 27.824H52.7573L51.0533 22.832ZM79.6519 18.2C79.8279 18.2 79.9799 18.264 80.1079 18.392C80.2359 18.52 80.2999 18.672 80.2999 18.848V22.712C80.2999 22.888 80.2359 23.04 80.1079 23.168C79.9799 23.296 79.8279 23.36 79.6519 23.36H74.4919V34.352C74.4919 34.528 74.4279 34.68 74.2999 34.808C74.1719 34.936 74.0199 35 73.8439 35H68.8999C68.7239 35 68.5719 34.936 68.4439 34.808C68.3159 34.68 68.2519 34.528 68.2519 34.352V23.36H63.0919C62.9159 23.36 62.7639 23.296 62.6359 23.168C62.5079 23.04 62.4439 22.888 62.4439 22.712V18.848C62.4439 18.672 62.5079 18.52 62.6359 18.392C62.7639 18.264 62.9159 18.2 63.0919 18.2H79.6519ZM94.9065 18.848C95.1465 18.416 95.4905 18.2 95.9385 18.2H100.331C100.507 18.2 100.659 18.264 100.787 18.392C100.915 18.52 100.979 18.672 100.979 18.848V34.352C100.979 34.528 100.915 34.68 100.787 34.808C100.659 34.936 100.507 35 100.331 35H95.9865C95.8105 35 95.6585 34.936 95.5305 34.808C95.4025 34.68 95.3385 34.528 95.3385 34.352V26.912L93.5865 30.368C93.5385 30.48 93.4265 30.608 93.2505 30.752C93.0745 30.896 92.8505 30.968 92.5785 30.968H90.9465C90.6745 30.968 90.4505 30.896 90.2745 30.752C90.0985 30.608 89.9865 30.48 89.9385 30.368L88.1865 26.912V34.352C88.1865 34.528 88.1225 34.68 87.9945 34.808C87.8665 34.936 87.7145 35 87.5385 35H83.1945C83.0185 35 82.8665 34.936 82.7385 34.808C82.6105 34.68 82.5465 34.528 82.5465 34.352V18.848C82.5465 18.672 82.6105 18.52 82.7385 18.392C82.8665 18.264 83.0185 18.2 83.1945 18.2H87.5865C88.0345 18.2 88.3785 18.416 88.6185 18.848L91.7625 24.608L94.9065 18.848ZM108.697 34.184C108.489 34.728 108.129 35 107.617 35H103.081C102.937 35 102.809 34.952 102.697 34.856C102.601 34.744 102.553 34.616 102.553 34.472L102.577 34.328L107.809 18.992C107.873 18.784 107.993 18.6 108.169 18.44C108.345 18.28 108.585 18.2 108.889 18.2H115.561C115.865 18.2 116.105 18.28 116.281 18.44C116.457 18.6 116.577 18.784 116.641 18.992L121.873 34.328L121.897 34.472C121.897 34.616 121.841 34.744 121.729 34.856C121.633 34.952 121.513 35 121.369 35H116.833C116.321 35 115.961 34.728 115.753 34.184L115.153 32.504H109.297L108.697 34.184ZM112.225 22.832L110.521 27.824H113.929L112.225 22.832ZM142.456 34.16C142.52 34.256 142.552 34.36 142.552 34.472C142.552 34.616 142.496 34.744 142.384 34.856C142.288 34.952 142.168 35 142.024 35H135.832C135.464 35 135.176 34.872 134.968 34.616L130.792 29.456V34.352C130.792 34.528 130.728 34.68 130.6 34.808C130.472 34.936 130.32 35 130.144 35H125.2C125.024 35 124.872 34.936 124.744 34.808C124.616 34.68 124.552 34.528 124.552 34.352V18.848C124.552 18.672 124.616 18.52 124.744 18.392C124.872 18.264 125.024 18.2 125.2 18.2H130.144C130.32 18.2 130.472 18.264 130.6 18.392C130.728 18.52 130.792 18.672 130.792 18.848V23.36L134.584 18.608C134.824 18.336 135.12 18.2 135.472 18.2H141.256C141.4 18.2 141.52 18.256 141.616 18.368C141.728 18.464 141.784 18.584 141.784 18.728C141.784 18.856 141.744 18.968 141.664 19.064L135.976 26L142.456 34.16ZM160.71 30.32C160.886 30.32 161.038 30.384 161.166 30.512C161.294 30.64 161.358 30.792 161.358 30.968V34.352C161.358 34.528 161.294 34.68 161.166 34.808C161.038 34.936 160.886 35 160.71 35H145.542C145.366 35 145.214 34.936 145.086 34.808C144.958 34.68 144.894 34.528 144.894 34.352V18.848C144.894 18.672 144.958 18.52 145.086 18.392C145.214 18.264 145.366 18.2 145.542 18.2H160.47C160.646 18.2 160.798 18.264 160.926 18.392C161.054 18.52 161.118 18.672 161.118 18.848V22.232C161.118 22.408 161.054 22.56 160.926 22.688C160.798 22.816 160.646 22.88 160.47 22.88H151.134V24.392H159.15C159.326 24.392 159.478 24.456 159.606 24.584C159.734 24.712 159.798 24.864 159.798 25.04V28.16C159.798 28.336 159.734 28.488 159.606 28.616C159.478 28.744 159.326 28.808 159.15 28.808H151.134V30.32H160.71ZM182.853 34.256C182.885 34.32 182.901 34.392 182.901 34.472C182.901 34.616 182.845 34.744 182.733 34.856C182.637 34.952 182.517 35 182.373 35H176.925C176.701 35 176.493 34.944 176.301 34.832C176.125 34.72 175.997 34.576 175.917 34.4L173.805 29.648H171.789V34.352C171.789 34.528 171.725 34.68 171.597 34.808C171.469 34.936 171.317 35 171.141 35H165.957C165.781 35 165.629 34.936 165.501 34.808C165.373 34.68 165.309 34.528 165.309 34.352V18.848C165.309 18.672 165.373 18.52 165.501 18.392C165.629 18.264 165.781 18.2 165.957 18.2H175.293C176.733 18.2 177.989 18.432 179.061 18.896C180.149 19.36 180.981 20.032 181.557 20.912C182.133 21.792 182.421 22.824 182.421 24.008C182.421 26.184 181.581 27.76 179.901 28.736L182.853 34.256ZM174.789 25.208C175.141 25.208 175.413 25.096 175.605 24.872C175.797 24.632 175.893 24.336 175.893 23.984C175.893 23.632 175.797 23.328 175.605 23.072C175.429 22.8 175.157 22.664 174.789 22.664H171.789V25.208H174.789Z" fill="#E8E8E8"/>
<rect x="192" width="25" height="25" fill="#F54287"/>
<rect x="222" width="25" height="25" fill="#00FFFF"/>
<rect x="192" y="30" width="25" height="25" fill="#F54287"/>
<rect x="222" y="30" width="25" height="25" fill="#F54287"/>
</svg>
