<svg width="50" height="50" viewBox="0 0 50 50" fill="none" xmlns="http://www.w3.org/2000/svg">
<path fill-rule="evenodd" clip-rule="evenodd" d="M40.9672 29.492C41.9852 28.337 42.4949 27.1164 42.5751 26.1968C42.7276 24.4498 44.2674 23.1571 46.0145 23.3095C47.7616 23.462 49.0543 25.0019 48.9018 26.7489C48.6784 29.309 47.4334 31.7603 45.7316 33.6911C44.0124 35.6418 41.6517 37.2653 38.9013 38.0154C36.1004 38.7793 32.9612 38.6127 29.8999 37.0461C26.8778 35.4995 24.1569 32.708 21.8746 28.602C17.7317 21.1483 13.7948 20.0248 11.7375 20.3005C9.50022 20.6004 7.49775 22.7204 7.25161 25.5411C7.09915 27.2881 5.55928 28.5808 3.8122 28.4284C2.06512 28.2759 0.772423 26.736 0.924879 24.989C1.38578 19.7073 5.23949 14.7638 10.894 14.006C16.7285 13.2242 22.7191 17.049 27.4256 25.5166C29.2757 28.8453 31.1812 30.5677 32.7931 31.3926C34.3657 32.1974 35.8683 32.2599 37.2304 31.8884C38.6431 31.5031 39.9669 30.627 40.9672 29.492Z" fill="url(#paint0_linear_1_2)"/>
<path fill-rule="evenodd" clip-rule="evenodd" d="M37.4596 19.4735C40.4105 19.9986 42.6969 22.4024 42.6086 25.8821C42.5641 27.6353 43.9493 29.0925 45.7024 29.137C47.4556 29.1815 48.9128 27.7963 48.9573 26.0432C49.1304 19.2225 44.4097 14.2597 38.5722 13.221C32.6153 12.161 26.0755 15.174 22.101 22.6502C17.9309 30.4941 13.4754 31.1601 11.1614 30.4985C8.39323 29.7071 6.74744 26.8637 7.49055 24.2627C7.97232 22.5764 6.9959 20.8189 5.30966 20.3372C3.62341 19.8554 1.86589 20.8318 1.38412 22.518C-0.412995 28.8081 3.60162 34.9424 9.4156 36.6046C15.6837 38.3967 22.732 34.9923 27.7085 25.6313C30.5981 20.1959 34.6281 18.9697 37.4596 19.4735Z" fill="url(#paint1_linear_1_2)"/>
<path fill-rule="evenodd" clip-rule="evenodd" d="M3.81216 28.4284C2.06509 28.2759 0.77239 26.736 0.924846 24.989C1.26712 21.0666 3.43446 17.4275 6.78514 15.4391C10.2769 13.367 14.73 13.2786 19.0154 15.9257C20.5075 16.8474 20.9699 18.804 20.0482 20.296C19.1266 21.7881 17.1699 22.2505 15.6779 21.3288C13.2801 19.8477 11.3632 20.1072 10.0261 20.9006C8.54803 21.7778 7.42779 23.5217 7.25157 25.5411C7.09912 27.2881 5.55924 28.5808 3.81216 28.4284Z" fill="url(#paint2_linear_1_2)"/>
<path fill-rule="evenodd" clip-rule="evenodd" d="M39.0114 31.1218C41.1714 29.8324 42.4435 27.7048 42.5751 26.1968C42.7276 24.4498 44.2674 23.1571 46.0145 23.3095C47.7616 23.462 49.0543 25.0019 48.9018 26.7489C48.5589 30.6787 45.8128 34.458 42.2666 36.5749C38.545 38.7965 33.5518 39.421 28.7797 36.4067C27.297 35.4701 26.8543 33.5089 27.7908 32.0262C28.7274 30.5435 30.6886 30.1008 32.1713 31.0373C34.6258 32.5877 37.0268 32.3065 39.0114 31.1218Z" fill="url(#paint3_linear_1_2)"/>
<defs>
<linearGradient id="paint0_linear_1_2" x1="31.9129" y1="35.1476" x2="16.2938" y2="16.8911" gradientUnits="userSpaceOnUse">
<stop stop-color="#089271"/>
<stop offset="1" stop-color="#36DAB3"/>
</linearGradient>
<linearGradient id="paint1_linear_1_2" x1="37.0213" y1="16.7874" x2="14.2809" y2="32.6528" gradientUnits="userSpaceOnUse">
<stop stop-color="#303030"/>
<stop offset="1" stop-color="#555454"/>
</linearGradient>
<linearGradient id="paint2_linear_1_2" x1="31.9129" y1="35.1476" x2="16.2938" y2="16.8911" gradientUnits="userSpaceOnUse">
<stop stop-color="#089271"/>
<stop offset="1" stop-color="#36DAB3"/>
</linearGradient>
<linearGradient id="paint3_linear_1_2" x1="31.9129" y1="35.1476" x2="16.2938" y2="16.8911" gradientUnits="userSpaceOnUse">
<stop stop-color="#089271"/>
<stop offset="1" stop-color="#36DAB3"/>
</linearGradient>
</defs>
</svg>
