<svg width="50" height="50" viewBox="0 0 50 50" fill="none" xmlns="http://www.w3.org/2000/svg">
<path d="M49.5562 19.1897C49.4341 19.0928 48.2948 18.2325 45.8921 18.2325C45.2577 18.2353 44.6246 18.2897 43.9989 18.3953C43.5339 15.2079 40.8987 13.6538 40.7805 13.5841L40.1353 13.212L39.711 13.8244C39.1796 14.6469 38.7916 15.5537 38.5639 16.5061C38.1337 18.3256 38.3953 20.0345 39.3196 21.4955C38.2035 22.1175 36.4131 22.2706 36.0508 22.2841H6.40862C5.63437 22.2852 5.00611 22.9109 5.00189 23.6851C4.96732 26.2819 5.40728 28.8632 6.30011 31.3019C7.32123 33.9798 8.84037 35.9523 10.8168 37.1595C13.0315 38.5158 16.6297 39.2909 20.7085 39.2909C22.5511 39.2967 24.3902 39.1299 26.2018 38.7929C28.72 38.3305 31.1432 37.4504 33.371 36.1887C35.2068 35.1256 36.8589 33.7732 38.2636 32.1836C40.6121 29.5251 42.0111 26.5643 43.0516 23.9331H43.4662C46.0375 23.9331 47.6186 22.9041 48.4906 22.0419C49.07 21.492 49.5224 20.8221 49.8159 20.0791L50 19.5405L49.5562 19.1897Z" fill="#2491E6"/>
<path d="M9.1562 21.4162H13.1284C13.32 21.4162 13.4752 21.2609 13.4752 21.0693V17.5311C13.4763 17.3396 13.3218 17.1834 13.1303 17.1824C13.1297 17.1824 13.129 17.1824 13.1284 17.1824H9.1562C8.96463 17.1824 8.80939 17.3377 8.80939 17.5292V17.5311V21.0693C8.80939 21.2609 8.96463 21.4162 9.1562 21.4162Z" fill="#2491E6"/>
<path d="M14.6301 21.4162H18.6023C18.7938 21.4162 18.9491 21.2609 18.9491 21.0693V17.5311C18.9501 17.3396 18.7957 17.1834 18.6042 17.1824C18.6035 17.1824 18.6028 17.1824 18.6022 17.1824H14.63C14.4374 17.1824 14.2812 17.3385 14.2812 17.5311V21.0693C14.2824 21.2612 14.4382 21.4162 14.6301 21.4162Z" fill="#2491E6"/>
<path d="M20.1872 21.4162H24.1594C24.351 21.4162 24.5062 21.2609 24.5062 21.0693V17.5311C24.5073 17.3396 24.3529 17.1834 24.1613 17.1824C24.1607 17.1824 24.16 17.1824 24.1593 17.1824H20.1871C19.9956 17.1824 19.8403 17.3377 19.8403 17.5292V17.5311V21.0693C19.8404 21.2609 19.9957 21.4162 20.1872 21.4162Z" fill="#2491E6"/>
<path d="M25.6785 21.4162H29.6507C29.8426 21.4162 29.9984 21.2612 29.9995 21.0693V17.5311C29.9995 17.3385 29.8434 17.1824 29.6507 17.1824H25.6785C25.487 17.1824 25.3317 17.3377 25.3317 17.5292V17.5311V21.0693C25.3317 21.2609 25.487 21.4162 25.6785 21.4162Z" fill="#2491E6"/>
<path d="M14.6301 16.3259H18.6023C18.7941 16.3248 18.9491 16.1689 18.9491 15.9771V12.439C18.9491 12.2474 18.7938 12.0922 18.6023 12.0922H14.6301C14.4383 12.0922 14.2824 12.2471 14.2813 12.439V15.9771C14.2824 16.1693 14.4379 16.3248 14.6301 16.3259Z" fill="#2491E6"/>
<path d="M20.1872 16.3259H24.1594C24.3512 16.3248 24.5062 16.1689 24.5062 15.9771V12.439C24.5062 12.2474 24.3509 12.0922 24.1594 12.0922H20.1872C19.9956 12.0922 19.8404 12.2475 19.8404 12.439V15.9771C19.8404 16.1689 19.9954 16.3248 20.1872 16.3259Z" fill="#2491E6"/>
<path d="M25.6785 16.3259H29.6507C29.8429 16.3248 29.9984 16.1693 29.9995 15.9771V12.439C29.9984 12.2471 29.8426 12.0922 29.6507 12.0922H25.6785C25.487 12.0922 25.3317 12.2475 25.3317 12.439V15.9771C25.3317 16.1689 25.4867 16.3248 25.6785 16.3259Z" fill="#2491E6"/>
<path d="M25.6785 11.2338H29.6507C29.8426 11.2338 29.9984 11.0788 29.9995 10.887V7.34682C29.9984 7.15492 29.8426 7 29.6507 7H25.6785C25.487 7 25.3317 7.15524 25.3317 7.34682V10.8869C25.3317 11.0785 25.487 11.2338 25.6785 11.2338Z" fill="#2491E6"/>
<path d="M31.2183 21.4162H35.1905C35.3823 21.4162 35.5382 21.2612 35.5392 21.0693V17.5311C35.5392 17.3385 35.3831 17.1824 35.1905 17.1824H31.2183C31.0268 17.1824 30.8715 17.3377 30.8715 17.5292V17.5311V21.0693C30.8715 21.2609 31.0268 21.4162 31.2183 21.4162Z" fill="#2491E6"/>
</svg>
