<svg width="50" height="50" viewBox="0 0 50 50" fill="none" xmlns="http://www.w3.org/2000/svg">
<path d="M25.9854 5.01366L38.3797 5L17.5854 25.7837L12.1661 31.1727L6 24.9991L25.9854 5.01366ZM25.8701 23.571C26.031 23.3585 26.3269 23.4632 26.5515 23.4359L38.3691 23.439L27.5987 34.1988L21.4007 28.0388L25.8701 23.571Z" fill="#44D1FD"/>
<path d="M15.2225 34.2095L21.4007 28.0388L27.5987 34.1988L27.6244 34.2261L21.4023 40.3907L15.2225 34.2095Z" fill="#1FBCFD"/>
<path d="M21.4023 40.3907L27.6244 34.2262L38.3737 44.986C34.3247 44.9951 30.2772 44.983 26.2298 44.992C25.9991 45.0436 25.8564 44.8328 25.7092 44.7022L21.4023 40.3907Z" fill="#08589C"/>
</svg>
