<svg width="50" height="50" viewBox="0 0 50 50" fill="none" xmlns="http://www.w3.org/2000/svg">
<path d="M5.21553 37.048L7.05103 38.1078L27.4992 2.69157L25.6637 1.63182L5.21553 37.048Z" fill="#E535AB"/>
<path d="M45.6915 34.2186H4.7952V36.3381H45.6915V34.2186Z" fill="#E535AB"/>
<path d="M5.60445 35.4093L26.0603 47.2198L27.12 45.3844L6.6642 33.5738L5.60445 35.4093Z" fill="#E535AB"/>
<path d="M23.3744 4.62802L43.8302 16.4385L44.89 14.603L24.4342 2.79252L23.3744 4.62802Z" fill="#E535AB"/>
<path d="M5.61011 14.595L6.66986 16.4305L27.1257 4.61996L26.0659 2.78446L5.61011 14.595Z" fill="#E535AB"/>
<path d="M23.0049 2.69194L43.4531 38.1082L45.2886 37.0484L24.8404 1.63218L23.0049 2.69194Z" fill="#E535AB"/>
<path d="M8.53626 13.1895H6.41675V36.8105H8.53626V13.1895Z" fill="#E535AB"/>
<path d="M44.0828 13.1895H41.9633V36.8105H44.0828V13.1895Z" fill="#E535AB"/>
<path d="M24.7737 44.7194L25.6994 46.3227L43.4905 36.0507L42.5648 34.4474L24.7737 44.7194Z" fill="#E535AB"/>
<path d="M46.8917 37.5C45.666 39.6323 42.9336 40.36 40.8013 39.1343C38.6691 37.9086 37.9413 35.1762 39.167 33.0439C40.3928 30.9116 43.1251 30.1838 45.2574 31.4096C47.4025 32.6481 48.1303 35.3677 46.8917 37.5Z" fill="#E535AB"/>
<path d="M11.3197 16.9561C10.094 19.0884 7.3616 19.8162 5.22932 18.5904C3.09705 17.3647 2.36926 14.6323 3.595 12.5C4.82074 10.3677 7.55312 9.63995 9.6854 10.8657C11.8177 12.1042 12.5455 14.8238 11.3197 16.9561Z" fill="#E535AB"/>
<path d="M3.60776 37.5C2.38202 35.3677 3.1098 32.6481 5.24208 31.4096C7.37436 30.1838 10.094 30.9116 11.3325 33.0439C12.5582 35.1762 11.8304 37.8958 9.69816 39.1343C7.55311 40.36 4.8335 39.6323 3.60776 37.5Z" fill="#E535AB"/>
<path d="M39.1798 16.9561C37.954 14.8238 38.6818 12.1042 40.8141 10.8657C42.9464 9.63995 45.666 10.3677 46.9045 12.5C48.1302 14.6323 47.4025 17.3519 45.2702 18.5904C43.1379 19.8162 40.4055 19.0884 39.1798 16.9561Z" fill="#E535AB"/>
<path d="M25.2497 50C22.7855 50 20.7937 48.0082 20.7937 45.5439C20.7937 43.0797 22.7855 41.0878 25.2497 41.0878C27.714 41.0878 29.7058 43.0797 29.7058 45.5439C29.7058 47.9954 27.714 50 25.2497 50Z" fill="#E535AB"/>
<path d="M25.2497 8.91216C22.7855 8.91216 20.7937 6.92033 20.7937 4.45608C20.7937 1.99183 22.7855 0 25.2497 0C27.714 0 29.7058 1.99183 29.7058 4.45608C29.7058 6.92033 27.714 8.91216 25.2497 8.91216Z" fill="#E535AB"/>
</svg>
