<svg width="50" height="50" viewBox="0 0 50 50" fill="none" xmlns="http://www.w3.org/2000/svg">
<g clip-path="url(#clip0_1_2)">
<path d="M4.99999 9.45947C1.64356 13.8327 0 18.891 0 24.7981C0 31.8816 2.43069 37.8234 7.28218 42.698C12.1337 47.5726 18 50 25.005 50C32.0099 50 38.005 47.5677 42.7871 42.698C47.5693 37.8284 50 31.8816 50 24.7981C50 18.8413 48.2871 13.7632 44.9307 9.40983C44.4654 8.80423 43.7475 8.01 43.4455 7.69727V7.73202V7.70223L41.1139 10.0452L39.0545 12.1152C37.7555 13.5066 37.5658 15.6052 38.5941 17.2082C40.0468 19.4856 40.8561 22.1156 40.9357 24.8179C41.017 28.9506 39.3604 32.9269 36.3713 35.7733C33.3246 38.7069 29.2377 40.3022 25.0148 40.2061C20.5148 40.2061 16.7277 38.717 13.7277 35.7733C10.7129 32.9439 9.04831 28.9571 9.15347 24.8179C9.15347 20.7078 11.4901 17.2578 11.4901 17.2578C12.5063 15.6447 12.3025 13.5461 10.9951 12.1599L8.86633 10.0303L6.5396 7.69231C6.22277 7.97029 5.48514 8.79927 4.99999 9.45947Z" fill="black"/>
<path d="M25.7399 9.35049C27.9467 9.39366 30.1199 9.8867 32.1197 10.7979C35.6806 12.6314 37.827 10.3878 37.827 10.3878L42.3077 6.04549C37.6971 2.17336 31.8235 0.0301052 25.7399 0C19.2464 0 13.6776 2.30144 8.97436 6.19023L13.2325 10.354C13.2325 10.354 15.2701 12.6844 19.1672 10.8076C21.2255 9.86708 23.4672 9.37011 25.7399 9.35049Z" fill="#B71B54"/>
</g>
<defs>
<clipPath id="clip0_1_2">
<rect width="50" height="50" fill="white"/>
</clipPath>
</defs>
</svg>
