<svg width="50" height="50" viewBox="0 0 50 50" fill="none" xmlns="http://www.w3.org/2000/svg">
<path d="M45.6259 11.7493C45.3401 10.8345 44.6539 10.0912 43.7963 9.63376L26.3572 1.28589C25.8998 1.05718 25.3852 1 24.9278 1C24.4704 1 23.9558 1 23.4984 1.11435L6.05932 9.5194C5.20166 9.91964 4.57271 10.6629 4.344 11.635L0.0557111 30.4463C-0.115821 31.4183 0.112888 32.3903 0.68466 33.1908L12.7491 48.114C13.4352 48.8001 14.4072 49.2576 15.3792 49.3147H34.5907C35.6199 49.4291 36.5919 48.9717 37.2209 48.114L49.2853 33.1908C49.8571 32.3903 50.0858 31.4183 49.9714 30.4463L45.6259 11.7493Z" fill="#326DE6"/>
<path d="M42.9386 29.703C42.8814 29.703 42.8243 29.703 42.8243 29.6458C42.8243 29.5887 42.7099 29.5887 42.5955 29.5887C42.3668 29.5315 42.1381 29.5315 41.9094 29.5315C41.7951 29.5315 41.6807 29.5315 41.5664 29.4743H41.5092C40.8802 29.4171 40.1941 29.3028 39.5652 29.1312C39.3936 29.0741 39.2221 28.9025 39.1649 28.731L38.7075 28.6166C38.9362 26.9585 38.8219 25.2432 38.4788 23.585C38.0785 21.9269 37.3924 20.3259 36.4776 18.8965L36.8206 18.5535V18.4963C36.8206 18.3247 36.8778 18.096 36.9922 17.9817C37.5068 17.5243 38.0214 17.1812 38.5931 16.8381C38.7075 16.781 38.8218 16.7238 38.9362 16.6666C39.1649 16.5522 39.3364 16.4379 39.5652 16.3235C39.6223 16.2664 39.6795 16.2664 39.7367 16.2092C39.7939 16.152 39.7367 16.152 39.7367 16.0948C40.2513 15.6946 40.3656 15.0085 39.9654 14.4939C39.7939 14.2652 39.4508 14.0936 39.1649 14.0936C38.879 14.0936 38.5931 14.208 38.3644 14.3795L38.3073 14.4367C38.2501 14.4939 38.1929 14.551 38.1357 14.551C37.9642 14.7226 37.7927 14.8941 37.6783 15.0656C37.6211 15.18 37.5068 15.2372 37.4496 15.2944C37.0494 15.7518 36.5348 16.2092 36.0202 16.5523C35.9058 16.6094 35.7915 16.6666 35.6771 16.6666C35.6199 16.6666 35.5056 16.6666 35.4484 16.6094H35.3912L34.9338 16.8953C34.4764 16.4379 33.9618 15.9805 33.5044 15.5231C31.3888 13.8649 28.7587 12.8357 26.0713 12.5498L26.0142 12.0924V12.1496C25.8426 12.0353 25.7854 11.8637 25.7283 11.6922C25.7283 11.0632 25.7283 10.4343 25.8426 9.74816V9.69099C25.8426 9.57663 25.8998 9.46228 25.8998 9.34792C25.957 9.11921 25.957 8.8905 26.0142 8.6618V8.31873C26.0713 7.74696 25.6139 7.17519 25.0421 7.11801C24.6991 7.06083 24.356 7.23237 24.0701 7.51825C23.8414 7.74696 23.7271 8.03285 23.7271 8.31873V8.60462C23.7271 8.83333 23.7842 9.06204 23.8414 9.29074C23.8986 9.4051 23.8986 9.51945 23.8986 9.63381V9.69099C24.013 10.3199 24.013 10.9489 24.013 11.635C23.9558 11.8065 23.8986 11.9781 23.7271 12.0924V12.2068L23.6699 12.6642C23.0409 12.7214 22.412 12.8357 21.7259 12.9501C19.0385 13.5219 16.5799 14.9513 14.6931 16.9525L14.35 16.7238H14.2928C14.2357 16.7238 14.1785 16.781 14.0641 16.781C13.9498 16.781 13.8354 16.7238 13.7211 16.6666C13.2065 16.2664 12.6919 15.8089 12.2916 15.3515C12.2345 15.2372 12.1201 15.18 12.0629 15.1228C11.8914 14.9513 11.777 14.7798 11.6055 14.6082C11.5483 14.551 11.4911 14.551 11.434 14.4939C11.3768 14.4367 11.3768 14.4367 11.3768 14.4367C11.1481 14.2652 10.8622 14.1508 10.5763 14.1508C10.2332 14.1508 9.94736 14.2652 9.77583 14.551C9.43277 15.0656 9.54712 15.7518 10.0045 16.152C10.0617 16.152 10.0617 16.2092 10.0617 16.2092C10.0617 16.2092 10.1761 16.3235 10.2332 16.3235C10.4048 16.4379 10.6335 16.5522 10.8622 16.6666C10.9766 16.7238 11.0909 16.781 11.2053 16.8381C11.777 17.1812 12.3488 17.5243 12.8062 17.9817C12.9206 18.096 13.0349 18.3247 12.9778 18.4963V18.4391L13.3208 18.7822C13.2636 18.8965 13.2065 18.9537 13.1493 19.068C11.3768 21.8697 10.6335 25.186 11.1481 28.4451L10.6907 28.5595C10.6907 28.6166 10.6335 28.6166 10.6335 28.6166C10.5763 28.7882 10.4048 28.9025 10.2332 29.0169C9.6043 29.1884 8.97535 29.3028 8.28922 29.3599C8.17487 29.3599 8.06052 29.3599 7.94616 29.4171C7.71745 29.4171 7.48874 29.4743 7.26004 29.4743C7.20286 29.4743 7.14568 29.5315 7.03133 29.5315C6.97415 29.5315 6.97415 29.5315 6.91697 29.5887C6.28802 29.703 5.88778 30.2748 6.00214 30.9037C6.11649 31.4183 6.63109 31.7614 7.14568 31.7042C7.26003 31.7042 7.31721 31.7042 7.43157 31.647C7.48874 31.647 7.48874 31.647 7.48874 31.5899C7.48874 31.5327 7.66028 31.5899 7.71745 31.5899C7.94616 31.5327 8.17487 31.4183 8.3464 31.3611C8.46076 31.304 8.57511 31.2468 8.68947 31.2468H8.74664C9.37559 31.0181 9.94736 30.8466 10.6335 30.7322H10.6907C10.8622 30.7322 11.0337 30.7894 11.1481 30.9037C11.2053 30.9037 11.2053 30.9609 11.2053 30.9609L11.7199 30.9037C12.5775 33.5339 14.1785 35.8781 16.4084 37.5935C16.923 37.9937 17.3804 38.3368 17.9522 38.6227L17.6663 39.0229C17.6663 39.0801 17.7235 39.0801 17.7235 39.0801C17.8378 39.2516 17.8378 39.4803 17.7806 39.6518C17.5519 40.2236 17.2089 40.7954 16.8658 41.31V41.3672C16.8086 41.4815 16.7515 41.5387 16.6371 41.653C16.5227 41.7674 16.4084 41.9961 16.2369 42.2248C16.1797 42.282 16.1797 42.3392 16.1225 42.3963C16.1225 42.3963 16.1225 42.4535 16.0653 42.4535C15.7794 43.0253 16.0081 43.7114 16.5227 43.9973C16.6371 44.0545 16.8086 44.1117 16.923 44.1117C17.3804 44.1117 17.7806 43.8258 18.0093 43.4255C18.0093 43.4255 18.0093 43.3684 18.0665 43.3684C18.0665 43.3112 18.1237 43.254 18.1809 43.1968C18.2381 42.9681 18.3524 42.7966 18.4096 42.5679L18.5239 42.2248C18.6955 41.5959 18.9814 41.0241 19.2672 40.4523C19.3816 40.2808 19.5531 40.1664 19.7247 40.1093C19.7818 40.1093 19.7818 40.1093 19.7818 40.0521L20.0106 39.5947C21.6115 40.2236 23.2697 40.5095 24.985 40.5095C26.0142 40.5095 27.0433 40.3951 28.0725 40.1093C28.7015 39.9949 29.3304 39.7662 29.9022 39.5947L30.1309 39.9949C30.1881 39.9949 30.1881 39.9949 30.1881 40.0521C30.3596 40.1093 30.5312 40.2236 30.6455 40.3951C30.9314 40.9669 31.2173 41.5387 31.3888 42.1676V42.2248L31.5032 42.5679C31.5603 42.7966 31.6175 43.0253 31.7319 43.1968C31.7891 43.254 31.7891 43.3112 31.8462 43.3684C31.8462 43.3684 31.8462 43.4255 31.9034 43.4255C32.1321 43.8258 32.5324 44.1117 32.9898 44.1117C33.1613 44.1117 33.2757 44.0545 33.4472 43.9973C33.6759 43.883 33.9046 43.6542 33.9618 43.3684C34.019 43.0825 34.019 42.7966 33.9046 42.5107C33.9046 42.4535 33.8474 42.4535 33.8474 42.4535C33.8474 42.3963 33.7903 42.3392 33.7331 42.282C33.6187 42.0533 33.5044 41.8817 33.3328 41.7102C33.2757 41.5959 33.2185 41.5387 33.1041 41.4243V41.31C32.7039 40.7954 32.418 40.2236 32.1893 39.6518C32.1321 39.4803 32.1321 39.2516 32.2465 39.0801C32.2465 39.0229 32.3036 39.0229 32.3036 39.0229L32.1321 38.5655C35.0482 36.793 37.2781 34.0485 38.3073 30.7894L38.7647 30.8466C38.8219 30.8466 38.8218 30.7894 38.8218 30.7894C38.9362 30.675 39.1077 30.6178 39.2793 30.6178H39.3364C39.9654 30.7322 40.5943 30.9037 41.1661 31.1324H41.2233C41.3376 31.1896 41.452 31.2468 41.5664 31.2468C41.7951 31.3611 41.9666 31.4755 42.1953 31.5327C42.2525 31.5327 42.3097 31.5899 42.424 31.5899C42.4812 31.5899 42.4812 31.5899 42.5384 31.647C42.6527 31.7042 42.7099 31.7042 42.8243 31.7042C43.3389 31.7042 43.7963 31.3611 43.9678 30.9037C43.9106 30.2748 43.4532 29.8174 42.9386 29.703ZM26.4144 27.9305L24.8706 28.6738L23.3268 27.9305L22.9266 26.2724L24.013 24.9001H25.7283L26.8146 26.2724L26.4144 27.9305ZM35.7343 24.214C36.0202 25.4147 36.0773 26.6154 35.963 27.8162L30.5312 26.2724C30.0166 26.158 29.7307 25.6434 29.845 25.1288C29.9022 24.9573 29.9594 24.8429 30.0737 24.7286L34.362 20.8405C34.991 21.8697 35.4484 23.0133 35.7343 24.214ZM32.6467 18.725L27.9582 22.0413C27.5579 22.27 26.9862 22.2128 26.7003 21.8126C26.5859 21.6982 26.5287 21.5838 26.5287 21.4123L26.1857 15.6374C28.7015 15.9233 30.9314 17.0097 32.6467 18.725ZM22.2976 15.8089L23.4412 15.5802L23.1553 21.298C23.1553 21.8126 22.6979 22.2128 22.1833 22.2128C22.0118 22.2128 21.8974 22.1556 21.7259 22.0984L16.9802 18.725C18.4668 17.2956 20.2964 16.2664 22.2976 15.8089ZM15.322 20.8405L19.5531 24.6142C19.9534 24.9573 20.0105 25.5291 19.6675 25.9293C19.5531 26.1008 19.4388 26.158 19.2101 26.2152L13.6639 27.8162C13.4923 25.4147 14.0641 22.9561 15.322 20.8405ZM14.35 30.5035L20.0106 29.5315C20.468 29.5315 20.9254 29.8174 20.9826 30.2748C21.0397 30.4463 21.0397 30.675 20.9254 30.8466L18.7527 36.1069C16.7514 34.7918 15.1505 32.7906 14.35 30.5035ZM27.3292 37.5935C26.5288 37.765 25.7283 37.8793 24.8706 37.8793C23.6699 37.8793 22.412 37.6506 21.2684 37.3076L24.0701 32.2188C24.356 31.8757 24.8134 31.7614 25.2137 31.9901C25.3852 32.1044 25.4996 32.2188 25.6711 32.3903L28.4156 37.3648C28.0725 37.4219 27.7295 37.4791 27.3292 37.5935ZM34.3049 32.619C33.4472 33.9913 32.2465 35.192 30.8742 36.0497L28.6443 30.675C28.53 30.2176 28.7587 29.7602 29.1589 29.5887C29.3304 29.5315 29.502 29.4743 29.6735 29.4743L35.3912 30.4463C35.1053 31.2468 34.7623 31.9901 34.3049 32.619Z" fill="white"/>
</svg>
