<?xml version="1.0" encoding="utf-8"?>
<!-- Generator: Adobe Illustrator 23.0.2, SVG Export Plug-In . SVG Version: 6.00 Build 0)  -->
<svg version="1.1" xmlns="http://www.w3.org/2000/svg" xmlns:xlink="http://www.w3.org/1999/xlink" x="0px" y="0px"
	 viewBox="0 0 512 512" style="enable-background:new 0 0 512 512;" xml:space="preserve">
<style type="text/css">
	.st0{fill:#F0F0F0;}
	.st1{fill:#0052B4;}
	.st2{fill:#D80027;}
	.st3{fill:#FFDA44;}
</style>
<g id="Layer_1">
	<path class="st0" d="M283.7,1.5c1.9,0.2,3.8,0.4,5.6,0.7C287.4,1.9,285.6,1.7,283.7,1.5z"/>
	<path class="st0" d="M277.5,0.9c2,0.2,4,0.4,5.9,0.6C281.4,1.2,279.4,1.1,277.5,0.9z"/>
	<path class="st0" d="M283.4,1.5c0.1,0,0.2,0,0.3,0C283.6,1.5,283.5,1.5,283.4,1.5z"/>
	<path class="st0" d="M437,75c-1.3-1.3-2.6-2.6-4-3.9c-0.7-0.7-1.3-1.3-2-1.9c-0.7-0.6-1.4-1.3-2-1.9c-1.4-1.3-2.8-2.5-4.1-3.7
		C387.6,30.9,340.9,8.9,289.4,2.2v220.4h220.4c0.5,4,0.9,7.9,1.3,11.9C506,172.4,478.6,116.6,437,75z M322.8,8.8
		c32.8,8.8,62.9,24,89.1,44.1L322.8,142V8.8z M370,189.2l89.1-89.1c20.1,26.2,35.3,56.3,44.1,89.1H370z"/>
	<path class="st0" d="M289.4,2.2L289.4,2.2C289.4,2.2,289.3,2.2,289.4,2.2C289.3,2.2,289.4,2.2,289.4,2.2z"/>
	<path class="st0" d="M411.9,52.9L322.8,142V8.8C355.5,17.7,385.7,32.8,411.9,52.9z"/>
	<path class="st0" d="M429,67.3c-1.4-1.3-2.8-2.5-4.1-3.7C426.2,64.8,427.6,66,429,67.3z"/>
	<path class="st0" d="M370,189.2l89.1-89.1c20.1,26.2,35.3,56.3,44.1,89.1H370z"/>
	<path class="st0" d="M512,256c0,1.2,0,2.4,0,3.6c0,0.5,0,1,0,1.5c0,1,0,2.1-0.1,3.1c0,0.2,0,0.3,0,0.5c0,1.3-0.1,2.6-0.2,3.9
		c-0.1,1.4-0.2,2.8-0.2,4.2c-0.1,1.2-0.2,2.4-0.3,3.5c0,0.3,0,0.7-0.1,1.1c-0.2,2-0.4,3.9-0.6,5.9c0,0.1,0,0.3,0,0.4
		c-0.2,1.8-0.4,3.6-0.6,5.5c0,0.1,0,0.1,0,0.2h0c-4.3,32.8-14.8,63.7-30.3,91.4c0,0,0,0,0,0.1c-3,5.4-6.2,10.6-9.6,15.7
		c-0.1,0.1-0.2,0.3-0.3,0.4c-1,1.6-2.1,3.1-3.1,4.6c-0.1,0.1-0.2,0.3-0.3,0.4c-4.5,6.4-9.2,12.6-14.2,18.5l0,0
		c-0.6,0.7-1.2,1.4-1.8,2.1c-0.6,0.7-1.2,1.4-1.8,2.1c-1.2,1.4-2.5,2.8-3.7,4.1c-0.6,0.7-1.3,1.4-1.9,2c-0.6,0.7-1.3,1.4-1.9,2
		c-1.3,1.3-2.6,2.7-3.9,4c-41.6,41.6-97.4,68.9-159.6,74.1c-0.4,0-0.7,0.1-1.1,0.1c-1.2,0.1-2.4,0.2-3.5,0.3
		c-1.4,0.1-2.8,0.2-4.2,0.2c-1.3,0.1-2.6,0.1-3.9,0.2c-0.2,0-0.3,0-0.5,0c-1,0-2.1,0.1-3.1,0.1c-0.5,0-1,0-1.5,0c-1.2,0-2.4,0-3.6,0
		s-2.4,0-3.6,0c-0.5,0-1,0-1.5,0c-1,0-2.1,0-3.1-0.1c-0.2,0-0.3,0-0.5,0c-1.3,0-2.6-0.1-3.9-0.2c-1.4-0.1-2.8-0.2-4.2-0.2
		c-1.2-0.1-2.4-0.2-3.5-0.3c-0.3,0-0.7,0-1.1-0.1c-2-0.2-4-0.4-5.9-0.6c-0.1,0-0.2,0-0.3,0c-1.9-0.2-3.8-0.4-5.6-0.7
		c0,0-0.1,0-0.1,0v0c-51.5-6.7-98.3-28.7-135.4-61.4c-1.4-1.2-2.8-2.5-4.1-3.7c-0.7-0.6-1.4-1.3-2-1.9c-0.7-0.6-1.4-1.3-2-1.9
		c-1.3-1.3-2.7-2.6-4-3.9C33.4,395.4,6,339.6,0.9,277.5c0-0.4-0.1-0.7-0.1-1.1c-0.1-1.2-0.2-2.4-0.3-3.5c-0.1-1.4-0.2-2.8-0.2-4.2
		c-0.1-1.3-0.1-2.6-0.2-3.9c0-0.2,0-0.3,0-0.5c0-1-0.1-2.1-0.1-3.1c0-0.5,0-1,0-1.5c0-1.2,0-2.4,0-3.6s0-2.4,0-3.6c0-0.5,0-1,0-1.5
		c0-1,0-2.1,0.1-3.1c0-0.2,0-0.3,0-0.5c0-1.3,0.1-2.6,0.2-3.9c0.1-1.4,0.2-2.8,0.2-4.2c0.1-1.2,0.2-2.4,0.3-3.5c0-0.3,0-0.7,0.1-1.1
		c0.2-2,0.4-4,0.6-5.9c0-0.1,0-0.2,0-0.3c0.2-1.9,0.4-3.7,0.7-5.6c0,0,0-0.1,0-0.1h0c5.7-43.5,22.3-83.6,47-117.4
		c0.1-0.1,0.1-0.2,0.2-0.2c1.2-1.6,2.3-3.2,3.5-4.7c0,0,0.1-0.1,0.1-0.1l0,0c2.3-3,4.6-5.9,7-8.7l0,0c0,0,0-0.1,0.1-0.1
		c1.2-1.4,2.4-2.8,3.6-4.1c1.2-1.4,2.5-2.8,3.7-4.1c0.6-0.7,1.3-1.4,1.9-2c0.6-0.7,1.3-1.4,1.9-2c1.3-1.3,2.6-2.7,3.9-4
		C116.6,33.4,172.4,6,234.5,0.9c0.4,0,0.7-0.1,1.1-0.1c1.2-0.1,2.4-0.2,3.5-0.3c1.4-0.1,2.8-0.2,4.2-0.2c1.3-0.1,2.6-0.1,3.9-0.2
		c0.2,0,0.3,0,0.5,0c1,0,2.1-0.1,3.1-0.1c0.5,0,1,0,1.5,0c1.2,0,2.4,0,3.6,0s2.4,0,3.6,0c0.5,0,1,0,1.5,0c1,0,2.1,0,3.1,0.1
		c0.2,0,0.3,0,0.5,0c1.3,0,2.6,0.1,3.9,0.2c1.4,0.1,2.8,0.2,4.2,0.2c1.2,0.1,2.4,0.2,3.5,0.3c0.3,0,0.7,0,1.1,0.1
		c4,0.3,8,0.8,11.9,1.3v220.4h220.4c0.5,4,0.9,7.9,1.3,11.9c0,0.4,0.1,0.7,0.1,1.1c0.1,1.2,0.2,2.4,0.3,3.5c0.1,1.4,0.2,2.8,0.2,4.2
		c0.1,1.3,0.1,2.6,0.2,3.9c0,0.2,0,0.3,0,0.5c0,1,0.1,2.1,0.1,3.1c0,0.5,0,1,0,1.5C512,253.6,512,254.8,512,256z"/>
	<g>
		<path class="st1" d="M52.9,100.1c-20.1,26.2-35.3,56.3-44.1,89.1H142L52.9,100.1z"/>
		<path class="st1" d="M503.2,189.2H370l89.1-89.1C479.2,126.3,494.3,156.5,503.2,189.2z"/>
		<path class="st1" d="M8.8,322.8c8.8,32.8,24,62.9,44.1,89.1l89.1-89.1H8.8L8.8,322.8z"/>
		<path class="st1" d="M411.9,52.9L322.8,142V8.8C355.5,17.7,385.7,32.8,411.9,52.9z"/>
		<path class="st1" d="M100.1,459.1c26.2,20.1,56.3,35.3,89.1,44.1V370L100.1,459.1z"/>
		<path class="st1" d="M189.2,8.8c-32.8,8.8-62.9,24-89.1,44.1l89.1,89.1V8.8z"/>
		<path class="st1" d="M322.8,503.2c32.8-8.8,62.9-24,89.1-44.1L322.8,370L322.8,503.2L322.8,503.2z"/>
		<path class="st1" d="M370,322.8l89.1,89.1c20.1-26.2,35.3-56.3,44.1-89.1H370z"/>
	</g>
	<g>
		<path class="st2" d="M512,256c0,1.2,0,2.4,0,3.6c0,0.5,0,1,0,1.5c0,1,0,2.1-0.1,3.1c0,0.2,0,0.3,0,0.5c0,1.3-0.1,2.6-0.2,3.9
			c-0.1,1.4-0.2,2.8-0.2,4.2c-0.1,1.2-0.2,2.4-0.3,3.5c0,0.3,0,0.7-0.1,1.1c-0.3,4-0.8,8-1.3,11.9H289.4v220.4
			c-4,0.5-7.9,0.9-11.9,1.3c-0.4,0-0.7,0.1-1.1,0.1c-1.2,0.1-2.4,0.2-3.5,0.3c-1.4,0.1-2.8,0.2-4.2,0.2c-1.3,0.1-2.6,0.1-3.9,0.2
			c-0.2,0-0.3,0-0.5,0c-1,0-2.1,0.1-3.1,0.1c-0.5,0-1,0-1.5,0c-1.2,0-2.4,0-3.6,0s-2.4,0-3.6,0c-0.5,0-1,0-1.5,0c-1,0-2.1,0-3.1-0.1
			c-0.2,0-0.3,0-0.5,0c-1.3,0-2.6-0.1-3.9-0.2c-1.4-0.1-2.8-0.2-4.2-0.2c-1.2-0.1-2.4-0.2-3.5-0.3c-0.3,0-0.7,0-1.1-0.1
			c-4-0.3-8-0.8-11.9-1.3V289.4H2.2c-0.5-4-0.9-7.9-1.3-11.9c0-0.4-0.1-0.7-0.1-1.1c-0.1-1.2-0.2-2.4-0.3-3.5
			c-0.1-1.4-0.2-2.8-0.2-4.2c-0.1-1.3-0.1-2.6-0.2-3.9c0-0.2,0-0.3,0-0.5c0-1-0.1-2.1-0.1-3.1c0-0.5,0-1,0-1.5c0-1.2,0-2.4,0-3.6
			s0-2.4,0-3.6c0-0.5,0-1,0-1.5c0-1,0-2.1,0.1-3.1c0-0.2,0-0.3,0-0.5c0-1.3,0.1-2.6,0.2-3.9c0.1-1.4,0.2-2.8,0.2-4.2
			c0.1-1.2,0.2-2.4,0.3-3.5c0-0.3,0-0.7,0.1-1.1c0.3-4,0.8-8,1.3-11.9h220.4V2.2c4-0.5,7.9-0.9,11.9-1.3c0.4,0,0.7-0.1,1.1-0.1
			c1.2-0.1,2.4-0.2,3.5-0.3c1.4-0.1,2.8-0.2,4.2-0.2c1.3-0.1,2.6-0.1,3.9-0.2c0.2,0,0.3,0,0.5,0c1,0,2.1-0.1,3.1-0.1
			c0.5,0,1,0,1.5,0c1.2,0,2.4,0,3.6,0s2.4,0,3.6,0c0.5,0,1,0,1.5,0c1,0,2.1,0,3.1,0.1c0.2,0,0.3,0,0.5,0c1.3,0,2.6,0.1,3.9,0.2
			c1.4,0.1,2.8,0.2,4.2,0.2c1.2,0.1,2.4,0.2,3.5,0.3c0.3,0,0.7,0,1.1,0.1c4,0.3,8,0.8,11.9,1.3v220.4h220.4c0.5,4,0.9,7.9,1.3,11.9
			c0,0.4,0.1,0.7,0.1,1.1c0.1,1.2,0.2,2.4,0.3,3.5c0.1,1.4,0.2,2.8,0.2,4.2c0.1,1.3,0.1,2.6,0.2,3.9c0,0.2,0,0.3,0,0.5
			c0,1,0.1,2.1,0.1,3.1c0,0.5,0,1,0,1.5C512,253.6,512,254.8,512,256z"/>
		<path class="st2" d="M322.8,322.8L322.8,322.8L437,437c5.3-5.3,10.3-10.7,15-16.4l-97.8-97.8L322.8,322.8L322.8,322.8L322.8,322.8
			z"/>
		<path class="st2" d="M189.2,322.8L189.2,322.8L75,437c5.3,5.3,10.7,10.3,16.4,15l97.8-97.8L189.2,322.8L189.2,322.8z"/>
		<path class="st2" d="M189.2,189.2L189.2,189.2L75,75c-5.3,5.3-10.3,10.7-15,16.4l97.8,97.8L189.2,189.2L189.2,189.2z"/>
	</g>
</g>
<g id="Capa_2">
	<path class="st3" d="M513,256c0,31.3-5.6,61.3-15.9,89L257,367.3l-102.8-9.5l203.7-203.7L497.1,167C507.4,194.7,513,224.7,513,256z
		"/>
	<g>
		<path class="st2" d="M497.1,167H345l92.5-92.5C463.6,100.4,484.1,131.8,497.1,167z"/>
		<path class="st2" d="M497.1,345c-36.2,97.5-130,167-240.1,167c-71,0-135.2-28.9-181.5-75.5L167,345H497.1z"/>
	</g>
</g>
</svg>
