<svg width="50" height="50" viewBox="0 0 50 50" fill="none" xmlns="http://www.w3.org/2000/svg">
<g clip-path="url(#clip0_1_29)">
<circle cx="25" cy="25" r="25" fill="#21313C"/>
<path d="M34.8389 19.908C32.4682 9.44967 27.527 6.66553 26.2666 4.69743C25.7468 3.83043 25.2864 2.92923 24.8884 2C24.8218 2.92908 24.6995 3.5144 23.9098 4.21895C22.3242 5.6327 15.5899 11.1205 15.0231 23.0034C14.4951 34.0827 23.1681 40.9145 24.3139 41.6206C25.195 42.0542 26.2681 41.6299 26.7915 41.232C30.9723 38.3627 36.6846 30.7132 34.8435 19.908" fill="#10AA50"/>
<path d="M25.2477 35.721C25.0293 38.4633 24.8729 40.0567 24.3186 41.6238C24.3186 41.6238 24.6825 44.2345 24.938 47H25.8423C26.058 45.0526 26.3873 43.1194 26.8286 41.2103C25.658 40.6343 25.2926 38.1273 25.2477 35.721Z" fill="#B8C4C2"/>
<path d="M26.8271 41.2118C25.6441 40.6652 25.3019 38.1056 25.2492 35.721C25.5418 31.7873 25.6271 27.841 25.5047 23.8984C25.4428 21.8297 25.5341 4.73767 24.9953 2.23535C25.3639 3.08286 25.7886 3.90486 26.2666 4.69587C27.527 6.66552 32.4697 9.44966 34.8389 19.908C36.6846 30.6946 31.0033 38.3239 26.8271 41.2118Z" fill="#12924F"/>
</g>
<defs>
<clipPath id="clip0_1_29">
<rect width="50" height="50" fill="white"/>
</clipPath>
</defs>
</svg>
