<svg width="50" height="50" viewBox="0 0 50 50" fill="none" xmlns="http://www.w3.org/2000/svg">
<path d="M23.5729 11.004H18.8135C18.5076 11.004 18.2564 11.2553 18.2564 11.5616L18.3663 29.3654C18.3663 29.4792 18.2211 29.5186 18.1584 29.4242L6.58377 11.4398C6.41114 11.1689 6.10902 11.004 5.78729 11.004H0.557148C0.251108 11.004 0 11.2553 0 11.5616V39.2724C0 39.5787 0.251108 39.83 0.557148 39.83H5.31645C5.6225 39.83 5.87361 39.5787 5.87361 39.2724V21.6415C5.87361 21.5315 6.01877 21.4883 6.07763 21.5826L17.5424 39.3942C17.715 39.6652 18.0171 39.83 18.3389 39.83H23.569C23.875 39.83 24.1261 39.5787 24.1261 39.2724V11.5616C24.1261 11.2514 23.8789 11.004 23.5729 11.004Z" fill="#FE5000"/>
<path d="M32.2139 11.4948C32.0256 11.2003 31.6724 11.004 31.3232 11.004H25.8851C25.4458 11.004 25.1829 11.4909 25.4182 11.86L34.1051 25.2934C34.1522 25.3679 34.1522 25.4621 34.1051 25.5368L25.4182 38.9741C25.1789 39.3433 25.4458 39.83 25.8813 39.83H31.3429C31.6921 39.83 32.0139 39.6534 32.2021 39.3628L40.685 26.1768C40.983 25.7136 40.983 25.1166 40.685 24.6533L32.2139 11.4948Z" fill="#FE5000"/>
<path d="M42.4271 27.3587C42.3368 27.2213 42.1366 27.2213 42.0464 27.3587L39.2097 31.7645C38.9114 32.2279 38.9114 32.8246 39.2097 33.288L43.0587 39.2645C43.2863 39.618 43.6747 39.83 44.0906 39.83H49.4387C49.8774 39.83 50.1452 39.343 49.9048 38.974L42.4271 27.3587Z" fill="#50007F"/>
<path d="M43.0627 11.5655L39.2137 17.5419C38.9155 18.0053 38.9155 18.6021 39.2137 19.0655L42.0503 23.4752C42.1368 23.6126 42.3368 23.6126 42.4231 23.4752L49.9129 11.8403C50.1452 11.4791 49.8855 11 49.4581 11H44.0945C43.6748 11.0039 43.2863 11.216 43.0627 11.5655Z" fill="#50007F"/>
</svg>
