<svg width="50" height="50" viewBox="0 0 50 50" fill="none" xmlns="http://www.w3.org/2000/svg">
<path d="M25.1851 50C24.5156 50 23.8506 49.8244 23.2635 49.4864L17.147 45.8651C16.2334 45.3542 16.6792 45.1735 16.9805 45.0694C18.1986 44.6429 18.4458 44.5466 19.7459 43.8082C19.8826 43.7302 20.0615 43.7578 20.2013 43.8403L24.9003 46.6287C25.07 46.7204 25.3108 46.7204 25.4681 46.6287L43.7898 36.053C43.9595 35.9567 44.0696 35.7595 44.0696 35.5577V14.4155C44.0696 14.2045 43.9595 14.0165 43.7862 13.911L25.4718 3.34446C25.3021 3.24357 25.0774 3.24357 24.9077 3.34446L6.59693 13.911C6.41945 14.0119 6.30663 14.2091 6.30663 14.4109V35.5531C6.30663 35.7549 6.4167 35.9475 6.59097 36.0438L11.6082 38.9423C14.3324 40.3044 15.9972 38.6992 15.9972 37.0849V16.2178C15.9972 15.9197 16.2311 15.6904 16.5292 15.6904H18.8498C19.1387 15.6904 19.3772 15.9197 19.3772 16.2178V37.0941C19.3772 40.7263 17.396 42.813 13.9518 42.813C12.8924 42.813 12.0577 42.813 9.72791 41.6665L4.92161 38.8964C3.73379 38.2085 3 36.9244 3 35.5531V14.4109C3 13.035 3.73379 11.7509 4.92161 11.0722L23.2617 0.491866C24.422 -0.163955 25.9629 -0.163955 27.1141 0.491866L45.4312 11.0767C46.6145 11.7601 47.3528 13.0396 47.3528 14.4155V35.5577C47.3528 36.929 46.6145 38.2085 45.4312 38.8964L27.1141 49.4767C26.527 49.8161 25.8621 49.9904 25.1833 49.9904" fill="#689F63"/>
<path d="M30.8445 35.4316C22.8279 35.4316 21.147 31.7516 21.147 28.6651C21.147 28.3716 21.3837 28.1377 21.6776 28.1377H24.0441C24.3055 28.1377 24.5256 28.3281 24.5669 28.5863C24.9246 30.9977 25.9886 32.2139 30.8362 32.2139C34.6978 32.2139 36.3396 31.3416 36.3396 29.2939C36.3396 28.1153 35.8718 27.2393 29.8731 26.6523C24.8559 26.157 21.7556 25.0517 21.7556 21.0388C21.7556 17.3424 24.8742 15.141 30.0978 15.141C35.9636 15.141 38.8712 17.1772 39.2381 21.5525C39.2518 21.7038 39.1968 21.8506 39.0959 21.9606C38.995 22.0661 38.8528 22.1303 38.7061 22.1303H36.3259C36.0782 22.1303 35.8627 21.956 35.8122 21.7176C35.2389 19.1814 33.8539 18.3697 30.0887 18.3697C25.874 18.3697 25.3833 19.8372 25.3833 20.9379C25.3833 22.2725 25.9611 22.6623 31.648 23.4144C37.2798 24.162 39.9535 25.2168 39.9535 29.1747C39.9535 33.1646 36.624 35.4531 30.8179 35.4531" fill="#689F63"/>
</svg>
