<svg width="50" height="50" viewBox="0 0 50 50" fill="none" xmlns="http://www.w3.org/2000/svg">
<g clip-path="url(#clip0_1_2)">
<circle cx="25" cy="25" r="25" fill="#059688"/>
<path d="M23.8437 39.75C22.2687 39.75 21.0219 39.3417 20.1031 38.525C19.1844 37.7083 18.725 36.4687 18.725 34.8062H21.7C21.7 35.5646 21.8677 36.1406 22.2031 36.5344C22.5385 36.9281 23.0854 37.125 23.8437 37.125C24.6312 37.125 25.1927 36.95 25.5281 36.6C25.8635 36.25 26.0312 35.6521 26.0312 34.8062C26.0312 33.9604 25.8635 33.3406 25.5281 32.9469C25.1927 32.5531 24.6312 32.3562 23.8437 32.3562H7V29.7312H23.8437C25.4187 29.7312 26.6146 30.1396 27.4312 30.9562C28.2479 31.7729 28.6562 33.0562 28.6562 34.8062C28.6562 36.4687 28.2479 37.7083 27.4312 38.525C26.6146 39.3417 25.4187 39.75 23.8437 39.75ZM7 21.9V19.275H30.975C32.0542 19.275 32.8417 19.0198 33.3375 18.5094C33.8333 17.999 34.0812 17.1458 34.0812 15.95C34.0812 14.7542 33.8333 13.901 33.3375 13.3906C32.8417 12.8802 32.0542 12.625 30.975 12.625C29.8667 12.625 29.0646 12.924 28.5687 13.5219C28.0729 14.1198 27.825 14.8708 27.825 15.775H25.2C25.2 14.0833 25.7104 12.6979 26.7312 11.6187C27.7521 10.5396 29.1667 10 30.975 10C32.7542 10 34.1542 10.5177 35.175 11.5531C36.1958 12.5885 36.7062 14.0542 36.7062 15.95C36.7062 17.8458 36.1958 19.3115 35.175 20.3469C34.1542 21.3823 32.7542 21.9 30.975 21.9H7ZM36.4 36.3375V33.7125C37.4208 33.7125 38.1719 33.4281 38.6531 32.8594C39.1344 32.2906 39.375 31.4667 39.375 30.3875C39.375 29.2792 39.1052 28.4771 38.5656 27.9812C38.026 27.4854 37.2458 27.2375 36.225 27.2375H7V24.6125H36.225C38.0333 24.6125 39.4479 25.1229 40.4687 26.1437C41.4896 27.1646 42 28.5792 42 30.3875C42 32.2542 41.5187 33.7125 40.5562 34.7625C39.5937 35.8125 38.2083 36.3375 36.4 36.3375Z" fill="white"/>
</g>
<defs>
<clipPath id="clip0_1_2">
<rect width="50" height="50" fill="white"/>
</clipPath>
</defs>
</svg>
