<svg width="50" height="50" viewBox="0 0 50 50" fill="none" xmlns="http://www.w3.org/2000/svg">
<path d="M25 29.6125C27.4689 29.6125 29.4703 27.6219 29.4703 25.1679C29.4703 22.7131 27.4689 20.7233 25 20.7233C22.5311 20.7233 20.5297 22.7131 20.5297 25.1679C20.5297 27.6219 22.5311 29.6125 25 29.6125Z" fill="#139FCD"/>
<path fill-rule="evenodd" clip-rule="evenodd" d="M7.6793 17.7814C12.1617 16.0797 18.2858 15.0483 25 15.0483C31.7142 15.0483 37.8383 16.0797 42.3207 17.7814C44.5583 18.6309 46.4392 19.667 47.7785 20.8691C49.1174 22.0709 50 23.5216 50 25.1679C50 26.8141 49.1174 28.2648 47.7785 29.4665C46.4391 30.6685 44.5583 31.7046 42.3207 32.554C37.8383 34.2555 31.7142 35.2868 25 35.2868C18.2858 35.2868 12.1617 34.2555 7.67934 32.554C5.4417 31.7046 3.56087 30.6685 2.22154 29.4665C0.882645 28.2648 0 26.8141 0 25.1679C0 23.5216 0.882636 22.0709 2.22152 20.8691C3.56084 19.667 5.44167 18.6309 7.6793 17.7814ZM3.57548 22.3777C2.48679 23.3548 2.02703 24.2996 2.02703 25.1679C2.02703 26.0361 2.48678 26.9809 3.57546 27.9579C4.66371 28.9346 6.29563 29.8606 8.3987 30.6589C12.5977 32.2528 18.4669 33.2598 25 33.2598C31.5331 33.2598 37.4023 32.2528 41.6013 30.6589C43.7044 29.8606 45.3363 28.9346 46.4245 27.9579C47.5132 26.9809 47.973 26.0361 47.973 25.1679C47.973 24.2996 47.5132 23.3548 46.4245 22.3777C45.3363 21.4009 43.7043 20.4749 41.6013 19.6765C37.4023 18.0824 31.5331 17.0753 25 17.0753C18.4669 17.0753 12.5977 18.0824 8.39874 19.6765C6.29567 20.4749 4.66374 21.4009 3.57548 22.3777Z" fill="#139FCD"/>
<path fill-rule="evenodd" clip-rule="evenodd" d="M32.6532 3.39978C34.3687 2.84799 36.069 2.81459 37.4978 3.63482C38.9279 4.45568 39.751 5.93927 40.1289 7.69578C40.5067 9.45172 40.4687 11.591 40.0896 13.9437C39.3303 18.6564 37.1659 24.4471 33.8082 30.2295C30.4504 36.012 26.4892 40.7705 22.765 43.7798C20.9058 45.2822 19.0629 46.3835 17.3469 46.9354C15.6314 47.4871 13.931 47.5205 12.5022 46.7003C11.0721 45.8794 10.249 44.3958 9.87118 42.6392C9.49348 40.8833 9.53156 38.744 9.91071 36.3913C10.6702 31.6786 12.8348 25.8879 16.1924 20.1055C19.5502 14.323 23.5113 9.56465 27.2353 6.55533C29.0944 5.05297 30.9373 3.95171 32.6532 3.39978ZM28.5093 8.13193C25.0221 10.9499 21.2113 15.4992 17.9454 21.1234C14.6794 26.7478 12.6227 32.3034 11.9119 36.7138C11.5559 38.9227 11.5466 40.7892 11.8529 42.2129C12.159 43.6361 12.7512 44.506 13.5113 44.9422L13.5114 44.9423C14.2727 45.3794 15.3301 45.4547 16.7262 45.0057C18.1219 44.5568 19.7445 43.6145 21.491 42.2032C24.9784 39.3852 28.7894 34.8359 32.0553 29.2116C35.3212 23.5872 37.3778 18.0316 38.0884 13.6212C38.4443 11.4124 38.4535 9.54586 38.1472 8.12212C37.841 6.699 37.2488 5.82906 36.4887 5.39282L36.4887 5.39278C35.7273 4.95571 34.6699 4.8804 33.2739 5.32944C31.8783 5.77834 30.2557 6.72065 28.5093 8.13193Z" fill="#139FCD"/>
<path fill-rule="evenodd" clip-rule="evenodd" d="M17.347 3.39978C15.6315 2.84799 13.9312 2.81459 12.5024 3.63482C11.0723 4.45568 10.2492 5.93927 9.87129 7.69578C9.49351 9.45172 9.53151 11.591 9.91058 13.9437C10.6699 18.6564 12.8343 24.4471 16.192 30.2295C19.5498 36.012 23.511 40.7705 27.2352 43.7798C29.0944 45.2822 30.9373 46.3835 32.6533 46.9354C34.3688 47.4871 36.0691 47.5205 37.498 46.7003C38.9281 45.8794 39.7512 44.3958 40.129 42.6392C40.5067 40.8833 40.4686 38.744 40.0895 36.3913C39.33 31.6786 37.1654 25.8879 33.8077 20.1055C30.45 14.323 26.4889 9.56465 22.7649 6.55533C20.9058 5.05297 19.0629 3.95171 17.347 3.39978ZM21.4909 8.13193C24.9781 10.9499 28.7889 15.4992 32.0548 21.1234C35.3208 26.7478 37.3775 32.3034 38.0883 36.7138C38.4443 38.9227 38.4536 40.7892 38.1473 42.2129C37.8412 43.6361 37.249 44.506 36.4889 44.9422L36.4888 44.9423C35.7275 45.3794 34.6701 45.4547 33.274 45.0057C31.8783 44.5568 30.2557 43.6145 28.5092 42.2032C25.0218 39.3852 21.2108 34.8359 17.9449 29.2116C14.679 23.5872 12.6224 18.0316 11.9118 13.6212C11.5559 11.4124 11.5467 9.54586 11.853 8.12212C12.1591 6.699 12.7514 5.82906 13.5115 5.39282L13.5115 5.39278C14.2729 4.95571 15.3303 4.8804 16.7263 5.32944C18.1219 5.77834 19.7445 6.72065 21.4909 8.13193Z" fill="#139FCD"/>
</svg>
