<svg width="50" height="50" viewBox="0 0 50 50" fill="none" xmlns="http://www.w3.org/2000/svg">
<path d="M41.01 7.95296C36.8542 1.96705 28.5807 0.213221 22.6329 3.98777L12.148 10.6981C9.28849 12.4901 7.3059 15.4258 6.734 18.7429C6.23835 21.5261 6.65774 24.3856 7.99218 26.8639C7.07714 28.2364 6.46711 29.7615 6.20022 31.3628C5.59019 34.7561 6.39086 38.2638 8.37345 41.047C12.5674 47.0329 20.8028 48.7868 26.7506 45.0122L37.2354 38.34C40.095 36.5481 42.0776 33.6123 42.6495 30.2953C43.1451 27.512 42.7257 24.6525 41.3913 22.1743C42.3063 20.8017 42.9163 19.2766 43.1832 17.6753C43.8314 14.2439 43.0307 10.7362 41.01 7.95296Z" fill="#FF3E00"/>
<path d="M21.6035 41.6189C18.2102 42.4958 14.6644 41.1614 12.6818 38.3019C11.4617 36.6243 11.0042 34.5273 11.3473 32.4685C11.4236 32.1253 11.4998 31.8203 11.5761 31.4772L11.7667 30.8672L12.3005 31.2484C13.5587 32.1635 14.9313 32.8498 16.4182 33.3073L16.7995 33.4217L16.7613 33.8029C16.7232 34.3367 16.8757 34.9086 17.1807 35.3661C17.7908 36.243 18.8583 36.6624 19.8877 36.3955C20.1165 36.3193 20.3453 36.243 20.5359 36.1287L30.9826 29.4565C31.5164 29.1133 31.8596 28.6177 31.9739 28.0076C32.0883 27.3976 31.9358 26.7495 31.5927 26.2538C30.9826 25.3769 29.9151 24.9956 28.8857 25.2625C28.6569 25.3388 28.4281 25.415 28.2375 25.5294L24.2342 28.0839C23.586 28.5033 22.8616 28.8083 22.0991 28.9989C18.7058 29.8759 15.16 28.5414 13.1774 25.6819C11.9955 24.0043 11.4998 21.9074 11.8811 19.8485C12.2243 17.8659 13.4443 16.074 15.16 15.0064L25.6449 8.33421C26.293 7.91482 27.0175 7.6098 27.78 7.38104C31.1733 6.50413 34.7191 7.83857 36.7017 10.6981C37.9217 12.3757 38.3792 14.4726 38.0361 16.5315C37.9599 16.8746 37.8836 17.1796 37.7692 17.5228L37.5786 18.1328L37.0448 17.7515C35.7866 16.8365 34.4141 16.1502 32.9271 15.6927L32.5458 15.5783L32.584 15.197C32.6221 14.6633 32.4696 14.0914 32.1646 13.6338C31.5545 12.7569 30.487 12.3757 29.4576 12.6425C29.2288 12.7188 29.0001 12.7951 28.8094 12.9094L18.3627 19.5816C17.8289 19.9248 17.4858 20.4204 17.3714 21.0304C17.257 21.6405 17.4095 22.2886 17.7526 22.7843C18.3627 23.6612 19.4302 24.0425 20.4596 23.7756C20.6884 23.6993 20.9172 23.6231 21.1078 23.5087L25.1111 20.9542C25.7593 20.5348 26.4837 20.2298 27.2462 20.001C30.6395 19.1241 34.1853 20.4585 36.1679 23.3181C37.3879 24.9956 37.8455 27.0926 37.5023 29.1515C37.1592 31.134 35.9391 32.926 34.2234 33.9936L23.7386 40.6657C23.0904 41.0851 22.366 41.3902 21.6035 41.6189Z" fill="white"/>
</svg>
